<svg version="1.1" id="Layer_1" xmlns="http://www.w3.org/2000/svg" xmlns:xlink="http://www.w3.org/1999/xlink" x="0px" y="0px" width="100%" viewBox="0 0 512 512" enable-background="new 0 0 512 512" xml:space="preserve">

<path fill="#000000" opacity="1.000000" stroke="none" d="
M289.000000,1.000000 
	C363.632782,1.000000 438.265594,1.000000 512.949219,1.000000 
	C512.949219,171.555359 512.949219,342.110748 512.949219,513.000000 
	C438.312225,513.000000 363.623962,513.000000 288.250275,512.608521 
	C288.240448,511.820221 288.885223,511.145538 289.596069,511.066742 
	C311.939301,508.590240 333.160217,502.023804 353.626801,493.027496 
	C379.767975,481.536774 403.124725,465.587280 423.452301,445.685242 
	C434.805023,434.570190 445.447632,422.410156 454.615723,409.451416 
	C472.464386,384.223175 485.549866,356.534180 493.362823,326.419983 
	C497.979706,308.624756 501.627625,290.667450 501.816345,272.330536 
	C501.996521,254.821747 500.849884,237.287125 499.880585,219.786331 
	C499.599426,214.709900 497.921783,209.710831 496.867065,204.288239 
	C495.234161,196.888260 493.618500,189.876343 491.834473,182.507675 
	C489.142670,174.077179 486.619232,166.003448 484.055786,157.543762 
	C482.331482,152.831894 480.941376,148.361008 478.896606,144.212814 
	C475.505066,137.332443 471.692474,130.659592 468.018677,123.534843 
	C456.803894,102.970573 442.943726,84.844345 425.989990,68.682899 
	C422.572906,65.541260 419.295715,62.716812 415.896973,59.574524 
	C409.548431,54.482662 403.321411,49.708645 396.950439,44.610466 
	C382.196899,36.244167 367.587372,28.202024 352.631531,20.010332 
	C351.384796,19.564472 350.453430,19.338974 349.588470,18.961432 
	C330.783142,10.752960 311.140717,5.650109 290.828491,2.959167 
	C290.144470,2.868552 289.606201,1.677899 289.000000,1.000000 
z" data-index="1" style="opacity: 1; visibility: hidden; fill: rgb(121, 40, 202); stroke: rgb(121, 40, 202);"></path>
<path fill="#E88202" opacity="1.000000" stroke="none" d="
M496.884277,204.676315 
	C497.921783,209.710831 499.599426,214.709900 499.880585,219.786331 
	C500.849884,237.287125 501.996521,254.821747 501.816345,272.330536 
	C501.627625,290.667450 497.979706,308.624756 493.362823,326.419983 
	C485.549866,356.534180 472.464386,384.223175 454.615723,409.451416 
	C445.447632,422.410156 434.805023,434.570190 423.452301,445.685242 
	C403.124725,465.587280 379.767975,481.536774 353.626801,493.027496 
	C333.160217,502.023804 311.939301,508.590240 289.596069,511.066742 
	C288.885223,511.145538 288.240448,511.820221 287.782410,512.608521 
	C267.645782,513.000000 247.291550,513.000000 226.468658,513.000000 
	C225.268753,512.335632 224.601776,511.184082 223.796890,511.077881 
	C202.705521,508.295288 182.553177,502.323578 162.967911,494.060638 
	C142.685501,485.503571 124.092125,474.073303 107.066101,460.381927 
	C84.169228,441.969543 65.005562,420.097595 49.860420,394.725647 
	C39.038322,376.595917 29.678061,357.808044 24.005709,337.500946 
	C19.862112,322.666779 16.036972,307.537354 14.316781,292.286133 
	C12.282650,274.251495 12.221899,255.945145 12.187035,237.754883 
	C12.169569,228.642044 14.108847,219.525452 15.563396,210.638458 
	C15.847414,214.263046 15.731188,217.659760 15.420435,221.391586 
	C14.945034,229.386658 14.664160,237.046616 14.350999,245.134705 
	C14.612859,250.732971 14.907005,255.903107 15.173451,261.495911 
	C16.844694,273.392975 17.548931,285.129669 20.487671,296.277252 
	C24.394562,311.097290 30.042963,325.458221 34.993332,340.381226 
	C42.970451,354.839172 50.897396,368.932281 58.992283,383.329651 
	C64.087242,389.708862 69.014252,395.783813 74.077225,402.178345 
	C77.005920,405.380981 79.798653,408.264038 82.711258,411.474030 
	C93.772362,421.376587 104.377731,431.377960 115.778221,440.371399 
	C122.847015,445.947662 131.122589,449.994202 139.075134,455.019348 
	C149.841690,460.212341 160.389572,465.113342 171.218689,470.241241 
	C179.988739,473.038177 188.477585,475.608246 197.270630,478.392273 
	C223.122131,484.835297 248.923859,487.320221 275.245575,485.215576 
	C294.264801,483.694885 312.849823,480.377289 330.930054,474.460602 
	C373.326843,460.586334 409.555908,437.216522 439.023102,403.561523 
	C456.838318,383.214386 471.112213,360.689545 481.303131,335.601318 
	C490.251770,313.571411 496.232300,290.829590 498.153259,267.071136 
	C499.397400,251.683319 501.165680,236.303299 498.040466,220.499008 
	C497.716492,214.931030 497.300385,209.803680 496.884277,204.676315 
z" data-index="2" style="opacity: 1;"></path>
<path fill="#FEEB98" opacity="1.000000" stroke="none" d="
M15.614962,221.056473 
	C15.731188,217.659760 15.847414,214.263046 15.906411,210.407196 
	C18.038544,199.666580 19.822392,189.277847 22.506767,179.127274 
	C27.221222,161.300247 33.854263,144.073547 43.171406,128.187057 
	C50.923672,114.968826 59.703423,102.289230 68.826523,89.961967 
	C74.671585,82.064034 81.562881,74.815369 88.695000,68.020737 
	C104.041718,53.400219 120.973389,40.861519 139.662735,30.674616 
	C153.706741,23.019726 168.051331,16.094889 183.509338,11.992248 
	C196.600983,8.517646 209.945633,5.998380 223.165741,3.000932 
	C224.048981,2.800671 224.825912,2.131474 225.326141,1.340193 
	C241.020889,1.000000 257.041779,1.000000 273.476257,1.339546 
	C271.500610,4.549611 269.111359,7.420130 266.110413,11.025538 
	C294.141449,12.929470 320.868652,17.455236 346.006317,28.492010 
	C337.293182,37.312527 328.734589,45.830326 320.268768,54.439365 
	C317.395111,57.361633 314.755585,60.514118 311.587067,63.521912 
	C280.065643,54.787144 248.682785,53.588768 217.148865,59.621597 
	C232.962021,43.534687 248.641449,27.748884 265.007050,11.272264 
	C262.378296,11.151973 260.774292,10.901303 259.202698,11.034250 
	C244.484467,12.279305 229.630295,12.708365 215.083405,15.043033 
	C166.631058,22.819258 124.948364,44.674553 89.470474,78.259216 
	C61.424156,104.808876 40.698994,136.464142 28.425526,173.088043 
	C23.231005,188.588455 20.687790,204.977386 16.608093,220.981995 
	C16.056103,221.019836 15.835532,221.038147 15.614962,221.056473 
z" data-index="3"></path>
<path fill="#FFF5C9" opacity="1.000000" stroke="none" d="
M346.197174,28.225016 
	C320.868652,17.455236 294.141449,12.929470 266.110413,11.025538 
	C269.111359,7.420130 271.500610,4.549611 273.944946,1.339546 
	C278.689240,1.000000 283.378510,1.000000 288.533875,1.000000 
	C289.606201,1.677899 290.144470,2.868552 290.828491,2.959167 
	C311.140717,5.650109 330.783142,10.752960 349.588470,18.961432 
	C350.453430,19.338974 351.384796,19.564472 352.634521,20.362076 
	C351.325684,23.290552 349.667572,25.717735 347.706238,28.138489 
	C347.001068,28.163044 346.599121,28.194031 346.197174,28.225016 
z" data-index="4"></path>
<path fill="#FEEB99" opacity="1.000000" stroke="none" d="
M468.057251,123.899338 
	C471.692474,130.659592 475.505066,137.332443 478.896606,144.212814 
	C480.941376,148.361008 482.331482,152.831894 483.703857,157.588165 
	C482.503601,158.342377 481.615234,158.666229 480.501038,158.753326 
	C475.288818,148.554810 470.302368,138.593063 465.315948,128.631317 
	C464.447876,128.424881 463.579834,128.218460 462.711792,128.012039 
	C461.641296,129.714752 460.843597,131.690536 459.456360,133.076111 
	C450.060913,142.460220 440.540924,151.719620 430.750488,160.868805 
	C429.362518,159.293961 428.266113,157.883682 427.211761,156.442627 
	C424.434509,152.646515 421.675537,148.837036 418.934021,145.059448 
	C418.958710,145.086029 418.900146,145.128906 418.873840,144.789459 
	C418.177612,143.937759 417.507721,143.425537 416.612610,142.765991 
	C415.902039,142.108871 415.416656,141.599106 414.829529,140.759338 
	C408.493500,132.629288 402.259186,124.829231 395.971680,116.756752 
	C395.612885,116.304520 395.307281,116.124702 394.995422,115.975143 
	C394.989166,116.005386 395.050781,116.009338 394.974915,115.691010 
	C394.598602,115.059395 394.298126,114.746117 394.025970,114.336449 
	C394.054291,114.240051 393.775696,113.996941 393.516174,113.744843 
	C391.440704,111.650360 389.624725,109.807983 387.879150,107.624992 
	C398.627350,96.522865 409.305145,85.761353 420.325500,75.042496 
	C430.936371,86.319252 441.450317,97.342194 451.368835,108.877113 
	C456.280304,114.588997 460.095581,121.243454 464.712402,127.912910 
	C465.994080,126.374992 467.025665,125.137169 468.057251,123.899338 
z" data-index="5"></path>
<path fill="#FEEB99" opacity="1.000000" stroke="none" d="
M496.867065,204.288239 
	C497.300385,209.803680 497.716492,214.931030 497.765808,220.236877 
	C495.057037,208.996567 492.715027,197.577789 490.100800,184.831741 
	C487.347443,187.455551 485.911957,188.786240 484.517334,190.158463 
	C473.717834,200.784058 462.926208,211.417694 451.843140,221.783951 
	C449.556458,213.215912 447.558777,204.912781 445.503479,196.370163 
	C443.613129,197.123276 442.423340,197.597290 441.084656,197.711426 
	C436.934906,186.287659 432.934143,175.223770 429.076294,163.925842 
	C429.684692,163.428909 430.150146,163.166031 430.820251,163.207458 
	C435.774200,173.829147 440.523499,184.146530 445.455994,194.861938 
	C446.837585,193.542084 448.252594,192.218185 449.637115,190.863205 
	C459.941803,180.778198 470.240448,170.687027 480.752045,160.934265 
	C483.523895,168.285568 486.129150,175.284622 488.621613,182.323624 
	C489.503876,184.815247 490.408325,185.587112 492.002808,182.864426 
	C493.618500,189.876343 495.234161,196.888260 496.867065,204.288239 
z" data-index="6"></path>
<path fill="#FFF5C7" opacity="1.000000" stroke="none" d="
M468.018677,123.534851 
	C467.025665,125.137169 465.994080,126.374992 464.712402,127.912910 
	C460.095581,121.243454 456.280304,114.588997 451.368835,108.877113 
	C441.450317,97.342194 430.936371,86.319252 420.330872,74.710983 
	C419.948334,73.897308 419.902985,73.457802 420.204865,72.985947 
	C422.411346,71.635765 424.270599,70.317924 426.129822,69.000092 
	C442.943726,84.844345 456.803894,102.970573 468.018677,123.534851 
z" data-index="7"></path>
<path fill="#FEEB96" opacity="1.000000" stroke="none" d="
M348.009460,28.144918 
	C349.667572,25.717735 351.325684,23.290552 352.980835,20.511625 
	C367.587372,28.202024 382.196899,36.244167 396.609161,44.665691 
	C394.573212,46.694881 392.734528,48.344688 390.606659,49.994232 
	C389.930725,49.981991 389.544006,49.970013 388.826233,49.844513 
	C385.252075,47.771538 382.101013,45.635609 378.748505,43.885605 
	C368.543915,38.558762 358.261536,33.380825 348.009460,28.144918 
z" data-index="8"></path>
<path fill="#FFF5C9" opacity="1.000000" stroke="none" d="
M390.895844,49.994499 
	C392.734528,48.344688 394.573212,46.694881 396.753174,44.989849 
	C403.321411,49.708645 409.548431,54.482662 415.614136,59.746948 
	C413.964630,62.060684 412.476501,63.884155 410.657043,65.722031 
	C409.883453,65.744225 409.441162,65.752014 408.947815,65.437668 
	C408.101318,64.314743 407.367676,63.438873 406.500366,62.725491 
	C401.315918,58.461056 396.100739,54.234055 390.895844,49.994499 
z" data-index="9"></path>
<path fill="#FEEB99" opacity="1.000000" stroke="none" d="
M410.988373,65.707634 
	C412.476501,63.884155 413.964630,62.060684 415.735657,60.064789 
	C419.295715,62.716812 422.572906,65.541260 425.989990,68.682892 
	C424.270599,70.317924 422.411346,71.635765 419.877014,72.940430 
	C416.464081,70.520721 413.726227,68.114182 410.988373,65.707634 
z" data-index="10"></path>
<path fill="#FFF4C4" opacity="1.000000" stroke="none" d="
M491.834473,182.507675 
	C490.408325,185.587112 489.503876,184.815247 488.621613,182.323624 
	C486.129150,175.284622 483.523895,168.285568 480.813446,160.671951 
	C480.684814,159.712128 480.705841,159.351105 480.726837,158.990082 
	C481.615234,158.666229 482.503601,158.342377 483.743896,157.974121 
	C486.619232,166.003448 489.142670,174.077179 491.834473,182.507675 
z" data-index="11"></path>
<path fill="#FDD835" opacity="1.000000" stroke="none" d="
M452.132172,222.048859 
	C462.926208,211.417694 473.717834,200.784058 484.517334,190.158463 
	C485.911957,188.786240 487.347443,187.455551 490.100800,184.831741 
	C492.715027,197.577789 495.057037,208.996567 497.673706,220.677490 
	C501.165680,236.303299 499.397400,251.683319 498.153259,267.071136 
	C496.232300,290.829590 490.251770,313.571411 481.303131,335.601318 
	C471.112213,360.689545 456.838318,383.214386 439.023102,403.561523 
	C409.555908,437.216522 373.326843,460.586334 330.930054,474.460602 
	C312.849823,480.377289 294.264801,483.694885 275.245575,485.215576 
	C248.923859,487.320221 223.122131,484.835297 197.435760,478.090576 
	C198.665817,476.137787 200.015244,474.681274 201.407257,473.266663 
	C211.617493,462.890747 221.836258,452.523224 232.401443,442.065796 
	C233.453140,441.816742 234.155731,441.654938 235.276520,441.640137 
	C256.412781,445.245758 277.093353,444.664276 297.699554,440.959015 
	C333.314636,434.554840 364.622162,419.158478 391.413116,394.910034 
	C411.914185,376.354584 427.932678,354.411133 438.621246,328.793732 
	C452.571747,295.358276 457.638580,260.783356 451.569275,224.489594 
	C451.806030,223.442398 451.969086,222.745636 452.132172,222.048859 
z" data-index="12"></path>
<path fill="#FDD835" opacity="1.000000" stroke="none" d="
M16.939512,220.962463 
	C20.687790,204.977386 23.231005,188.588455 28.425526,173.088043 
	C40.698994,136.464142 61.424156,104.808876 89.470474,78.259216 
	C124.948364,44.674553 166.631058,22.819258 215.083405,15.043033 
	C229.630295,12.708365 244.484467,12.279305 259.202698,11.034250 
	C260.774292,10.901303 262.378296,11.151973 265.007050,11.272264 
	C248.641449,27.748884 232.962021,43.534687 216.776611,59.733360 
	C206.594681,63.127354 196.670670,65.482239 187.286331,69.199524 
	C149.516678,84.160675 119.642624,108.918968 97.345367,142.899536 
	C84.598633,162.325317 76.210869,183.524109 70.609879,206.176849 
	C51.942169,224.566849 33.571663,242.820053 15.201154,261.073242 
	C14.907005,255.903107 14.612859,250.732971 14.520176,244.816742 
	C15.460931,236.367905 16.200222,228.665192 16.939512,220.962463 
z" data-index="13"></path>
<path fill="#FEEC99" opacity="1.000000" stroke="none" d="
M15.173454,261.495911 
	C33.571663,242.820053 51.942169,224.566849 70.615891,206.579681 
	C69.613937,218.364441 67.774170,229.853012 67.122429,241.408585 
	C66.000587,261.299133 69.206505,280.771790 74.278877,300.200623 
	C61.019394,313.659821 47.981274,326.838135 34.943153,340.016418 
	C30.042963,325.458221 24.394562,311.097290 20.487671,296.277252 
	C17.548931,285.129669 16.844694,273.392975 15.173454,261.495911 
z" data-index="14"></path>
<path fill="#FEEB99" opacity="1.000000" stroke="none" d="
M138.856461,454.727417 
	C131.122589,449.994202 122.847015,445.947662 115.778221,440.371399 
	C104.377731,431.377960 93.772362,421.376587 83.047577,411.322815 
	C94.853020,399.269012 106.442017,387.693390 118.326820,376.252625 
	C120.741699,378.466980 122.860771,380.546509 125.008041,382.734436 
	C125.036232,382.842896 125.443146,382.998169 125.670471,383.227173 
	C126.270065,383.655304 126.642342,383.854431 127.010948,384.020264 
	C127.007278,383.986938 126.940804,383.995422 127.024635,384.252869 
	C127.409988,384.696259 127.711517,384.882172 128.013367,385.027954 
	C128.013702,384.987854 127.933556,384.984467 128.033371,385.240723 
	C128.424484,385.712402 128.715775,385.927795 129.147491,386.430939 
	C130.859314,388.141724 132.430725,389.564758 133.863602,391.096802 
	C133.841736,391.464996 133.958405,391.724152 134.043762,391.993042 
	C134.012436,392.002747 134.007416,391.937347 134.205353,392.190186 
	C135.009613,392.619537 135.615967,392.796082 136.399826,393.022705 
	C136.811218,393.188599 136.968933,393.370422 137.059753,394.004730 
	C138.732956,395.578522 140.396851,396.765869 142.027252,397.967651 
	C141.993744,397.982086 142.042938,397.928009 142.057404,398.279480 
	C142.955673,399.792175 143.621216,401.263031 144.758545,402.064514 
	C152.319550,407.392944 160.001022,412.550140 167.591568,417.837341 
	C168.859512,418.720551 169.875229,419.965912 170.882263,421.352295 
	C162.501999,429.983856 154.212204,438.273041 146.012817,446.650726 
	C143.499969,449.218292 141.234955,452.028381 138.856461,454.727417 
z" data-index="15" style="opacity: 1;"></path>
<path fill="#FDD835" opacity="1.000000" stroke="none" d="
M34.993332,340.381226 
	C47.981274,326.838135 61.019394,313.659821 74.442612,300.502533 
	C76.924751,306.442627 78.636040,312.535370 81.205215,318.241913 
	C85.540771,327.871796 90.419884,337.256989 94.725311,346.825592 
	C82.786819,358.338196 71.187668,369.764496 59.622425,381.224976 
	C59.188126,381.655304 59.082912,382.417755 58.824341,383.025421 
	C50.897396,368.932281 42.970451,354.839172 34.993332,340.381226 
z" data-index="16"></path>
<path fill="#FDD836" opacity="1.000000" stroke="none" d="
M139.075134,455.019348 
	C141.234955,452.028381 143.499969,449.218292 146.012817,446.650726 
	C154.212204,438.273041 162.501999,429.983856 171.198303,421.288452 
	C172.057297,420.813416 172.475021,420.710541 173.197495,420.812927 
	C183.814758,425.758514 194.127274,430.498779 204.877121,435.440063 
	C203.696930,436.681335 202.502960,437.975433 201.268387,439.229523 
	C191.162354,449.495361 181.048767,459.753723 170.937469,470.014374 
	C160.389572,465.113342 149.841690,460.212341 139.075134,455.019348 
z" data-index="17" style="opacity: 1;"></path>
<path fill="#FEEB99" opacity="1.000000" stroke="none" d="
M171.218689,470.241241 
	C181.048767,459.753723 191.162354,449.495361 201.268387,439.229523 
	C202.502960,437.975433 203.696930,436.681335 204.877121,435.440063 
	C194.127274,430.498779 183.814758,425.758514 173.285690,420.521240 
	C173.374908,419.041138 173.680679,418.057983 174.331390,417.149536 
	C186.141739,421.560364 197.607132,425.896515 209.008209,430.543945 
	C208.177109,432.068176 207.410339,433.281097 206.388306,434.897827 
	C208.871796,435.678925 211.018066,436.422821 213.202774,437.028046 
	C219.477631,438.766388 225.768021,440.448669 232.052307,442.153015 
	C221.836258,452.523224 211.617493,462.890747 201.407257,473.266663 
	C200.015244,474.681274 198.665817,476.137787 197.131546,477.876587 
	C188.477585,475.608246 179.988739,473.038177 171.218689,470.241241 
z" data-index="18"></path>
<path fill="#FEEB98" opacity="1.000000" stroke="none" d="
M58.992287,383.329651 
	C59.082912,382.417755 59.188126,381.655304 59.622425,381.224976 
	C71.187668,369.764496 82.786819,358.338196 95.017815,347.018982 
	C100.162834,353.387177 104.670258,359.642517 108.996735,366.191040 
	C97.190948,378.275726 85.566101,390.067261 73.941261,401.858795 
	C69.014252,395.783813 64.087242,389.708862 58.992287,383.329651 
z" data-index="19"></path>
<path fill="#FDD836" opacity="1.000000" stroke="none" d="
M74.077225,402.178345 
	C85.566101,390.067261 97.190948,378.275726 109.265862,366.380371 
	C112.487625,369.556976 115.259323,372.837372 118.031021,376.117798 
	C106.442017,387.693390 94.853020,399.269012 82.927704,410.995850 
	C79.798653,408.264038 77.005920,405.380981 74.077225,402.178345 
z" data-index="20"></path>
<path fill="#F9CE5D" opacity="1.000000" stroke="none" d="
M16.608093,220.981995 
	C16.200222,228.665192 15.460931,236.367905 14.552464,244.388611 
	C14.664160,237.046616 14.945034,229.386658 15.420435,221.391586 
	C15.835532,221.038147 16.056103,221.019836 16.608093,220.981995 
z" data-index="21"></path>
<path fill="#E88203" opacity="1.000000" stroke="none" d="
M118.326828,376.252625 
	C115.259323,372.837372 112.487625,369.556976 109.446808,366.087219 
	C104.670258,359.642517 100.162834,353.387177 95.362915,346.938477 
	C90.419884,337.256989 85.540771,327.871796 81.205215,318.241913 
	C78.636040,312.535370 76.924751,306.442627 74.663971,300.221619 
	C69.206505,280.771790 66.000587,261.299133 67.122429,241.408585 
	C67.774170,229.853012 69.613937,218.364441 70.913101,206.442871 
	C76.210869,183.524109 84.598633,162.325317 97.345367,142.899536 
	C119.642624,108.918968 149.516678,84.160675 187.286331,69.199524 
	C196.670670,65.482239 206.594681,63.127354 216.642883,60.034470 
	C248.682785,53.588768 280.065643,54.787144 311.868713,63.692642 
	C327.378754,70.620522 342.185089,77.338188 357.182495,84.330200 
	C363.881470,89.126389 370.389404,93.648232 377.086212,98.442459 
	C380.786316,101.798424 384.297546,104.882019 387.808777,107.965607 
	C389.624725,109.807983 391.440704,111.650360 393.086548,113.785416 
	C391.575012,113.521614 390.064911,113.199509 388.917419,112.373604 
	C371.193237,99.616730 351.942383,90.016663 330.975250,83.817596 
	C303.417877,75.670074 275.403564,73.770645 247.108109,78.323601 
	C224.097626,82.026169 202.319839,89.610573 182.095016,101.428604 
	C158.926132,114.966934 139.326477,132.436661 123.519089,154.124954 
	C104.410606,180.342453 92.924042,209.530731 88.677635,241.739792 
	C86.263626,260.050079 86.421516,278.249939 89.422264,296.360931 
	C94.369263,326.218536 105.618294,353.558533 123.507248,378.090607 
	C124.397362,379.311279 124.506866,381.101166 124.979843,382.626007 
	C122.860771,380.546509 120.741699,378.466980 118.326828,376.252625 
z" data-index="22"></path>
<path fill="#FDD836" opacity="1.000000" stroke="none" d="
M356.991425,84.055862 
	C342.185089,77.338188 327.378754,70.620522 312.290771,63.732128 
	C314.755585,60.514118 317.395111,57.361633 320.268768,54.439365 
	C328.734589,45.830326 337.293182,37.312527 346.006317,28.492010 
	C346.599121,28.194031 347.001068,28.163044 347.706238,28.138489 
	C358.261536,33.380825 368.543915,38.558762 378.748505,43.885605 
	C382.101013,45.635609 385.252075,47.771538 388.790771,50.201904 
	C387.852692,52.207275 386.737244,53.857525 385.366333,55.257576 
	C375.937958,64.886276 366.456085,74.462646 356.991425,84.055862 
z" data-index="23"></path>
<path fill="#F39E09" opacity="1.000000" stroke="none" d="
M209.072525,430.232666 
	C197.607132,425.896515 186.141739,421.560364 174.033936,416.964294 
	C164.262375,411.132935 155.133209,405.561523 146.007446,399.605286 
	C146.404160,397.784729 146.584106,396.245422 147.223190,394.928955 
	C155.270950,378.351349 163.082642,361.648071 171.606506,345.317169 
	C176.034836,336.832825 181.751602,329.020996 187.062531,321.238861 
	C196.584366,352.389526 221.861038,364.884827 248.046021,367.490540 
	C248.051285,372.281128 248.036301,376.609680 248.029160,381.410889 
	C248.039215,383.864075 248.031479,385.844666 248.045334,387.825134 
	C248.109650,397.018250 247.154449,396.024292 256.292542,395.959137 
	C261.003052,395.925568 267.538513,397.179840 269.913147,394.681335 
	C272.366486,392.100067 270.774841,385.674347 270.970001,380.478394 
	C270.953461,376.716370 270.919586,373.406403 270.914612,369.710754 
	C270.968292,368.552277 270.993103,367.779449 271.461853,367.021698 
	C293.392242,365.496277 310.919373,356.953888 321.752777,337.647461 
	C327.179535,327.976379 329.754852,317.427612 327.141785,305.755920 
	C327.394928,299.545013 328.510010,293.651947 327.741394,288.015839 
	C326.946503,282.187347 324.322479,276.608368 322.532288,270.524139 
	C321.544006,267.882172 320.784393,265.465973 319.455627,263.419220 
	C312.936249,253.376923 303.752472,246.248093 293.353088,240.705444 
	C284.993073,236.249741 276.361145,232.304321 268.013000,227.822449 
	C272.427063,223.972549 276.677917,220.432678 280.965637,217.328400 
	C280.698364,220.936066 282.014465,222.159988 285.303406,222.104706 
	C295.098358,221.940109 304.897888,222.047104 314.695618,222.047318 
	C329.387787,222.047638 329.387787,222.047394 329.134857,207.064575 
	C328.237640,199.468018 327.174835,192.217239 326.147339,184.653748 
	C326.225983,183.923782 326.269257,183.506516 326.663025,183.069550 
	C335.543457,178.277420 343.814636,172.947281 352.655426,168.844635 
	C373.268372,159.278976 394.155334,150.303757 414.931274,141.089355 
	C415.416656,141.599106 415.902039,142.108871 416.710388,143.085327 
	C417.655609,144.077637 418.277893,144.603271 418.900146,145.128906 
	C418.900146,145.128906 418.958710,145.086029 418.832031,145.422424 
	C422.114716,151.892502 425.524048,158.026199 428.933380,164.159882 
	C432.934143,175.223770 436.934906,186.287659 441.069885,198.098755 
	C442.879974,208.541306 444.555908,218.236618 446.203033,228.353958 
	C445.812347,243.372879 446.593750,258.106445 444.867981,272.540283 
	C440.222015,311.397736 423.954987,345.399139 397.382568,373.923706 
	C354.631409,419.815613 301.516632,440.030701 238.519623,435.147369 
	C228.425812,433.452362 218.749176,431.842499 209.072525,430.232666 
z" data-index="24" style="opacity: 1;"></path>
<path fill="#F6B647" opacity="1.000000" stroke="none" d="
M186.886322,320.905396 
	C181.751602,329.020996 176.034836,336.832825 171.606506,345.317169 
	C163.082642,361.648071 155.270950,378.351349 147.223190,394.928955 
	C146.584106,396.245422 146.404160,397.784729 145.698944,399.505798 
	C144.272354,399.170105 143.157639,398.549072 142.042938,397.928009 
	C142.042938,397.928009 141.993744,397.982086 141.901505,397.659912 
	C140.222992,396.097961 138.636734,394.858154 137.050476,393.618317 
	C136.968933,393.370422 136.811218,393.188599 136.179245,392.783905 
	C135.189911,392.309113 134.598663,392.123230 134.007416,391.937347 
	C134.007416,391.937347 134.012436,392.002747 134.104050,391.738159 
	C134.131149,391.311646 134.066635,391.149719 134.002136,390.987793 
	C132.430725,389.564758 130.859314,388.141724 129.035721,386.180054 
	C128.500229,385.422455 128.216888,385.203461 127.933548,384.984467 
	C127.933556,384.984467 128.013702,384.987854 127.908401,384.782959 
	C127.515671,384.383850 127.228241,384.189636 126.940811,383.995422 
	C126.940804,383.995422 127.007278,383.986938 126.837593,383.737122 
	C126.259651,383.324249 125.851395,383.161224 125.443146,382.998169 
	C125.443146,382.998169 125.036232,382.842896 125.008041,382.734436 
	C124.506866,381.101166 124.397362,379.311279 123.507248,378.090607 
	C105.618294,353.558533 94.369263,326.218536 89.422264,296.360931 
	C86.421516,278.249939 86.263626,260.050079 88.677635,241.739792 
	C92.924042,209.530731 104.410606,180.342453 123.519089,154.124954 
	C139.326477,132.436661 158.926132,114.966934 182.095016,101.428604 
	C202.319839,89.610573 224.097626,82.026169 247.108109,78.323601 
	C275.403564,73.770645 303.417877,75.670074 330.975250,83.817596 
	C351.942383,90.016663 371.193237,99.616730 388.917419,112.373604 
	C390.064911,113.199509 391.575012,113.521614 393.346069,114.037514 
	C393.775696,113.996941 394.054291,114.240051 394.103210,114.661186 
	C394.451691,115.391327 394.751251,115.700333 395.050781,116.009338 
	C395.050781,116.009338 394.989166,116.005386 395.084198,116.221985 
	C395.461121,116.635445 395.742981,116.832314 396.024872,117.029175 
	C402.259186,124.829231 408.493500,132.629288 414.829529,140.759354 
	C394.155334,150.303757 373.268372,159.278976 352.655426,168.844635 
	C343.814636,172.947281 335.543457,178.277420 326.445251,182.765854 
	C324.258575,179.312332 322.640106,176.142792 320.968414,172.629013 
	C318.332672,169.169479 315.750214,166.054184 313.160522,162.574524 
	C308.996521,155.038406 302.008087,151.442703 294.875183,147.669739 
	C294.499420,147.267014 294.221466,147.151367 293.707825,147.148010 
	C293.516846,147.152954 293.135162,147.170776 292.807770,146.988403 
	C287.603912,145.261139 282.809845,143.294373 277.821960,142.320007 
	C274.507599,141.672562 273.868073,140.232758 273.949646,137.344742 
	C274.094727,132.207825 273.995636,127.063980 273.996735,121.923035 
	C273.999054,110.875023 273.998566,110.875023 262.499756,111.027802 
	C250.868073,110.939209 250.867966,110.939209 251.136032,122.315132 
	C251.139923,122.480141 251.158432,122.644814 251.130722,123.288109 
	C251.075836,127.408333 250.640869,131.109055 251.142487,134.678116 
	C251.907547,140.121490 249.026596,141.213318 244.551208,142.083969 
	C238.617310,143.238342 232.853363,145.266220 226.770691,147.029129 
	C226.338120,147.427246 226.151260,147.714966 225.988297,148.003906 
	C226.012192,148.005112 226.000580,147.958679 225.624451,147.934143 
	C211.145782,153.780243 201.146027,163.680450 195.462463,178.315277 
	C192.036194,188.597351 191.034180,198.760910 192.635376,209.452484 
	C192.580582,214.677963 192.362549,219.653397 193.033936,224.505768 
	C195.923431,245.389557 209.208786,258.093231 227.122528,267.261841 
	C227.127792,267.505035 227.163132,267.990295 226.860779,268.148865 
	C222.413162,273.464478 218.267914,278.621582 213.830444,283.864990 
	C213.340775,283.999084 213.143326,284.046875 212.583984,284.041443 
	C211.490509,284.003937 210.758957,284.019684 209.557648,284.016418 
	C204.146378,283.994476 199.201218,283.869751 194.264206,284.017517 
	C187.188309,284.229309 185.216949,286.240448 184.642395,293.447449 
	C185.301544,302.187775 186.204391,310.619629 187.077255,319.361572 
	C186.993637,320.082886 186.939972,320.494110 186.886322,320.905396 
z" data-index="25"></path>
<path fill="#FDD836" opacity="1.000000" stroke="none" d="
M480.501038,158.753326 
	C480.705841,159.351105 480.684814,159.712128 480.602386,160.335464 
	C470.240448,170.687027 459.941803,180.778198 449.637115,190.863205 
	C448.252594,192.218185 446.837585,193.542084 445.455994,194.861938 
	C440.523499,184.146530 435.774200,173.829147 430.903198,162.895111 
	C430.874725,161.858765 430.967957,161.439056 431.061188,161.019333 
	C440.540924,151.719620 450.060913,142.460220 459.456360,133.076111 
	C460.843597,131.690536 461.641296,129.714752 462.711792,128.012039 
	C463.579834,128.218460 464.447876,128.424881 465.315948,128.631317 
	C470.302368,138.593063 475.288818,148.554810 480.501038,158.753326 
z" data-index="26" style="opacity: 1;"></path>
<path fill="#FDD837" opacity="1.000000" stroke="none" d="
M387.879150,107.625000 
	C384.297546,104.882019 380.786316,101.798424 377.380005,98.259460 
	C387.989594,87.122650 398.494232,76.441223 408.998871,65.759796 
	C409.441162,65.752014 409.883453,65.744225 410.657043,65.722038 
	C413.726227,68.114182 416.464081,70.520721 419.529785,72.972778 
	C419.902985,73.457802 419.948334,73.897308 419.988342,74.668335 
	C409.305145,85.761353 398.627350,96.522865 387.879150,107.625000 
z" data-index="27"></path>
<path fill="#FEF1BF" opacity="1.000000" stroke="none" d="
M430.750488,160.868805 
	C430.967957,161.439056 430.874725,161.858765 430.698547,162.590820 
	C430.150146,163.166031 429.684692,163.428909 429.076294,163.925842 
	C425.524048,158.026199 422.114716,151.892502 418.807343,145.395844 
	C421.675537,148.837036 424.434509,152.646515 427.211761,156.442627 
	C428.266113,157.883682 429.362518,159.293961 430.750488,160.868805 
z" data-index="28"></path>
<path fill="#FEF1BF" opacity="1.000000" stroke="none" d="
M418.873840,144.789459 
	C418.277893,144.603271 417.655609,144.077637 416.935608,143.232666 
	C417.507721,143.425537 418.177612,143.937759 418.873840,144.789459 
z" data-index="29"></path>
<path fill="#E88203" opacity="1.000000" stroke="none" d="
M395.971680,116.756760 
	C395.742981,116.832314 395.461121,116.635445 395.090454,116.191734 
	C395.307281,116.124702 395.612885,116.304520 395.971680,116.756760 
z" data-index="30"></path>
<path fill="#E88203" opacity="1.000000" stroke="none" d="
M394.974915,115.691010 
	C394.751251,115.700333 394.451691,115.391327 394.074890,114.757584 
	C394.298126,114.746117 394.598602,115.059395 394.974915,115.691010 
z" data-index="31"></path>
<path fill="#FFF4C8" opacity="1.000000" stroke="none" d="
M446.231812,227.931915 
	C444.555908,218.236618 442.879974,208.541306 441.218811,198.458633 
	C442.423340,197.597290 443.613129,197.123276 445.503479,196.370163 
	C447.558777,204.912781 449.556458,213.215912 451.843140,221.783951 
	C451.969086,222.745636 451.806030,223.442398 451.287140,224.588348 
	C449.364838,226.002335 447.798340,226.967133 446.231812,227.931915 
z" data-index="32"></path>
<path fill="#FEEB99" opacity="1.000000" stroke="none" d="
M408.947815,65.437660 
	C398.494232,76.441223 387.989594,87.122650 377.191162,97.987076 
	C370.389404,93.648232 363.881470,89.126389 357.182495,84.330200 
	C366.456085,74.462646 375.937958,64.886276 385.366333,55.257576 
	C386.737244,53.857525 387.852692,52.207275 389.121796,50.315422 
	C389.544006,49.970013 389.930725,49.981991 390.606659,49.994232 
	C396.100739,54.234055 401.315918,58.461056 406.500366,62.725491 
	C407.367676,63.438873 408.101318,64.314743 408.947815,65.437660 
z" data-index="33"></path>
<path fill="#FEEB99" opacity="1.000000" stroke="none" d="
M446.203064,228.353943 
	C447.798340,226.967133 449.364838,226.002335 451.213501,224.938766 
	C457.638580,260.783356 452.571747,295.358276 438.621246,328.793732 
	C427.932678,354.411133 411.914185,376.354584 391.413116,394.910034 
	C364.622162,419.158478 333.314636,434.554840 297.699554,440.959015 
	C277.093353,444.664276 256.412781,445.245758 235.369965,441.351746 
	C236.342407,439.021790 237.639587,437.127167 238.936783,435.232544 
	C301.516632,440.030701 354.631409,419.815613 397.382568,373.923706 
	C423.954987,345.399139 440.222015,311.397736 444.867981,272.540283 
	C446.593750,258.106445 445.812347,243.372879 446.203064,228.353943 
z" data-index="34"></path>
<path fill="#FFF5C9" opacity="1.000000" stroke="none" d="
M238.519623,435.147369 
	C237.639587,437.127167 236.342407,439.021790 234.951767,441.204773 
	C234.155731,441.654938 233.453140,441.816742 232.401428,442.065765 
	C225.768021,440.448669 219.477631,438.766388 213.202774,437.028046 
	C211.018066,436.422821 208.871796,435.678925 206.388306,434.897827 
	C207.410339,433.281097 208.177109,432.068176 209.008209,430.543945 
	C218.749176,431.842499 228.425812,433.452362 238.519623,435.147369 
z" data-index="35"></path>
<path fill="#FEF3C4" opacity="1.000000" stroke="none" d="
M142.057404,398.279480 
	C143.157639,398.549072 144.272354,399.170105 145.695557,399.890625 
	C155.133209,405.561523 164.262375,411.132935 173.688995,416.889587 
	C173.680679,418.057983 173.374908,419.041138 172.980927,420.315979 
	C172.475021,420.710541 172.057297,420.813416 171.323547,420.980103 
	C169.875229,419.965912 168.859512,418.720551 167.591568,417.837341 
	C160.001022,412.550140 152.319550,407.392944 144.758545,402.064514 
	C143.621216,401.263031 142.955673,399.792175 142.057404,398.279480 
z" data-index="36"></path>
<path fill="#FEF3C4" opacity="1.000000" stroke="none" d="
M137.059753,394.004730 
	C138.636734,394.858154 140.222992,396.097961 141.935013,397.645508 
	C140.396851,396.765869 138.732956,395.578522 137.059753,394.004730 
z" data-index="37"></path>
<path fill="#FEF3C4" opacity="1.000000" stroke="none" d="
M134.205353,392.190186 
	C134.598663,392.123230 135.189911,392.309113 136.001740,392.733826 
	C135.615967,392.796082 135.009613,392.619537 134.205353,392.190186 
z" data-index="38"></path>
<path fill="#E88203" opacity="1.000000" stroke="none" d="
M125.670464,383.227173 
	C125.851395,383.161224 126.259651,383.324249 126.841263,383.770416 
	C126.642342,383.854431 126.270065,383.655304 125.670464,383.227173 
z" data-index="39"></path>
<path fill="#E88203" opacity="1.000000" stroke="none" d="
M127.024643,384.252869 
	C127.228241,384.189636 127.515671,384.383850 127.908081,384.823059 
	C127.711517,384.882172 127.409988,384.696259 127.024643,384.252869 
z" data-index="40"></path>
<path fill="#E88203" opacity="1.000000" stroke="none" d="
M128.033371,385.240723 
	C128.216888,385.203461 128.500229,385.422455 128.895325,385.892303 
	C128.715775,385.927795 128.424484,385.712402 128.033371,385.240723 
z" data-index="41"></path>
<path fill="#FEF3C4" opacity="1.000000" stroke="none" d="
M133.863602,391.096802 
	C134.066635,391.149719 134.131149,391.311646 134.135376,391.728455 
	C133.958405,391.724152 133.841736,391.464996 133.863602,391.096802 
z" data-index="42"></path>
<path fill="#FEEB99" opacity="1.000000" stroke="none" d="
M212.945892,284.094635 
	C213.143326,284.046875 213.340775,283.999084 214.286865,283.911957 
	C220.625259,283.872589 226.215027,283.872589 231.831284,283.872589 
	C232.281494,287.449890 232.550507,290.257751 233.000809,293.036255 
	C234.233704,300.643066 236.997726,307.478455 243.556595,312.098724 
	C255.266708,320.347717 276.950775,318.877319 279.941528,300.487701 
	C279.977142,296.051819 280.373901,292.000000 279.769592,288.103485 
	C278.527588,280.095428 273.484955,274.559326 266.474091,271.066681 
	C257.113495,266.403442 247.520630,262.206573 238.081909,257.483521 
	C245.859024,249.168335 253.613693,241.209518 261.276093,233.162857 
	C262.721161,231.645279 263.798889,229.777924 265.397339,228.062592 
	C266.448975,228.079636 267.149414,228.106049 267.849854,228.132462 
	C276.361145,232.304321 284.993073,236.249741 293.353088,240.705444 
	C303.752472,246.248093 312.936249,253.376923 319.455627,263.419220 
	C320.784393,265.465973 321.544006,267.882172 322.180847,270.655029 
	C320.327606,272.531647 318.808563,273.830231 317.399017,275.238495 
	C294.059052,298.557190 270.727875,321.884705 247.412903,345.228394 
	C245.536270,347.107330 243.792374,349.118896 241.570358,351.094940 
	C218.722046,347.572723 201.058807,337.175446 190.795059,315.810059 
	C190.540909,315.013641 190.330185,314.495544 190.403381,313.808716 
	C198.106827,303.791534 205.526367,293.943085 212.945892,284.094635 
z" data-index="43" style="opacity: 1;"></path>
<path fill="#FDD836" opacity="1.000000" stroke="none" d="
M241.986816,351.068848 
	C243.792374,349.118896 245.536270,347.107330 247.412903,345.228394 
	C270.727875,321.884705 294.059052,298.557190 317.399017,275.238495 
	C318.808563,273.830231 320.327606,272.531647 322.147156,271.051117 
	C324.322479,276.608368 326.946503,282.187347 327.741394,288.015839 
	C328.510010,293.651947 327.394928,299.545013 327.089233,306.137207 
	C326.198761,310.289612 325.326324,313.630066 324.100769,317.072388 
	C315.814148,324.944580 307.842651,332.676697 299.975403,340.513489 
	C298.133209,342.348572 296.644165,344.538177 294.716614,346.761047 
	C290.831848,348.091095 287.243225,349.294891 283.608917,350.339874 
	C279.477905,351.527649 273.549469,351.319611 271.623749,354.017639 
	C269.508270,356.981476 271.062592,362.564667 271.017944,367.006592 
	C270.993103,367.779449 270.968292,368.552277 270.617981,369.835449 
	C266.877563,373.853027 263.462616,377.360352 259.586426,380.915527 
	C255.423889,380.955048 251.722610,380.946625 248.021317,380.938202 
	C248.036301,376.609680 248.051285,372.281128 248.080292,367.021790 
	C248.104538,363.934967 247.887070,361.748444 248.170868,359.629028 
	C248.828918,354.714600 247.679016,351.303802 241.986816,351.068848 
z" data-index="44"></path>
<path fill="#F6B647" opacity="1.000000" stroke="none" d="
M268.013000,227.822449 
	C267.149414,228.106049 266.448975,228.079636 265.187439,227.781738 
	C260.754608,225.350082 256.882843,223.189880 252.716461,220.864227 
	C246.377106,216.715912 241.465042,211.939682 241.111328,203.928162 
	C248.498978,191.625015 259.636353,188.109070 270.650116,194.927307 
	C278.315308,199.672592 280.085236,207.749847 281.043518,216.233276 
	C281.007874,216.453568 280.928802,216.892792 280.928802,216.892792 
	C276.677917,220.432678 272.427063,223.972549 268.013000,227.822449 
z" data-index="45"></path>
<path fill="#DC6905" opacity="1.000000" stroke="none" d="
M241.570374,351.094940 
	C247.679016,351.303802 248.828918,354.714600 248.170868,359.629028 
	C247.887070,361.748444 248.104538,363.934967 248.060028,366.559753 
	C221.861038,364.884827 196.584366,352.389526 187.062531,321.238831 
	C186.939972,320.494110 186.993637,320.082886 187.336578,319.188293 
	C188.696716,317.832733 189.767593,316.960541 190.838470,316.088379 
	C201.058807,337.175446 218.722046,347.572723 241.570374,351.094940 
z" data-index="46"></path>
<path fill="#DC6905" opacity="1.000000" stroke="none" d="
M271.461853,367.021698 
	C271.062592,362.564667 269.508270,356.981476 271.623749,354.017639 
	C273.549469,351.319611 279.477905,351.527649 283.608917,350.339874 
	C287.243225,349.294891 290.831848,348.091095 295.075256,346.628021 
	C309.117432,340.272552 319.090851,330.880798 324.453888,316.970490 
	C325.326324,313.630066 326.198761,310.289612 327.123779,306.567902 
	C329.754852,317.427612 327.179535,327.976379 321.752777,337.647461 
	C310.919373,356.953888 293.392242,365.496277 271.461853,367.021698 
z" data-index="47"></path>
<path fill="#DB6704" opacity="1.000000" stroke="none" d="
M280.965637,217.328400 
	C280.928802,216.892792 281.007874,216.453568 281.330261,216.071167 
	C284.435547,213.130692 287.218506,210.572617 290.322937,207.934814 
	C291.302002,207.796204 291.959656,207.737350 292.848022,207.733734 
	C293.410492,207.797562 293.701080,207.692459 294.210693,207.366257 
	C294.641449,207.180481 294.811981,207.102173 295.442657,207.129486 
	C306.924927,207.293503 317.947083,207.351913 328.969238,207.410324 
	C329.387787,222.047394 329.387787,222.047638 314.695618,222.047318 
	C304.897888,222.047104 295.098358,221.940109 285.303406,222.104706 
	C282.014465,222.159988 280.698364,220.936066 280.965637,217.328400 
z" data-index="48"></path>
<path fill="#FEEC99" opacity="1.000000" stroke="none" d="
M329.134857,207.064575 
	C317.947083,207.351913 306.924927,207.293503 295.495422,206.784637 
	C298.872192,203.256607 302.456787,199.882721 306.486176,197.169388 
	C312.871704,192.869461 319.554810,189.011444 326.112000,184.966446 
	C327.174835,192.217239 328.237640,199.468018 329.134857,207.064575 
z" data-index="49"></path>
<path fill="#DB6804" opacity="1.000000" stroke="none" d="
M248.029160,381.410889 
	C251.722610,380.946625 255.423889,380.955048 260.040253,380.965271 
	C264.287781,380.954895 267.620270,380.942627 270.952698,380.930389 
	C270.774841,385.674347 272.366486,392.100067 269.913147,394.681335 
	C267.538513,397.179840 261.003052,395.925568 256.292542,395.959137 
	C247.154449,396.024292 248.109650,397.018250 248.045334,387.825134 
	C248.031479,385.844666 248.039215,383.864075 248.029160,381.410889 
z" data-index="50"></path>
<path fill="#FEF1B2" opacity="1.000000" stroke="none" d="
M326.147339,184.653748 
	C319.554810,189.011444 312.871704,192.869461 306.486176,197.169388 
	C302.456787,199.882721 298.872192,203.256607 295.035309,206.679016 
	C294.811981,207.102173 294.641449,207.180481 293.981354,207.284454 
	C293.141205,207.292572 292.849701,207.415375 292.617279,207.678482 
	C291.959656,207.737350 291.302002,207.796204 290.131500,207.701767 
	C289.030182,207.409134 288.441711,207.269791 288.007690,206.821106 
	C289.535675,205.061676 290.886414,203.589157 292.286469,202.165161 
	C301.859070,192.428833 311.442017,182.702682 321.021667,172.973267 
	C322.640106,176.142792 324.258575,179.312332 326.094788,182.785553 
	C326.269257,183.506516 326.225983,183.923782 326.147339,184.653748 
z" data-index="51"></path>
<path fill="#FEEB99" opacity="1.000000" stroke="none" d="
M270.970032,380.478394 
	C267.620270,380.942627 264.287781,380.954895 260.501495,380.917389 
	C263.462616,377.360352 266.877563,373.853027 270.589111,370.221069 
	C270.919586,373.406403 270.953461,376.716370 270.970032,380.478394 
z" data-index="52"></path>
<path fill="#FEE268" opacity="1.000000" stroke="none" d="
M227.016373,146.918732 
	C232.853363,145.266220 238.617310,143.238342 244.551208,142.083969 
	C249.026596,141.213318 251.907547,140.121490 251.142487,134.678116 
	C250.640869,131.109055 251.075836,127.408333 251.414810,123.163757 
	C255.478302,118.723953 259.218323,114.886978 262.958344,111.050003 
	C273.998566,110.875023 273.999054,110.875023 273.996735,121.923035 
	C273.995636,127.063980 274.094727,132.207825 273.949646,137.344742 
	C273.868073,140.232758 274.507599,141.672562 277.821960,142.320007 
	C282.809845,143.294373 287.603912,145.261139 292.622833,147.258850 
	C284.582458,155.940353 276.369995,164.140015 268.245972,172.426376 
	C266.894836,173.804459 265.928955,175.560257 264.348419,177.115265 
	C249.874298,176.541534 243.749115,180.219391 240.812317,191.544205 
	C239.955917,194.846695 240.229553,198.442215 239.646301,201.967285 
	C237.680511,203.416565 235.965958,204.712234 234.441071,206.202042 
	C224.607452,215.809372 214.815308,225.459152 204.703094,234.941254 
	C197.685333,227.530426 194.078369,218.879257 192.881409,209.145798 
	C191.034180,198.760910 192.036194,188.597351 195.812683,178.213593 
	C206.247879,167.867081 216.124237,157.912888 226.000580,147.958679 
	C226.000580,147.958679 226.012192,148.005112 226.225128,147.891602 
	C226.630844,147.491623 226.823608,147.205170 227.016373,146.918732 
z" data-index="53"></path>
<path fill="#F39F0A" opacity="1.000000" stroke="none" d="
M279.849487,300.942078 
	C276.950775,318.877319 255.266708,320.347717 243.556595,312.098724 
	C236.997726,307.478455 234.233704,300.643066 233.000809,293.036255 
	C232.550507,290.257751 232.281494,287.449890 231.831284,283.872589 
	C226.215027,283.872589 220.625259,283.872589 214.579086,283.825623 
	C218.267914,278.621582 222.413162,273.464478 227.202682,268.202728 
	C236.463852,271.980377 245.020584,276.003845 253.712936,279.709167 
	C264.490845,284.303528 275.139526,288.932373 279.849487,300.942078 
z" data-index="54" style="opacity: 1;"></path>
<path fill="#FEF0B1" opacity="1.000000" stroke="none" d="
M264.785034,177.141510 
	C265.928955,175.560257 266.894836,173.804459 268.245972,172.426376 
	C276.369995,164.140015 284.582458,155.940353 292.950226,147.441223 
	C293.135162,147.170776 293.516846,147.152954 293.858826,147.317352 
	C294.434906,147.689148 294.707214,147.811722 295.017700,147.849503 
	C302.008087,151.442703 308.996521,155.038406 312.837524,162.713684 
	C301.976044,173.867050 291.430298,184.516846 280.628540,194.922424 
	C277.754150,186.541656 273.752777,179.634399 264.785034,177.141510 
z" data-index="55"></path>
<path fill="#DC6905" opacity="1.000000" stroke="none" d="
M279.941528,300.487701 
	C275.139526,288.932373 264.490845,284.303528 253.712936,279.709167 
	C245.020584,276.003845 236.463852,271.980377 227.505035,268.044189 
	C227.163132,267.990295 227.127792,267.505035 227.404495,267.100891 
	C230.828827,263.720367 233.976456,260.744019 237.348541,257.808350 
	C237.572998,257.849030 238.027512,257.809418 238.027512,257.809418 
	C247.520630,262.206573 257.113495,266.403442 266.474091,271.066681 
	C273.484955,274.559326 278.527588,280.095428 279.769592,288.103485 
	C280.373901,292.000000 279.977142,296.051819 279.941528,300.487701 
z" data-index="56"></path>
<path fill="#FEE169" opacity="1.000000" stroke="none" d="
M280.884583,195.166656 
	C291.430298,184.516846 301.976044,173.867050 312.844757,163.078064 
	C315.750214,166.054184 318.332672,169.169479 320.968384,172.629028 
	C311.442017,182.702682 301.859070,192.428833 292.286469,202.165161 
	C290.886414,203.589157 289.535675,205.061676 287.580139,206.824463 
	C282.173279,207.908875 280.482025,205.708832 281.005219,201.074768 
	C281.224274,199.134674 280.940033,197.137741 280.884583,195.166656 
z" data-index="57"></path>
<path fill="#E58F44" opacity="1.000000" stroke="none" d="
M237.124069,257.767639 
	C233.976456,260.744019 230.828827,263.720367 227.399231,266.857666 
	C209.208786,258.093231 195.923431,245.389557 193.033936,224.505768 
	C192.362549,219.653397 192.580582,214.677963 192.635376,209.452484 
	C194.078369,218.879257 197.685333,227.530426 204.749634,235.272339 
	C211.720108,240.840393 218.337555,245.923599 225.172974,251.272858 
	C229.301987,253.615158 233.213028,255.691391 237.124069,257.767639 
z" data-index="58"></path>
<path fill="#FEE269" opacity="1.000000" stroke="none" d="
M184.886078,293.139038 
	C185.216949,286.240448 187.188309,284.229309 194.264206,284.017517 
	C199.201218,283.869751 204.146378,283.994476 209.390411,284.301880 
	C202.356125,291.745270 195.019318,298.884216 187.478180,305.728821 
	C186.477905,301.335968 185.681992,297.237518 184.886078,293.139038 
z" data-index="59"></path>
<path fill="#FEEFAF" opacity="1.000000" stroke="none" d="
M225.624466,147.934143 
	C216.124237,157.912888 206.247879,167.867081 196.021301,177.922958 
	C201.146027,163.680450 211.145782,153.780243 225.624466,147.934143 
z" data-index="60"></path>
<path fill="#FEF0B1" opacity="1.000000" stroke="none" d="
M187.682510,306.023163 
	C195.019318,298.884216 202.356125,291.745270 209.860168,284.320862 
	C210.758957,284.019684 211.490509,284.003937 212.583984,284.041443 
	C205.526367,293.943085 198.106827,303.791534 190.213226,313.488312 
	C189.053604,310.898834 188.368057,308.460999 187.682510,306.023163 
z" data-index="61"></path>
<path fill="#FEEFAE" opacity="1.000000" stroke="none" d="
M262.499756,111.027802 
	C259.218323,114.886978 255.478302,118.723953 251.454193,122.685287 
	C251.158432,122.644814 251.139923,122.480141 251.136032,122.315132 
	C250.867966,110.939209 250.868073,110.939209 262.499756,111.027802 
z" data-index="62"></path>
<path fill="#E79545" opacity="1.000000" stroke="none" d="
M187.478180,305.728821 
	C188.368057,308.460999 189.053604,310.898834 189.929291,313.657043 
	C190.330185,314.495544 190.540909,315.013641 190.795059,315.810059 
	C189.767593,316.960541 188.696716,317.832733 187.366547,318.878235 
	C186.204391,310.619629 185.301544,302.187775 184.642395,293.447449 
	C185.681992,297.237518 186.477905,301.335968 187.478180,305.728821 
z" data-index="63"></path>
<path fill="#FEEFAF" opacity="1.000000" stroke="none" d="
M226.770691,147.029129 
	C226.823608,147.205170 226.630844,147.491623 226.201233,147.890381 
	C226.151260,147.714966 226.338120,147.427246 226.770691,147.029129 
z" data-index="64"></path>
<path fill="#FEE268" opacity="1.000000" stroke="none" d="
M294.875183,147.669739 
	C294.707214,147.811722 294.434906,147.689148 294.049805,147.312408 
	C294.221466,147.151367 294.499420,147.267014 294.875183,147.669739 
z" data-index="65"></path>
<path fill="#FEE268" opacity="1.000000" stroke="none" d="
M237.348541,257.808350 
	C233.213028,255.691391 229.301987,253.615158 225.327942,250.974503 
	C233.410950,242.197708 241.588882,234.016510 249.671204,225.741898 
	C250.999924,224.381561 251.908401,222.610779 253.011108,221.029694 
	C256.882843,223.189880 260.754608,225.350082 264.836243,227.791138 
	C263.798889,229.777924 262.721161,231.645279 261.276093,233.162857 
	C253.613693,241.209518 245.859024,249.168335 238.081909,257.483521 
	C238.027512,257.809418 237.572998,257.849030 237.348541,257.808350 
z" data-index="66"></path>
<path fill="#FDE894" opacity="1.000000" stroke="none" d="
M324.100769,317.072388 
	C319.090851,330.880798 309.117432,340.272552 295.351257,346.431641 
	C296.644165,344.538177 298.133209,342.348572 299.975403,340.513489 
	C307.842651,332.676697 315.814148,324.944580 324.100769,317.072388 
z" data-index="67"></path>
<path fill="#FEF0B1" opacity="1.000000" stroke="none" d="
M252.716461,220.864243 
	C251.908401,222.610779 250.999924,224.381561 249.671204,225.741898 
	C241.588882,234.016510 233.410950,242.197708 225.109970,250.708466 
	C218.337555,245.923599 211.720108,240.840393 205.056122,235.426102 
	C214.815308,225.459152 224.607452,215.809372 234.441071,206.202042 
	C235.965958,204.712234 237.680511,203.416565 239.709320,202.269043 
	C240.353806,203.058487 240.596344,203.610031 240.838867,204.161560 
	C241.465042,211.939682 246.377106,216.715912 252.716461,220.864243 
z" data-index="68"></path>
<path fill="#E58F44" opacity="1.000000" stroke="none" d="
M241.111328,203.928162 
	C240.596344,203.610031 240.353806,203.058487 240.048248,202.205200 
	C240.229553,198.442215 239.955917,194.846695 240.812317,191.544205 
	C243.749115,180.219391 249.874298,176.541534 264.348419,177.115265 
	C273.752777,179.634399 277.754150,186.541656 280.628540,194.922424 
	C280.940033,197.137741 281.224274,199.134674 281.005219,201.074768 
	C280.482025,205.708832 282.173279,207.908875 287.425690,207.133804 
	C288.441711,207.269791 289.030182,207.409134 289.810059,207.781494 
	C287.218506,210.572617 284.435547,213.130692 281.365875,215.850891 
	C280.085236,207.749847 278.315308,199.672592 270.650116,194.927307 
	C259.636353,188.109070 248.498978,191.625015 241.111328,203.928162 
z" data-index="69"></path>
<path fill="#F39E09" opacity="1.000000" stroke="none" d="
M292.848022,207.733734 
	C292.849701,207.415375 293.141205,207.292572 293.721161,207.391907 
	C293.701080,207.692459 293.410492,207.797562 292.848022,207.733734 
z" data-index="70"></path>
</svg>