<?xml version="1.0" encoding="UTF-8" standalone="no"?>
<!-- Created with Inkscape (http://www.inkscape.org/) -->

<svg
   version="1.1"
   id="svg2"
   width="4728.6001"
   height="6937.1602"
   viewBox="0 0 4728.6001 6937.1602"
   sodipodi:docname="money-5273327.ai"
   xmlns:inkscape="http://www.inkscape.org/namespaces/inkscape"
   xmlns:sodipodi="http://sodipodi.sourceforge.net/DTD/sodipodi-0.dtd"
   xmlns="http://www.w3.org/2000/svg"
   xmlns:svg="http://www.w3.org/2000/svg">
  <defs
     id="defs6">
    <clipPath
       clipPathUnits="userSpaceOnUse"
       id="clipPath16">
      <path
         d="M 0,5202.875 H 3546.449 V 0 H 0 Z"
         id="path14" />
    </clipPath>
    <clipPath
       clipPathUnits="userSpaceOnUse"
       id="clipPath36">
      <path
         d="M 719.108,2280.46 H 1124.94 V 1888 H 719.108 Z"
         id="path34" />
    </clipPath>
    <clipPath
       clipPathUnits="userSpaceOnUse"
       id="clipPath52">
      <path
         d="m 1233.75,2142.48 h 21.43 v -121.86 h -21.43 z"
         id="path50" />
    </clipPath>
    <clipPath
       clipPathUnits="userSpaceOnUse"
       id="clipPath68">
      <path
         d="m 1150.05,2138.25 h 61.61 v -166.81 h -61.61 z"
         id="path66" />
    </clipPath>
    <clipPath
       clipPathUnits="userSpaceOnUse"
       id="clipPath84">
      <path
         d="m 986.864,1877.68 h 88.276 v -63.25 h -88.276 z"
         id="path82" />
    </clipPath>
    <clipPath
       clipPathUnits="userSpaceOnUse"
       id="clipPath100">
      <path
         d="m 860.478,1871.17 h 80.675 v -60.07 h -80.675 z"
         id="path98" />
    </clipPath>
    <clipPath
       clipPathUnits="userSpaceOnUse"
       id="clipPath116">
      <path
         d="m 1138.55,2211.99 h 109.46 v -225.46 h -109.46 z"
         id="path114" />
    </clipPath>
    <clipPath
       clipPathUnits="userSpaceOnUse"
       id="clipPath144">
      <path
         d="M 525.703,824.77 H 3099.85 V 438.71 H 525.703 Z"
         id="path142" />
    </clipPath>
    <clipPath
       clipPathUnits="userSpaceOnUse"
       id="clipPath164">
      <path
         d="M 746.717,961.338 H 1571.39 V 541.43 H 746.717 Z"
         id="path162" />
    </clipPath>
    <clipPath
       clipPathUnits="userSpaceOnUse"
       id="clipPath180">
      <path
         d="m 1322.97,983.434 h 95.97 v -98.703 h -95.97 z"
         id="path178" />
    </clipPath>
    <clipPath
       clipPathUnits="userSpaceOnUse"
       id="clipPath196">
      <path
         d="m 1339.96,983.434 h 64.99 v -97.393 h -64.99 z"
         id="path194" />
    </clipPath>
    <clipPath
       clipPathUnits="userSpaceOnUse"
       id="clipPath212">
      <path
         d="m 747.38,945.252 h 305.59 V 623.246 H 747.38 Z"
         id="path210" />
    </clipPath>
    <clipPath
       clipPathUnits="userSpaceOnUse"
       id="clipPath228">
      <path
         d="M 752.823,939.879 H 1019.61 V 667.193 H 752.823 Z"
         id="path226" />
    </clipPath>
    <clipPath
       clipPathUnits="userSpaceOnUse"
       id="clipPath244">
      <path
         d="m 1329.09,819.479 h 106.43 V 687.751 h -106.43 z"
         id="path242" />
    </clipPath>
    <clipPath
       clipPathUnits="userSpaceOnUse"
       id="clipPath264">
      <path
         d="m 2567.5,767.788 h 10.03 v -5.856 h -10.03 z"
         id="path262" />
    </clipPath>
    <clipPath
       clipPathUnits="userSpaceOnUse"
       id="clipPath280">
      <path
         d="m 2273.2,880.21 h 283.24 V 773.55 H 2273.2 Z"
         id="path278" />
    </clipPath>
    <clipPath
       clipPathUnits="userSpaceOnUse"
       id="clipPath296">
      <path
         d="m 2316.46,885.096 h 108.25 v -43.637 h -108.25 z"
         id="path294" />
    </clipPath>
    <clipPath
       clipPathUnits="userSpaceOnUse"
       id="clipPath312">
      <path
         d="m 2118.18,809.466 h 449.23 V 568.524 h -449.23 z"
         id="path310" />
    </clipPath>
    <clipPath
       clipPathUnits="userSpaceOnUse"
       id="clipPath328">
      <path
         d="m 2121.63,809.802 h 370.6 V 592.316 h -370.6 z"
         id="path326" />
    </clipPath>
    <clipPath
       clipPathUnits="userSpaceOnUse"
       id="clipPath344">
      <path
         d="m 2285.71,609.392 h 414 V 473.716 h -414 z"
         id="path342" />
    </clipPath>
    <clipPath
       clipPathUnits="userSpaceOnUse"
       id="clipPath380">
      <path
         d="m 1237.588,4487.565 c -143.932,-561.337 -28.786,-1137.069 43.18,-1712.8 v 0 c 43.18,-287.864 28.787,-575.731 -43.18,-849.202 v 0 h 1151.463 c 143.932,561.338 28.786,1137.068 -57.573,1712.799 v 0 c -43.18,287.866 0,575.731 57.573,849.203 v 0 z"
         id="path378" />
    </clipPath>
    <clipPath
       clipPathUnits="userSpaceOnUse"
       id="clipPath404">
      <path
         d="M 0,5202.875 H 3546.449 V 0 H 0 Z"
         id="path402" />
    </clipPath>
    <clipPath
       clipPathUnits="userSpaceOnUse"
       id="clipPath416">
      <path
         d="m 1633.13,4770.99 h 1056 V 4316.2 h -1056 z"
         id="path414" />
    </clipPath>
    <clipPath
       clipPathUnits="userSpaceOnUse"
       id="clipPath432">
      <path
         d="M 923.114,2047.44 H 1944.91 V 1628.13 H 923.114 Z"
         id="path430" />
    </clipPath>
    <clipPath
       clipPathUnits="userSpaceOnUse"
       id="clipPath472">
      <path
         d="m 2704.78,2255.86 h 434.43 v -383.39 h -434.43 z"
         id="path470" />
    </clipPath>
    <clipPath
       clipPathUnits="userSpaceOnUse"
       id="clipPath488">
      <path
         d="m 2606.59,2060.76 h 31.95 v -118.52 h -31.95 z"
         id="path486" />
    </clipPath>
    <clipPath
       clipPathUnits="userSpaceOnUse"
       id="clipPath504">
      <path
         d="m 2649.49,2067.34 h 80.68 v -156.78 h -80.68 z"
         id="path502" />
    </clipPath>
    <clipPath
       clipPathUnits="userSpaceOnUse"
       id="clipPath520">
      <path
         d="m 2834.81,1843.33 h 76.03 v -71.82 h -76.03 z"
         id="path518" />
    </clipPath>
    <clipPath
       clipPathUnits="userSpaceOnUse"
       id="clipPath536">
      <path
         d="m 2966.81,1866.02 h 69 v -71.26 h -69 z"
         id="path534" />
    </clipPath>
    <clipPath
       clipPathUnits="userSpaceOnUse"
       id="clipPath552">
      <path
         d="m 2615.38,2141.49 h 103.54 v -220.58 h -103.54 z"
         id="path550" />
    </clipPath>
  </defs>
  <sodipodi:namedview
     id="namedview4"
     pagecolor="#ffffff"
     bordercolor="#000000"
     borderopacity="0.25"
     inkscape:showpageshadow="2"
     inkscape:pageopacity="0.0"
     inkscape:pagecheckerboard="0"
     inkscape:deskcolor="#d1d1d1" />
  <g
     id="g8"
     inkscape:groupmode="layer"
     inkscape:label="money-5273327"
     transform="matrix(1.3333333,0,0,-1.3333333,0,6937.16)">
    <g
       id="g10">
      <g
         id="g12"
         clip-path="url(#clipPath16)">
        <g
           id="g18"
           transform="translate(917.644,2332.6543)">
          <path
             d="M 0,0 C 0,0 5.057,544.365 64.753,848.292"
             style="fill:none;stroke:#448a16;stroke-width:63.218;stroke-linecap:round;stroke-linejoin:miter;stroke-miterlimit:10;stroke-dasharray:none;stroke-opacity:1"
             id="path20" />
        </g>
        <g
           id="g22"
           transform="translate(780.7172,2249.4688)">
          <path
             d="m 0,0 c 0,0 -42.84,-1.664 -47.201,35.898 -4.362,37.562 66.88,80.015 171.677,89.45 126.944,11.429 193.137,-9.85 186.046,-62.811 C 303.43,9.577 0,0 0,0"
             style="fill:#e6e6e6;fill-opacity:1;fill-rule:nonzero;stroke:none"
             id="path24" />
        </g>
        <g
           id="g26"
           transform="translate(788.4946,1833.2744)">
          <path
             d="m 0,0 c -26.01,13.429 -49.404,40.607 -53.866,43.399 -4.462,2.793 -53.527,140.266 -43.712,248.163 9.816,107.897 20.373,102.502 63.977,133.22 43.604,30.718 356.933,76.202 406.279,28.967 43.799,-41.927 97.526,-176.045 93.827,-230.758 C 463.46,177.948 362.07,138.866 362.07,138.866 l -2.287,-51.575 c 0,0 42.545,-67.06 -42.893,-100.979 -50.795,-20.166 -68.833,22.627 -68.833,22.627 0,0 -26.456,-28.726 -87.165,-33.293 C 120.717,-27.375 93.83,25.79 93.83,25.79 93.83,25.79 48.418,-24.999 0,0"
             style="fill:#e6e6e6;fill-opacity:1;fill-rule:nonzero;stroke:none"
             id="path28" />
        </g>
        <g
           id="g30">
          <g
             id="g32" />
          <g
             id="g44">
            <g
               clip-path="url(#clipPath36)"
               opacity="0.399994"
               id="g42">
              <g
                 transform="translate(1113.7734,2084.8545)"
                 id="g40">
                <path
                   d="m 0,0 c -4.582,-58.307 24.122,-130.939 -35.453,-161.382 -49.103,-25.095 -110.18,-16.022 -163.737,-24.696 -28.766,-4.658 -56.243,1.851 -85.359,-4.597 -19.639,-4.349 -28.166,-10.486 -48.852,-1.756 -14.583,6.156 -13.667,9.374 -22.305,21.749 -35.101,50.237 -42.88,156.819 -37.339,217.23 7.443,81.226 39.812,101.318 107.09,124.236 65.306,22.246 152.442,26.922 221.29,24.074 81.996,-3.391 76.843,-55.845 75.074,-78.871 C 7.467,77.567 3.024,38.411 0,0"
                   style="fill:#ffffff;fill-opacity:1;fill-rule:nonzero;stroke:none"
                   id="path38" />
              </g>
            </g>
          </g>
        </g>
        <g
           id="g46">
          <g
             id="g48" />
          <g
             id="g60">
            <g
               clip-path="url(#clipPath52)"
               opacity="0.600006"
               id="g58">
              <g
                 transform="translate(1236.4663,2109.3125)"
                 id="g56">
                <path
                   d="M 0,0 C 0.711,10.982 1.318,22.06 1.95,33.163 13.199,-0.714 19.923,-32.487 18.538,-53.044 17.678,-65.639 9.138,-77.757 -2.716,-88.694 -1.407,-57.885 -1.751,-27.199 0,0"
                   style="fill:#ffffff;fill-opacity:1;fill-rule:nonzero;stroke:none"
                   id="path54" />
              </g>
            </g>
          </g>
        </g>
        <g
           id="g62">
          <g
             id="g64" />
          <g
             id="g76">
            <g
               clip-path="url(#clipPath68)"
               opacity="0.100006"
               id="g74">
              <g
                 transform="translate(1184.2397,2138.2549)"
                 id="g72">
                <path
                   d="m 0,0 c 3.574,-8.062 34.46,-68.721 25.941,-65.986 -51.432,16.507 -59.983,-100.833 -59.983,-100.833 -0.889,7.813 2.358,55.561 8.491,101.785 C -23.052,-46.203 -5.758,-28.806 0,0"
                   style="fill:#000000;fill-opacity:1;fill-rule:nonzero;stroke:none"
                   id="path70" />
              </g>
            </g>
          </g>
        </g>
        <g
           id="g78">
          <g
             id="g80" />
          <g
             id="g92">
            <g
               clip-path="url(#clipPath84)"
               opacity="0.100006"
               id="g90">
              <g
                 transform="translate(1037.3203,1840.624)"
                 id="g88">
                <path
                   d="m 0,0 c -3.637,8.444 -7.072,16.981 -10.403,25.553 -1.333,3.433 -38.746,-2.134 -40.054,1.306 5.24,-0.189 36.641,17.541 72.741,6.675 C 22.586,30.74 3.229,28.631 3.897,25.855 14.905,-19.877 30.627,-17.791 37.817,-26.198 14.14,-24.005 2.881,-5.566 0,0"
                   style="fill:#000000;fill-opacity:1;fill-rule:nonzero;stroke:none"
                   id="path86" />
              </g>
            </g>
          </g>
        </g>
        <g
           id="g94">
          <g
             id="g96" />
          <g
             id="g108">
            <g
               clip-path="url(#clipPath100)"
               opacity="0.100006"
               id="g106">
              <g
                 transform="translate(882.3246,1859.0645)"
                 id="g104">
                <path
                   d="m 0,0 c 0,0 -7.839,7.477 -21.775,2.906 -1.082,-0.355 9.745,20.323 60.43,0.817 0.004,-0.009 -18.303,0.589 -17.277,-3.779 6.419,-27.302 18.639,-35.923 37.45,-47.91 C 22.129,-45.513 0,0 0,0"
                   style="fill:#000000;fill-opacity:1;fill-rule:nonzero;stroke:none"
                   id="path102" />
              </g>
            </g>
          </g>
        </g>
        <g
           id="g110">
          <g
             id="g112" />
          <g
             id="g124">
            <g
               clip-path="url(#clipPath116)"
               opacity="0.399994"
               id="g122">
              <g
                 transform="translate(1147.0747,2043.7266)"
                 id="g120">
                <path
                   d="m 0,0 c -5.147,35.898 -21.155,123.967 11.148,160.168 9.695,10.865 39.74,17.849 56.57,-27.234 C 80.703,98.152 89.959,61.183 100.448,25.569 101.674,21.407 100.204,9.208 100.166,4.87 99.928,-22.2 40.476,-47.498 25.571,-57.199 c -7.455,16.413 10.439,49.718 27.371,55.901 9.146,3.34 21.816,4.521 23.924,14.027 0.665,2.997 -0.061,6.108 -0.821,9.083 C 67.886,53.774 55.579,84.677 39.531,113.498 27.63,71.297 9.073,84.885 2.639,6.392"
                   style="fill:#ffffff;fill-opacity:1;fill-rule:nonzero;stroke:none"
                   id="path118" />
              </g>
            </g>
          </g>
        </g>
        <g
           id="g126"
           transform="translate(2886.645,2310.6455)">
          <path
             d="M 0,0 C 0,0 -112.674,532.595 -231.331,818.697"
             style="fill:none;stroke:#448a16;stroke-width:63.218;stroke-linecap:round;stroke-linejoin:miter;stroke-miterlimit:10;stroke-dasharray:none;stroke-opacity:1"
             id="path128" />
        </g>
        <g
           id="g130"
           transform="translate(1460.7373,863.9512)">
          <path
             d="M 0,0 C 0,0 75.89,431.012 23.8,936.448"
             style="fill:none;stroke:#448a16;stroke-width:63.218;stroke-linecap:butt;stroke-linejoin:miter;stroke-miterlimit:10;stroke-dasharray:none;stroke-opacity:1"
             id="path132" />
        </g>
        <g
           id="g134"
           transform="translate(2398.981,787.543)">
          <path
             d="M 0,0 C 0,0 -56.188,473.641 -225.958,1014.841"
             style="fill:none;stroke:#448a16;stroke-width:63.218;stroke-linecap:butt;stroke-linejoin:miter;stroke-miterlimit:10;stroke-dasharray:none;stroke-opacity:1"
             id="path136" />
        </g>
        <g
           id="g138">
          <g
             id="g140" />
          <g
             id="g152">
            <g
               clip-path="url(#clipPath144)"
               opacity="0.100006"
               id="g150">
              <g
                 transform="translate(3099.8501,631.7402)"
                 id="g148">
                <path
                   d="m 0,0 c 0,-106.608 -576.242,-193.03 -1287.073,-193.03 -710.831,0 -1287.074,86.422 -1287.074,193.03 0,106.607 576.243,193.03 1287.074,193.03 C -576.242,193.03 0,106.607 0,0"
                   style="fill:#231f20;fill-opacity:1;fill-rule:nonzero;stroke:none"
                   id="path146" />
              </g>
            </g>
          </g>
        </g>
        <g
           id="g154"
           transform="translate(746.7172,634.123)">
          <path
             d="M 0,0 C 0,-1.012 0,-2.024 0.034,-3.036 40.09,-26.972 81.96,-46.93 125.645,-61.863 c 42.149,-14.41 85.973,-24.145 131.333,-28.193 53.034,-4.745 106.976,-3.105 159.593,5.059 55.164,8.549 108.897,24.809 163.399,36.567 15.318,3.28 81.786,14.69 99.79,12.806 16.295,0 32.972,-3.629 49.162,-4.432 38.242,27.949 55.338,87.962 58.095,131.507 1.536,23.727 -1.15,46.72 -7.153,68.736 -0.453,1.746 -0.976,3.49 -1.5,5.2 v 0.035 c -1.082,3.733 -2.302,7.397 -3.593,11.06 0.139,0.174 0.279,0.349 0.383,0.524 0.175,0.209 0.315,0.488 0.419,0.732 0.07,0.071 0.104,0.175 0.139,0.244 0.42,0.071 0.873,0.071 1.292,0.14 25.261,3.385 49.232,24.459 47.591,51.5 -1.116,18.458 -14.654,35.66 -29.728,49.826 -8.373,7.92 -17.27,14.899 -24.738,20.621 -10.118,7.745 -20.795,14.759 -31.925,20.866 -3.978,2.232 -7.991,4.326 -12.073,6.28 -13.014,6.315 -26.621,11.444 -40.614,15.282 -4.291,1.187 -8.723,2.268 -13.258,3.245 h -0.036 c -4.571,0.977 -9.28,1.815 -13.991,2.443 -15.561,2.023 -31.472,1.639 -45.708,-3.804 -6.629,-2.512 -12.911,-6.141 -18.598,-11.13 -20.621,-18.109 -22.434,-45.499 -9.421,-67.76 1.431,-2.408 3.002,-4.745 4.747,-7.013 0.383,-0.454 0.766,-0.873 1.151,-1.326 0,-0.035 0.034,-0.035 0.034,-0.07 0.07,-0.14 0.07,-0.279 0.036,-0.453 v -0.035 c -0.21,-0.663 -1.117,-1.606 -2.653,-2.791 -0.173,-0.106 -0.313,-0.21 -0.489,-0.35 -10.85,-7.955 -47.661,-25.122 -83.46,-29.902 -16.398,-2.163 -32.589,-1.78 -45.987,3.315 -50,18.981 -89.532,58.06 -140.265,76.168 -0.523,0.175 -1.082,0.384 -1.605,0.559 h -0.036 c -23.342,8.059 -47.591,10.468 -71.562,8.269 -0.699,-0.244 -1.431,-0.453 -2.128,-0.733 -4.92,-1.605 -9.805,-3.419 -14.655,-5.373 C 125.155,264.793 30.495,157.048 6.106,51.988 3.384,40.369 1.535,28.751 0.663,17.271 0.174,11.479 -0.036,5.722 0,0"
             style="fill:#f2f2f2;fill-opacity:1;fill-rule:nonzero;stroke:none"
             id="path156" />
        </g>
        <g
           id="g158">
          <g
             id="g160" />
          <g
             id="g172">
            <g
               clip-path="url(#clipPath164)"
               opacity="0.100006"
               id="g170">
              <g
                 transform="translate(746.7172,634.123)"
                 id="g168">
                <path
                   d="M 0,0 C 0,-1.012 0,-2.024 0.034,-3.036 40.09,-26.972 81.96,-46.93 125.645,-61.863 c 42.149,-14.41 85.973,-24.145 131.333,-28.193 53.034,-4.745 106.976,-3.105 159.593,5.059 55.164,8.549 108.897,24.809 163.399,36.567 15.318,3.28 81.786,14.69 99.79,12.806 16.295,0 32.972,-3.629 49.162,-4.432 38.242,27.949 55.338,87.962 58.095,131.507 1.536,23.727 -1.15,46.72 -7.153,68.736 -0.453,1.746 -0.976,3.49 -1.5,5.2 v 0.035 c -1.082,3.733 -2.302,7.397 -3.593,11.06 0.139,0.174 0.279,0.349 0.383,0.524 0.175,0.209 0.315,0.488 0.419,0.732 0.07,0.071 0.104,0.175 0.139,0.244 0.42,0.071 0.873,0.071 1.292,0.14 25.261,3.385 49.232,24.459 47.591,51.5 -1.116,18.458 -14.654,35.66 -29.728,49.826 -8.373,7.92 -17.27,14.899 -24.738,20.621 -10.118,7.745 -20.795,14.759 -31.925,20.866 -3.978,2.232 -7.991,4.326 -12.073,6.28 -0.628,-8.723 -2.512,-17.726 -4.989,-26.519 -1.779,-10.432 -6.001,-28.435 -13.328,-43.264 -1.851,-6.107 -7.154,-33.287 -21.251,-35.416 -0.207,-0.07 -0.453,-0.105 -0.697,-0.105 -0.104,-0.035 -0.175,-0.035 -0.279,-0.035 -1.082,0.489 -2.198,1.012 -3.314,1.536 -0.315,0.105 -0.628,0.244 -0.943,0.383 -8.584,3.908 -17.584,7.537 -26.622,10.887 -0.14,0.07 -0.314,0.139 -0.454,0.174 -21.144,7.92 -42.359,14.585 -58.304,20.272 -0.034,0 -0.105,0.035 -0.174,0.035 -1.884,0.628 -3.664,1.291 -5.339,1.919 0.07,-0.14 0.07,-0.279 0.036,-0.453 v -0.035 c -0.21,-0.663 -1.117,-1.606 -2.653,-2.791 -0.173,-0.106 -0.313,-0.21 -0.489,-0.35 16.679,-13.991 44.906,-33.774 57.642,-40.719 5.339,-2.895 10.782,-5.93 16.329,-8.931 0.21,-0.106 0.42,-0.244 0.663,-0.35 12.526,-6.873 25.542,-13.468 38.487,-17.794 0.104,-0.28 0.208,-0.523 0.313,-0.803 v -0.035 c 1.012,-2.651 1.954,-5.233 2.757,-7.885 12.525,-39.289 5.757,-78.367 -9.002,-116.922 -0.035,-0.14 -0.106,-0.244 -0.14,-0.384 C 686.006,37.474 665.908,21.842 642.252,20.586 613.083,28.506 588.1,31.961 564.967,32.449 555.511,31.054 546.09,29.658 536.948,27.46 508.268,20.655 480.528,10.643 452.615,1.325 404.605,-14.689 356.698,-28.681 306.628,-36.531 215.91,-50.698 118.177,-49.896 31.89,-15.282 20.76,-10.816 10.118,-5.723 0,0"
                   style="fill:#000000;fill-opacity:1;fill-rule:nonzero;stroke:none"
                   id="path166" />
              </g>
            </g>
          </g>
        </g>
        <g
           id="g174">
          <g
             id="g176" />
          <g
             id="g188">
            <g
               clip-path="url(#clipPath180)"
               opacity="0.100006"
               id="g186">
              <g
                 transform="translate(1331.2222,899.6143)"
                 id="g184">
                <path
                   d="m 0,0 c 1.85,-1.396 3.944,-2.582 6.246,-3.489 1.151,-0.454 2.652,-1.081 4.397,-1.78 3.699,-1.465 8.479,-3.315 13.607,-4.99 0.942,-0.313 1.885,-0.593 2.863,-0.907 1.429,-0.453 2.894,-0.872 4.325,-1.255 0.977,-0.245 1.955,-0.524 2.896,-0.733 0.49,-0.14 0.977,-0.244 1.466,-0.349 0.07,0 0.139,-0.035 0.243,-0.035 v -0.035 c 8.689,-1.884 16.574,-2.128 19.923,1.919 1.954,2.373 2.06,16.818 2.444,19.924 2.651,21.841 8.339,58.338 29.308,71.981 -4.571,0.977 -9.28,1.814 -13.99,2.442 C 58.166,84.717 42.255,84.333 28.019,78.89 21.39,76.378 15.108,72.749 9.421,67.76 -11.2,49.65 -13.013,22.261 0,0"
                   style="fill:#ffffff;fill-opacity:1;fill-rule:nonzero;stroke:none"
                   id="path182" />
              </g>
            </g>
          </g>
        </g>
        <g
           id="g190">
          <g
             id="g192" />
          <g
             id="g204">
            <g
               clip-path="url(#clipPath196)"
               opacity="0.100006"
               id="g202">
              <g
                 transform="translate(1341.8652,894.3457)"
                 id="g200">
                <path
                   d="m 0,0 c 3.699,-1.466 8.479,-3.315 13.607,-4.99 0.942,-0.314 1.885,-0.593 2.863,-0.907 1.429,-0.454 2.894,-0.873 4.325,-1.255 0.976,-0.281 1.918,-0.525 2.896,-0.734 0.49,-0.139 0.977,-0.244 1.466,-0.348 0.07,-0.036 0.174,-0.071 0.243,-0.071 V -8.27 C 22.33,13.607 27.704,38.521 36.253,55.896 41.277,66.05 51.222,79.169 63.084,87.962 47.523,89.985 31.612,89.602 17.376,84.158 -3.908,63.887 -3.699,30.6 0,0"
                   style="fill:#ffffff;fill-opacity:1;fill-rule:nonzero;stroke:none"
                   id="path198" />
              </g>
            </g>
          </g>
        </g>
        <g
           id="g206">
          <g
             id="g208" />
          <g
             id="g220">
            <g
               clip-path="url(#clipPath212)"
               opacity="0.100006"
               id="g218">
              <g
                 transform="translate(747.3803,651.3945)"
                 id="g216">
                <path
                   d="m 0,0 c 25.61,-20.342 54.745,-30.355 89.95,-27.739 76.658,5.687 96.232,49.72 120.306,114.41 11.446,30.809 23.273,61.863 41.591,89.218 11.655,17.446 54.432,46.301 53.733,67.132 -0.732,22.679 -37.369,41.416 -63.955,50.836 -4.92,-1.604 -9.805,-3.419 -14.655,-5.373 C 124.492,247.521 29.832,139.776 5.443,34.717 2.721,23.098 0.872,11.479 0,0"
                   style="fill:#ffffff;fill-opacity:1;fill-rule:nonzero;stroke:none"
                   id="path214" />
              </g>
            </g>
          </g>
        </g>
        <g
           id="g222">
          <g
             id="g224" />
          <g
             id="g236">
            <g
               clip-path="url(#clipPath228)"
               opacity="0.100006"
               id="g234">
              <g
                 transform="translate(752.8232,686.1113)"
                 id="g232">
                <path
                   d="m 0,0 c 4.605,-4.745 9.769,-8.897 16.294,-11.828 13.957,-6.245 30.984,-8.443 46.126,-6.28 39.184,5.547 61.654,38.17 78.054,70.865 16.922,33.74 29.867,69.679 56.665,97.139 13.641,14.025 28.436,26.901 42.393,40.614 9.455,9.28 21.737,20.515 27.25,33.461 -4.78,4.884 -9.874,9.385 -15.248,13.538 -9.595,6.245 -19.992,11.619 -30.007,16.259 C 119.049,212.805 24.389,105.06 0,0"
                   style="fill:#ffffff;fill-opacity:1;fill-rule:nonzero;stroke:none"
                   id="path230" />
              </g>
            </g>
          </g>
        </g>
        <g
           id="g238">
          <g
             id="g240" />
          <g
             id="g252">
            <g
               clip-path="url(#clipPath244)"
               opacity="0.100006"
               id="g250">
              <g
                 transform="translate(1329.3701,759.7178)"
                 id="g248">
                <path
                   d="M 0,0 C 1.487,19.347 8.872,38.177 21.914,52.533 33.277,65.037 61.984,58.379 76.25,54.28 87.785,50.967 98.757,43.585 103.45,32.539 108.623,20.364 105.39,6.416 101.8,-6.315 96.887,-23.741 91.098,-41.601 78.993,-55.064 66.888,-68.528 46.788,-76.438 30.166,-69.262 17.985,-64.003 10.056,-51.917 5.426,-39.484 0.756,-26.946 -1.026,-13.351 0,0"
                   style="fill:#ffffff;fill-opacity:1;fill-rule:nonzero;stroke:none"
                   id="path246" />
              </g>
            </g>
          </g>
        </g>
        <g
           id="g254"
           transform="translate(2114.7085,574.0449)">
          <path
             d="m 0,0 c 5.699,-5.235 11.585,-10.192 17.627,-14.932 44.361,-34.666 98.234,-56.661 153.376,-69.579 16.233,-3.842 32.592,-6.877 48.855,-9.201 90.798,-13.042 192.813,-8.27 278.284,27.541 28.129,11.773 51.889,28.191 74.349,48.731 4.214,3.809 8.364,7.651 12.516,11.43 -2.2,13.972 -5.142,27.82 -8.954,41.357 -0.991,3.532 -2.013,7.033 -3.128,10.533 -6.568,20.756 -15.18,40.799 -25.743,59.759 -0.124,0.185 -0.248,0.371 -0.372,0.557 -16.295,23.327 -34.882,45.26 -57.032,63.228 -8.303,6.754 -17.381,13.104 -27.045,18.805 -3.254,1.92 -6.568,3.779 -9.944,5.513 -0.061,0.063 -0.155,0.094 -0.248,0.155 -0.464,0.249 -0.931,0.465 -1.363,0.682 -5.204,2.664 -10.502,5.111 -15.923,7.311 0.061,0.186 0.124,0.372 0.185,0.589 v 0.062 c 0.217,0.588 0.372,1.208 0.527,1.858 0.03,0.062 0.03,0.124 0.062,0.217 2.696,11.369 -0.806,24.504 -8.365,36.587 -9.572,15.21 -21.716,28.655 -35.656,39.838 -12.98,10.44 -27.54,18.96 -43.03,25.124 -6.289,2.541 -12.732,4.679 -19.3,6.413 -6.63,1.734 -13.352,3.067 -20.166,3.965 -1.209,0.155 -2.449,0.311 -3.657,0.435 -43.525,4.677 -88.29,-9.202 -121.995,-37.051 -3.563,-2.944 -7.032,-6.042 -10.316,-9.294 -0.154,-0.155 -0.31,-0.311 -0.464,-0.465 -12.64,-12.578 -26.736,-31.691 -25.001,-50.187 -0.31,-0.154 -0.65,-0.278 -0.961,-0.432 -0.03,0 -0.03,-0.031 -0.03,-0.031 -4.555,-2.045 -9.077,-4.183 -13.506,-6.475 -0.032,0 -0.062,-0.031 -0.094,-0.031 C 101.3,196.623 72.088,174.783 49.845,146.066 33.116,124.474 20.198,99.505 12.855,73.11 11.585,69.857 10.378,66.574 9.231,63.352 8.457,61.215 7.807,59.077 7.094,56.939 6.938,56.258 6.814,55.576 6.66,54.895 V 54.863 C 5.421,48.854 4.368,42.813 3.47,36.772 1.673,24.598 0.558,12.329 0,0"
             style="fill:#f2f2f2;fill-opacity:1;fill-rule:nonzero;stroke:none"
             id="path256" />
        </g>
        <g
           id="g258">
          <g
             id="g260" />
          <g
             id="g272">
            <g
               clip-path="url(#clipPath264)"
               opacity="0.100006"
               id="g270">
              <g
                 transform="translate(2577.4419,762.2734)"
                 id="g268">
                <path
                   d="M 0,0 C -3.254,1.921 -6.568,3.779 -9.944,5.514 -6.568,3.655 -3.222,1.704 0.092,-0.341 0.062,-0.217 0.03,-0.124 0,0"
                   style="fill:#000000;fill-opacity:1;fill-rule:nonzero;stroke:none"
                   id="path266" />
              </g>
            </g>
          </g>
        </g>
        <g
           id="g274">
          <g
             id="g276" />
          <g
             id="g288">
            <g
               clip-path="url(#clipPath280)"
               opacity="0.100006"
               id="g286">
              <g
                 transform="translate(2278.9165,796.4346)"
                 id="g284">
                <path
                   d="m 0,0 c 2.981,0.476 5.951,0.967 8.964,1.402 4.461,0.682 8.953,1.302 13.444,1.921 0.496,0.062 0.961,0.124 1.457,0.217 2.51,0.31 5.019,0.65 7.529,0.96 1.083,0.124 2.199,0.279 3.282,0.403 h 0.063 c 3.904,0.495 7.837,0.93 11.802,1.364 29.679,3.129 60.131,4.677 90.273,3.469 3.47,-0.155 6.971,-0.309 10.441,-0.527 3.284,-0.217 6.567,-0.464 9.851,-0.743 0.185,0 0.403,0 0.589,-0.031 1.053,-0.093 2.106,-0.186 3.159,-0.31 0.834,-0.064 1.669,-0.151 2.502,-0.235 0.463,-0.045 0.928,-0.088 1.389,-0.135 2.171,-0.211 4.316,-0.446 6.486,-0.714 0.698,-0.052 1.375,-0.148 2.064,-0.232 0.75,-0.091 1.499,-0.191 2.248,-0.287 1.445,-0.184 2.894,-0.37 4.332,-0.566 2.293,-0.31 4.585,-0.682 6.846,-1.021 0.899,-0.124 1.829,-0.28 2.727,-0.435 2.044,-0.341 4.089,-0.681 6.134,-1.053 3.406,-0.62 6.814,-1.27 10.223,-2.013 1.394,-0.31 2.819,-0.589 4.213,-0.899 0.031,0 0.093,0 0.124,-0.031 2.385,-0.558 4.802,-1.115 7.187,-1.703 2.603,-0.652 5.204,-1.302 7.775,-2.015 2.356,-0.65 4.709,-1.331 7.063,-2.013 0.559,-0.155 1.085,-0.31 1.643,-0.496 2.229,-0.681 4.461,-1.363 6.66,-2.106 2.54,-0.837 5.05,-1.704 7.558,-2.571 1.951,-0.713 3.905,-1.425 5.825,-2.201 5.886,-2.199 11.68,-4.646 17.379,-7.31 2.106,-0.96 4.213,-1.951 6.289,-2.974 -0.031,0.031 -0.031,0.031 -0.062,0.062 -1.642,1.518 -3.284,3.005 -4.987,4.492 l -0.651,0.558 c 4.272,42.208 -43.991,73.853 -44.021,76.424 -12.98,10.441 -27.54,18.96 -43.03,25.124 2.881,-17.534 1.796,-38.629 -2.137,-56.722 -6.042,1.332 -12.052,2.509 -18.092,3.532 C 110.606,39.816 57.942,36.378 17.917,15.064 9.429,10.572 1.529,5.244 -5.688,-0.89 L -5.719,-0.921 C -3.83,-0.605 -1.913,-0.3 0,0"
                   style="fill:#000000;fill-opacity:1;fill-rule:nonzero;stroke:none"
                   id="path282" />
              </g>
            </g>
          </g>
        </g>
        <g
           id="g290">
          <g
             id="g292" />
          <g
             id="g304">
            <g
               clip-path="url(#clipPath296)"
               opacity="0.100006"
               id="g302">
              <g
                 transform="translate(2384.3872,883.7686)"
                 id="g300">
                <path
                   d="m 0,0 c 12.739,6.32 53.424,-11.289 36.097,-24.28 -7.709,-5.781 -31.968,-2.091 -41.646,-3.458 -13.263,-1.874 -24.465,-6.746 -37.027,-10.906 -5.582,-1.847 -19.977,-6.997 -24.263,-0.419 -4.41,6.77 5.667,16.121 10.292,19.299 C -39.814,-8.266 -18.188,-2.61 0,0"
                   style="fill:#ffffff;fill-opacity:1;fill-rule:nonzero;stroke:none"
                   id="path298" />
              </g>
            </g>
          </g>
        </g>
        <g
           id="g306">
          <g
             id="g308" />
          <g
             id="g320">
            <g
               clip-path="url(#clipPath312)"
               opacity="0.100006"
               id="g318">
              <g
                 transform="translate(2118.1782,610.8174)"
                 id="g316">
                <path
                   d="m 0,0 c 13.444,-13.166 31.536,-22.801 49.69,-29.214 69.61,-24.473 162.144,-18.711 197.583,52.851 22.275,45.012 55.917,89.746 103.47,109.944 31.041,13.197 60.442,7.744 91.172,15.706 0.589,0.155 1.115,0.279 1.642,0.372 5.793,1.301 7.093,0.619 4.151,8.148 0,0.031 0,0.031 -0.031,0.062 -0.248,0.681 -0.527,1.394 -0.867,2.199 -4.493,2.54 -9.015,4.925 -13.6,7.218 -0.248,0.093 -0.496,0.217 -0.713,0.341 -35.502,17.379 -73.761,26.518 -113.073,29.678 -0.062,0.031 -0.124,0.031 -0.186,0.031 -1.797,0.155 -3.594,0.278 -5.389,0.372 -1.86,0.123 -3.749,0.247 -5.608,0.341 -5.607,0.34 -11.247,0.526 -16.885,0.556 -6.225,0.094 -12.453,0.032 -18.71,-0.154 -13.415,-0.402 -26.828,-1.332 -40.211,-2.788 -1.921,-0.186 -3.811,-0.403 -5.732,-0.65 -3.872,-0.434 -7.774,-0.93 -11.647,-1.488 -0.836,-0.124 -1.704,-0.216 -2.539,-0.34 -1.457,-0.217 -2.914,-0.434 -4.37,-0.651 -4.089,-0.619 -8.178,-1.27 -12.267,-1.952 -0.155,-0.03 -0.279,-0.03 -0.402,-0.061 h -0.064 c -9.571,-1.642 -19.113,-3.501 -28.592,-5.515 -1.735,-0.341 -3.439,-0.743 -5.142,-1.115 -10.627,-2.324 -21.159,-4.895 -31.568,-7.62 -0.032,0 -0.062,-0.032 -0.093,-0.032 C 97.83,159.851 68.618,138.011 46.375,109.294 29.646,87.701 16.729,62.732 9.386,36.338 8.115,33.085 6.908,29.802 5.762,26.579 4.987,24.442 4.337,22.305 3.624,20.167 3.469,19.485 3.345,18.804 3.19,18.122 V 18.091 C 1.951,12.081 0.898,6.041 0,0"
                   style="fill:#ffffff;fill-opacity:1;fill-rule:nonzero;stroke:none"
                   id="path314" />
              </g>
            </g>
          </g>
        </g>
        <g
           id="g322">
          <g
             id="g324" />
          <g
             id="g336">
            <g
               clip-path="url(#clipPath328)"
               opacity="0.100006"
               id="g334">
              <g
                 transform="translate(2121.6304,628.2705)"
                 id="g332">
                <path
                   d="m 0,0 v -0.031 c 8.039,-12.672 17.622,-24.348 29.423,-32.391 21.833,-6.458 47.071,-3.796 67.886,5.821 43.578,20.108 73.628,62.535 106.842,95.708 14.077,14.054 28.744,27.304 44.251,39.379 25.138,30.389 66.952,50.088 103.721,59.328 3.498,0.88 7.026,1.699 10.617,2.424 h 0.063 c 0.031,0.032 0.092,0.032 0.124,0.032 2.538,0.504 5.107,0.979 7.677,1.421 -17.983,4.366 -36.396,7.15 -55.019,8.631 l -0.187,-0.001 c -1.796,0.15 -3.594,0.267 -5.39,0.384 -1.86,0.117 -3.749,0.234 -5.609,0.32 -5.608,0.29 -11.248,0.424 -16.885,0.497 -6.227,0.04 -12.485,-0.045 -18.711,-0.222 -13.413,-0.451 -26.823,-1.429 -40.2,-2.934 -1.921,-0.192 -3.81,-0.416 -5.73,-0.671 -3.871,-0.447 -7.771,-0.957 -11.642,-1.529 -0.835,-0.127 -1.704,-0.223 -2.539,-0.35 -1.455,-0.221 -2.911,-0.444 -4.366,-0.666 -4.088,-0.634 -8.174,-1.299 -12.26,-1.996 -0.156,-0.032 -0.28,-0.032 -0.402,-0.063 h -0.063 c -9.567,-1.677 -19.102,-3.57 -28.573,-5.617 -1.733,-0.348 -3.436,-0.756 -5.138,-1.135 -10.619,-2.361 -21.141,-4.971 -31.54,-7.735 -0.032,0 -0.062,-0.031 -0.094,-0.031 C 94.128,142.069 64.995,120.124 42.855,91.326 26.205,69.674 13.377,44.658 6.13,18.238 4.871,14.98 3.676,11.692 2.541,8.466 1.774,6.326 1.132,4.187 0.427,2.046 0.273,1.364 0.151,0.683 0,0"
                   style="fill:#ffffff;fill-opacity:1;fill-rule:nonzero;stroke:none"
                   id="path330" />
              </g>
            </g>
          </g>
        </g>
        <g
           id="g338">
          <g
             id="g340" />
          <g
             id="g352">
            <g
               clip-path="url(#clipPath344)"
               opacity="0.100006"
               id="g350">
              <g
                 transform="translate(2285.7114,489.5342)"
                 id="g348">
                <path
                   d="m 0,0 c 16.233,-3.842 32.592,-6.877 48.855,-9.201 90.798,-13.042 192.813,-8.271 278.284,27.541 28.129,11.772 51.889,28.19 74.349,48.73 4.214,3.81 8.365,7.652 12.516,11.431 -2.2,13.972 -5.142,27.819 -8.954,41.356 C 364.313,77.882 308.024,46.035 260.441,28.036 177.17,-3.5 87.146,-12.794 0,0"
                   style="fill:#000000;fill-opacity:1;fill-rule:nonzero;stroke:none"
                   id="path346" />
              </g>
            </g>
          </g>
        </g>
        <g
           id="g354"
           transform="translate(2619.3433,1695.2695)">
          <path
             d="m 0,0 c 43.18,215.899 57.573,431.799 71.966,647.698 14.393,474.978 -86.36,921.17 -143.933,1396.148 -28.786,331.046 -14.392,662.091 71.967,978.743 -532.552,14.393 -1079.496,-43.18 -1612.047,0 -43.18,-215.899 -57.574,-431.798 -71.967,-647.697 -14.393,-474.979 86.36,-921.17 143.933,-1396.149 C -1511.294,647.698 -1525.688,316.652 -1612.047,0 -1079.496,-14.393 -532.552,43.18 0,0"
             style="fill:#badb00;fill-opacity:1;fill-rule:nonzero;stroke:none"
             id="path356" />
        </g>
        <g
           id="g358"
           transform="translate(1090.1274,1758.3672)">
          <path
             d="m 0,0 c 194.309,-2.671 392.92,3.05 585.753,8.63 292.616,8.448 594.622,17.19 890.528,-2.854 34.254,193.481 47.439,390.671 60.201,581.958 9.98,333.632 -37.29,649.427 -87.315,983.762 -19.538,130.495 -39.736,265.446 -56.224,401.465 l -0.224,2.179 c -29.532,339.718 -12.004,642.061 53.665,921.254 -194.323,2.628 -392.905,-3.064 -585.753,-8.63 -292.631,-8.448 -594.609,-17.191 -890.528,2.853 -34.254,-193.48 -47.439,-390.671 -60.202,-581.958 -9.979,-333.632 37.291,-649.426 87.316,-983.761 19.538,-130.495 39.736,-265.446 56.224,-401.465 l 0.225,-2.179 C 83.197,581.536 65.669,279.192 0,0 m 1581.42,-132.309 -57.433,4.653 c -307.333,24.907 -626.164,15.728 -934.495,6.789 -221.508,-6.409 -450.577,-13.044 -674.067,-6.972 l -82.438,2.221 21.689,79.556 c 78.024,286.067 100.921,598.474 70.026,955.003 -16.248,133.854 -36.25,267.513 -55.591,396.785 -50.981,340.631 -99.122,662.358 -88.651,1008.036 l 0.113,2.347 c 14.295,214.367 29.068,436.029 73.076,656.089 l 11.316,56.505 57.432,-4.653 c 307.333,-24.921 626.15,-15.715 934.496,-6.789 221.506,6.41 450.576,13.044 674.066,6.972 l 82.437,-2.221 -21.688,-79.556 c -78.024,-286.067 -100.921,-598.474 -70.026,-955.003 16.249,-133.855 36.25,-267.513 55.59,-396.785 50.982,-340.632 99.124,-662.358 88.652,-1008.035 l -0.112,-2.348 c -14.295,-214.367 -29.069,-436.029 -73.078,-656.089 z"
             style="fill:#81c200;fill-opacity:1;fill-rule:nonzero;stroke:none"
             id="path360" />
        </g>
        <g
           id="g362"
           transform="translate(2389.0503,1925.5625)">
          <path
             d="m 0,0 c 143.934,561.338 28.787,1137.069 -57.572,1712.8 -43.181,287.866 0,575.731 57.572,849.203 h -1151.462 c -143.933,-561.337 -28.787,-1137.068 43.18,-1712.8 43.179,-287.865 28.786,-575.731 -43.18,-849.203 z"
             style="fill:#81c200;fill-opacity:1;fill-rule:nonzero;stroke:none"
             id="path364" />
        </g>
        <g
           id="g366"
           transform="translate(1842.106,4214.0937)">
          <path
             d="m 0,0 c 57.573,14.393 115.146,-43.18 143.933,-86.36 14.393,-43.18 14.393,-86.359 -14.393,-129.539 -43.181,-43.18 -100.753,-86.36 -158.326,-71.967 -43.18,14.394 -86.36,57.574 -100.754,86.36 C -158.326,-115.146 -100.753,0 0,0"
             style="fill:#badb00;fill-opacity:1;fill-rule:nonzero;stroke:none"
             id="path368" />
        </g>
        <g
           id="g370"
           transform="translate(1842.106,2515.6865)">
          <path
             d="m 0,0 c 57.573,14.394 115.146,-43.18 143.933,-86.359 14.393,-43.18 14.393,-86.36 -14.393,-129.54 -43.181,-43.18 -100.753,-86.36 -158.326,-71.966 -43.18,14.393 -86.36,57.573 -100.754,86.359 C -158.326,-115.146 -100.753,0 0,0"
             style="fill:#badb00;fill-opacity:1;fill-rule:nonzero;stroke:none"
             id="path372" />
        </g>
      </g>
    </g>
    <g
       id="g374">
      <g
         id="g376"
         clip-path="url(#clipPath380)">
        <g
           id="g382"
           transform="translate(2374.6577,4703.4653)">
          <path
             d="m 0,0 c 100.753,14.393 187.112,-57.573 230.292,-143.933 14.394,-71.966 0,-143.933 -28.786,-201.506 -86.36,-115.146 -244.686,-115.146 -345.44,-28.787 -43.179,43.181 -71.965,115.147 -57.572,187.113 C -172.72,-86.36 -100.753,0 0,0"
             style="fill:#badb00;fill-opacity:1;fill-rule:nonzero;stroke:none"
             id="path384" />
        </g>
        <g
           id="g386"
           transform="translate(1208.8018,4703.4653)">
          <path
             d="m 0,0 c 86.36,14.393 172.719,-28.787 215.899,-100.753 28.787,-57.573 43.18,-129.539 14.393,-201.506 -28.786,-57.573 -86.359,-100.753 -143.932,-129.539 -129.54,-28.787 -287.866,57.572 -287.866,201.506 0,115.146 86.36,215.898 201.506,230.292"
             style="fill:#badb00;fill-opacity:1;fill-rule:nonzero;stroke:none"
             id="path388" />
        </g>
        <g
           id="g390"
           transform="translate(2374.6577,2141.4619)">
          <path
             d="m 0,0 c 100.753,14.393 187.112,-57.573 230.292,-143.934 43.18,-158.326 -71.966,-302.258 -244.686,-287.865 -143.932,14.394 -230.293,172.72 -172.719,302.259 C -158.326,-57.573 -86.36,-14.394 0,0"
             style="fill:#badb00;fill-opacity:1;fill-rule:nonzero;stroke:none"
             id="path392" />
        </g>
        <g
           id="g394"
           transform="translate(1208.8018,2141.4619)">
          <path
             d="m 0,0 c 86.36,14.393 172.719,-28.787 215.899,-100.753 28.787,-57.573 43.18,-129.54 14.393,-201.507 -57.573,-115.145 -215.899,-172.719 -331.045,-100.753 -14.393,28.787 -43.18,43.181 -71.966,71.967 C -259.079,-187.113 -158.326,-14.394 0,0"
             style="fill:#badb00;fill-opacity:1;fill-rule:nonzero;stroke:none"
             id="path396" />
        </g>
      </g>
    </g>
    <g
       id="g398">
      <g
         id="g400"
         clip-path="url(#clipPath404)">
        <g
           id="g406"
           transform="translate(1770.1401,3710.3291)">
          <path
             d="m 0,0 c 143.933,0 273.472,-43.18 374.225,-158.326 115.146,-143.933 158.326,-331.046 71.966,-503.765 -14.393,-14.393 -28.787,-43.18 -43.179,-71.967 -100.753,-158.325 -287.866,-201.505 -474.979,-172.719 -172.719,43.18 -302.259,187.113 -345.439,359.832 C -460.585,-273.473 -273.473,-28.787 0,0"
             style="fill:#badb00;fill-opacity:1;fill-rule:nonzero;stroke:none"
             id="path408" />
        </g>
        <g
           id="g410">
          <g
             id="g412" />
          <g
             id="g424">
            <g
               clip-path="url(#clipPath416)"
               opacity="0.199997"
               id="g422">
              <g
                 transform="translate(1839.1558,4674.3335)"
                 id="g420">
                <path
                   d="m 0,0 c 104.727,-29.843 211.827,-50.48 316.485,-80.585 175.69,-50.537 336.57,-135.812 450.841,-277.548 11.526,142.384 33.811,277.684 68.273,404.031 l 14.377,45.754 -67.454,2.803 C 559.034,100.527 339.241,92.769 117.733,86.359 11.676,83.289 -96.85,82.094 -206.023,82.676 -139.519,50.442 -72.819,20.751 0,0"
                   style="fill:#ffffff;fill-opacity:1;fill-rule:nonzero;stroke:none"
                   id="path418" />
              </g>
            </g>
          </g>
        </g>
        <g
           id="g426">
          <g
             id="g428" />
          <g
             id="g440">
            <g
               clip-path="url(#clipPath432)"
               opacity="0.199997"
               id="g438">
              <g
                 transform="translate(1554.5957,1765.7959)"
                 id="g436">
                <path
                   d="M 0,0 C -184.661,73.3 -376.53,163.863 -545.065,281.646 -558.885,165.574 -580.428,54.173 -609.793,-53.49 l -21.689,-79.557 82.439,-2.221 c 223.49,-6.072 452.559,0.563 674.066,6.972 87.746,2.544 176.355,5.081 265.295,6.872 C 256.925,-93.091 127.042,-50.428 0,0"
                   style="fill:#ffffff;fill-opacity:1;fill-rule:nonzero;stroke:none"
                   id="path434" />
              </g>
            </g>
          </g>
        </g>
        <g
           id="g442"
           transform="translate(1748.5781,3959.582)">
          <path
             d="m 0,0 c -1.504,-227.186 59.664,-339.14 144.449,-339.14 61.075,0 291.831,42.012 376.871,65.947 50.194,14.128 61.184,157.136 61.184,226.09 0,227.19 -100.485,422.355 -329.719,422.355 C 88.896,375.252 1.57,237.084 0,0"
             style="fill:#fafff4;fill-opacity:1;fill-rule:nonzero;stroke:none"
             id="path444" />
        </g>
        <g
           id="g446"
           transform="translate(1652.3398,3947.7207)">
          <path
             d="m 0,0 c 1.456,-219.769 -57.715,-328.069 -139.731,-328.069 -59.081,0 -282.301,40.641 -364.564,63.795 -48.555,13.666 -59.187,152.007 -59.187,218.71 0,219.774 97.204,408.568 318.952,408.568 C -85.993,363.003 -1.519,229.345 0,0"
             style="fill:#fafff4;fill-opacity:1;fill-rule:nonzero;stroke:none"
             id="path448" />
        </g>
        <g
           id="g450"
           transform="translate(2293.5474,4296.4199)">
          <path
             d="m 0,0 c 0,0 -139.135,148.069 -272.877,141.597 -133.742,-6.471 -250.227,-35.592 -250.227,-35.592 0,0 -20.493,13.716 -14.021,51.465 l 6.471,37.75 c 0,0 39.907,-32.357 38.828,-26.964 -1.078,5.393 -4.314,30.2 -4.314,30.2 0,0 154.235,43.143 304.156,-12.943 C -42.064,129.428 0,0 0,0"
             style="fill:#407500;fill-opacity:1;fill-rule:nonzero;stroke:none"
             id="path452" />
        </g>
        <g
           id="g454"
           transform="translate(1121.0757,4270.5913)">
          <path
             d="m 0,0 c 0,0 134.591,145.076 263.966,138.815 129.374,-6.26 242.055,-34.431 242.055,-34.431 0,0 19.824,11.428 13.563,47.945 l -6.26,36.518 c 0,0 -38.603,-31.301 -37.56,-26.084 1.044,5.216 4.173,29.214 4.173,29.214 0,0 -149.198,41.734 -294.222,-12.52 C 40.69,125.203 0,0 0,0"
             style="fill:#407500;fill-opacity:1;fill-rule:nonzero;stroke:none"
             id="path456" />
        </g>
        <g
           id="g458"
           transform="translate(3037.3247,2256.1992)">
          <path
             d="M 0,0 C 0,0 42.322,6.846 39.165,44.528 36.008,82.21 -42.226,109.727 -146.817,98.239 -273.513,84.324 -334.187,50.368 -316.756,-0.142 -299.325,-50.651 0,0 0,0"
             style="fill:#e6e6e6;fill-opacity:1;fill-rule:nonzero;stroke:none"
             id="path460" />
        </g>
        <g
           id="g462"
           transform="translate(3112.0571,1846.7002)">
          <path
             d="m 0,0 c 22.839,18.31 40.392,49.58 44.213,53.2 3.821,3.62 24.714,148.081 -6.259,251.902 -30.972,103.82 -40.252,96.443 -89.072,117.924 -48.82,21.483 -364.954,4.07 -403.977,-51.995 -34.636,-49.762 -60.762,-191.858 -46.31,-244.757 11.898,-43.548 119.016,-61.796 119.016,-61.796 l 12.448,-50.102 c 0,0 -28.434,-74.151 62.026,-90.494 53.781,-9.717 62.994,35.8 62.994,35.8 0,0 31.617,-22.924 92.03,-15.388 39.978,4.988 55.813,62.421 55.813,62.421 0,0 54.563,-40.799 97.078,-6.715"
             style="fill:#e6e6e6;fill-opacity:1;fill-rule:nonzero;stroke:none"
             id="path464" />
        </g>
        <g
           id="g466">
          <g
             id="g468" />
          <g
             id="g480">
            <g
               clip-path="url(#clipPath472)"
               opacity="0.399994"
               id="g478">
              <g
                 transform="translate(2743.4282,2028.9414)"
                 id="g476">
                <path
                   d="m 0,0 c 16.029,-56.246 2.265,-133.121 66.687,-151.173 53.096,-14.883 111.17,6.095 165.384,8.19 29.119,1.126 54.765,12.943 84.582,12.384 20.111,-0.378 29.684,-4.706 48.234,7.945 13.075,8.919 11.541,11.892 17.559,25.731 24.466,56.189 11.001,162.201 -6.384,220.32 -23.369,78.147 -59.073,91.437 -129.556,100.589 C 178.09,232.871 91.751,220.213 24.828,203.798 -54.875,184.249 -39.444,133.853 -33.154,111.633 -22.668,74.556 -10.564,37.054 0,0"
                   style="fill:#ffffff;fill-opacity:1;fill-rule:nonzero;stroke:none"
                   id="path474" />
              </g>
            </g>
          </g>
        </g>
        <g
           id="g482">
          <g
             id="g484" />
          <g
             id="g496">
            <g
               clip-path="url(#clipPath488)"
               opacity="0.600006"
               id="g494">
              <g
                 transform="translate(2618.3218,2028.6396)"
                 id="g492">
                <path
                   d="M 0,0 C -2.87,10.624 -5.657,21.361 -8.474,32.12 -12.797,-3.313 -13.1,-35.787 -7.675,-55.663 -4.339,-67.838 6.43,-78.027 20.214,-86.402 12.833,-56.461 7.099,-26.315 0,0"
                   style="fill:#ffffff;fill-opacity:1;fill-rule:nonzero;stroke:none"
                   id="path490" />
              </g>
            </g>
          </g>
        </g>
        <g
           id="g498">
          <g
             id="g500" />
          <g
             id="g512">
            <g
               clip-path="url(#clipPath504)"
               opacity="0.100006"
               id="g510">
              <g
                 transform="translate(2663.7886,2067.3428)"
                 id="g508">
                <path
                   d="m 0,0 c -1.908,-8.609 -20.181,-74.18 -12.371,-69.813 47.148,26.358 78.75,-86.97 78.75,-86.97 -0.675,7.835 -13.307,53.996 -28.464,98.091 C 31.739,-40.728 11.345,-27.097 0,0"
                   style="fill:#000000;fill-opacity:1;fill-rule:nonzero;stroke:none"
                   id="path506" />
              </g>
            </g>
          </g>
        </g>
        <g
           id="g514">
          <g
             id="g516" />
          <g
             id="g528">
            <g
               clip-path="url(#clipPath520)"
               opacity="0.100006"
               id="g526">
              <g
                 transform="translate(2866.6978,1804.6709)"
                 id="g524">
                <path
                   d="m 0,0 c 1.894,8.997 3.572,18.045 5.141,27.105 0.628,3.63 38.402,5.576 39.003,9.208 -5.099,-1.224 -39.387,9.943 -72.623,-7.851 0.256,-2.799 19.648,-1.036 19.542,-3.89 -1.741,-47.005 -17.564,-48.071 -22.949,-57.735 C -9.11,-26.328 -1.723,-6.026 0,0"
                   style="fill:#000000;fill-opacity:1;fill-rule:nonzero;stroke:none"
                   id="path522" />
              </g>
            </g>
          </g>
        </g>
        <g
           id="g530">
          <g
             id="g532" />
          <g
             id="g544">
            <g
               clip-path="url(#clipPath536)"
               opacity="0.100006"
               id="g542">
              <g
                 transform="translate(3014.979,1853.415)"
                 id="g540">
                <path
                   d="M 0,0 C 0,0 6.205,8.879 20.77,7.157 21.9,7.023 7.196,25.149 -38.627,-4 -38.63,-4.009 -20.803,0.2 -20.944,-4.284 -21.833,-32.317 -32.106,-43.185 -48.174,-58.657 -12.685,-48.99 0,0 0,0"
                   style="fill:#000000;fill-opacity:1;fill-rule:nonzero;stroke:none"
                   id="path538" />
              </g>
            </g>
          </g>
        </g>
        <g
           id="g546">
          <g
             id="g548" />
          <g
             id="g560">
            <g
               clip-path="url(#clipPath552)"
               opacity="0.399994"
               id="g558">
              <g
                 transform="translate(2718.9233,1982.0391)"
                 id="g556">
                <path
                   d="m 0,0 c -2.058,36.206 -3.793,125.699 -42.621,154.793 -11.652,8.731 -42.485,9.632 -50.062,-37.89 -5.845,-36.662 -7.603,-74.731 -10.838,-111.716 -0.377,-4.322 3.478,-15.989 4.374,-20.234 5.588,-26.486 68.872,-39.52 85.4,-46.081 4.06,17.564 -20.069,46.668 -37.891,49.379 -9.626,1.465 -22.278,0.115 -26.226,9.017 -1.244,2.805 -1.149,5.999 -0.993,9.064 1.672,32.945 7.622,65.672 17.65,97.099 C -41.19,64.419 -25.689,81.409 -3.851,5.742"
                   style="fill:#ffffff;fill-opacity:1;fill-rule:nonzero;stroke:none"
                   id="path554" />
              </g>
            </g>
          </g>
        </g>
        <g
           id="g562"
           transform="translate(1391.4102,3819.8511)">
          <path
             d="m 0,0 c 25.818,4.097 45.411,11.422 58.796,21.975 13.349,10.553 20.051,24.039 20.051,40.443 0,13.672 -6.702,26.32 -20.051,37.959 C 45.411,111.986 25.818,122.104 0,130.702 Z m -33.875,230.924 v 109.907 c -20.985,-3.725 -36.952,-9.871 -47.902,-18.468 -10.95,-8.598 -16.425,-19.244 -16.425,-31.939 0,-10.754 5.475,-21.214 16.425,-31.363 10.95,-10.165 26.917,-19.539 47.902,-28.137 m -1.392,-351.662 v 89.964 c -43.104,3.911 -76.54,13.145 -100.271,27.701 -23.749,14.542 -35.614,32.963 -35.614,55.233 0,13.486 4.778,24.427 14.355,32.823 9.559,8.395 21.955,12.601 37.172,12.601 14.282,0 25.635,-3.569 34.058,-10.692 8.404,-7.139 12.616,-16.761 12.616,-28.866 0,-4.888 -0.806,-9.28 -2.417,-13.191 -1.63,-3.911 -4.156,-7.325 -7.617,-10.258 -2.527,-1.956 -6.336,-3.911 -11.408,-5.867 -5.072,-1.955 -7.599,-4.003 -7.599,-6.145 0,-6.642 6.262,-12.26 18.842,-16.854 12.561,-4.593 28.528,-6.89 47.883,-6.89 v 143.893 l -25.581,10.258 c -35.266,13.284 -61.213,28.819 -77.802,46.604 -16.59,17.769 -24.903,38.674 -24.903,62.713 0,28.71 11.188,52.407 33.545,71.061 22.358,18.654 53.944,30.526 94.741,35.601 v 42.786 H 0.696 l 0.347,-42.786 c 41.255,-1.552 73.482,-9.218 96.645,-22.999 23.164,-13.765 34.755,-32.094 34.755,-54.953 0,-12.307 -4.321,-22.363 -12.964,-30.185 -8.643,-7.806 -19.886,-11.717 -33.729,-11.717 -15.198,0 -27.375,3.228 -36.476,9.669 -9.1,6.456 -13.659,14.944 -13.659,25.497 0,8.21 3.753,16.125 11.242,23.745 7.49,7.619 11.244,12.787 11.244,15.519 0,5.866 -4.505,10.708 -13.496,14.51 -8.99,3.818 -20.746,5.711 -35.267,5.711 H 0.696 V 220.092 l 18.677,-8.21 c 4.138,-1.955 10.95,-4.795 20.398,-8.504 29.957,-11.329 52.333,-22.953 67.073,-34.872 11.994,-9.575 21.039,-20.904 27.155,-34.002 6.098,-13.083 9.156,-27.733 9.156,-43.95 0,-33.412 -12.323,-60.617 -36.988,-81.615 C 81.483,-12.074 46.345,-25.312 0.696,-30.774 v -89.964 z"
             style="fill:#388f13;fill-opacity:1;fill-rule:nonzero;stroke:none"
             id="path564" />
        </g>
        <g
           id="g566"
           transform="translate(2033.0796,3819.8511)">
          <path
             d="m 0,0 c 25.818,4.097 45.411,11.422 58.797,21.975 13.349,10.553 20.05,24.039 20.05,40.443 0,13.672 -6.701,26.32 -20.05,37.959 C 45.411,111.986 25.818,122.104 0,130.702 Z m -33.875,230.924 v 109.907 c -20.984,-3.725 -36.951,-9.871 -47.901,-18.468 -10.951,-8.598 -16.425,-19.244 -16.425,-31.939 0,-10.754 5.474,-21.214 16.425,-31.363 10.95,-10.165 26.917,-19.539 47.901,-28.137 m -1.392,-351.662 v 89.964 c -43.103,3.911 -76.54,13.145 -100.27,27.701 -23.749,14.542 -35.615,32.963 -35.615,55.233 0,13.486 4.779,24.427 14.356,32.823 9.558,8.395 21.954,12.601 37.171,12.601 14.282,0 25.635,-3.569 34.059,-10.692 8.404,-7.139 12.616,-16.761 12.616,-28.866 0,-4.888 -0.806,-9.28 -2.417,-13.191 -1.63,-3.911 -4.157,-7.325 -7.618,-10.258 -2.527,-1.956 -6.335,-3.911 -11.408,-5.867 -5.072,-1.955 -7.598,-4.003 -7.598,-6.145 0,-6.642 6.262,-12.26 18.842,-16.854 12.56,-4.593 28.528,-6.89 47.882,-6.89 v 143.893 l -25.58,10.258 c -35.267,13.284 -61.214,28.819 -77.803,46.604 -16.59,17.769 -24.903,38.674 -24.903,62.713 0,28.71 11.188,52.407 33.545,71.061 22.359,18.654 53.945,30.526 94.741,35.601 v 42.786 H 0.696 l 0.348,-42.786 c 41.255,-1.552 73.481,-9.218 96.645,-22.999 23.164,-13.765 34.754,-32.094 34.754,-54.953 0,-12.307 -4.321,-22.363 -12.964,-30.185 -8.643,-7.806 -19.885,-11.717 -33.729,-11.717 -15.197,0 -27.375,3.228 -36.475,9.669 -9.1,6.456 -13.66,14.944 -13.66,25.497 0,8.21 3.754,16.125 11.243,23.745 7.489,7.619 11.243,12.787 11.243,15.519 0,5.866 -4.504,10.708 -13.496,14.51 -8.99,3.818 -20.746,5.711 -35.266,5.711 H 0.696 V 220.092 l 18.677,-8.21 c 4.139,-1.955 10.95,-4.795 20.398,-8.504 29.958,-11.329 52.333,-22.953 67.074,-34.872 11.993,-9.575 21.039,-20.904 27.155,-34.002 6.097,-13.083 9.155,-27.733 9.155,-43.95 0,-33.412 -12.323,-60.617 -36.988,-81.615 C 81.483,-12.074 46.345,-25.312 0.696,-30.774 v -89.964 z"
             style="fill:#388f13;fill-opacity:1;fill-rule:nonzero;stroke:none"
             id="path568" />
        </g>
        <g
           id="g570"
           transform="translate(1673.481,3179.311)">
          <path
             d="m 0,0 c 363.282,54.953 565.799,-123.301 558.191,281.589 0,0 -18.888,-108.102 -140.14,-181.455 C 326.146,44.535 156.634,23.694 0,0"
             style="fill:#407500;fill-opacity:1;fill-rule:nonzero;stroke:none"
             id="path572" />
        </g>
        <g
           id="g574"
           transform="translate(2131.2964,3461.7334)">
          <path
             d="M 0,0 C 0,0 147.547,64.705 161.061,-84.657 161.061,-84.657 142.412,8.95 0,0"
             style="fill:#407500;fill-opacity:1;fill-rule:nonzero;stroke:none"
             id="path576" />
        </g>
      </g>
    </g>
  </g>
</svg>
