<?xml version="1.0" encoding="UTF-8" standalone="no"?>
<!-- Created with Inkscape (http://www.inkscape.org/) -->

<svg
   version="1.1"
   id="svg2"
   width="5581.9331"
   height="6723.8267"
   viewBox="0 0 5581.9331 6723.8267"
   sodipodi:docname="money-5273331.ai"
   xmlns:inkscape="http://www.inkscape.org/namespaces/inkscape"
   xmlns:sodipodi="http://sodipodi.sourceforge.net/DTD/sodipodi-0.dtd"
   xmlns="http://www.w3.org/2000/svg"
   xmlns:svg="http://www.w3.org/2000/svg">
  <defs
     id="defs6">
    <clipPath
       clipPathUnits="userSpaceOnUse"
       id="clipPath16">
      <path
         d="M 0,5042.875 H 4186.449 V 0 H 0 Z"
         id="path14" />
    </clipPath>
    <clipPath
       clipPathUnits="userSpaceOnUse"
       id="clipPath32">
      <path
         d="m 3083.46,2272.48 h 290.18 v -179.24 h -290.18 z"
         id="path30" />
    </clipPath>
    <clipPath
       clipPathUnits="userSpaceOnUse"
       id="clipPath52">
      <path
         d="m 3044.85,2251.3 h 678.11 v -791.94 h -678.11 z"
         id="path50" />
    </clipPath>
    <clipPath
       clipPathUnits="userSpaceOnUse"
       id="clipPath68">
      <path
         d="m 3127.31,1723.47 h 142.17 v -249.39 h -142.17 z"
         id="path66" />
    </clipPath>
    <clipPath
       clipPathUnits="userSpaceOnUse"
       id="clipPath84">
      <path
         d="m 3303.2,1754.35 h 132.11 V 1457.41 H 3303.2 Z"
         id="path82" />
    </clipPath>
    <clipPath
       clipPathUnits="userSpaceOnUse"
       id="clipPath100">
      <path
         d="m 3468.3,1831.53 h 177.41 v -283.3 H 3468.3 Z"
         id="path98" />
    </clipPath>
    <clipPath
       clipPathUnits="userSpaceOnUse"
       id="clipPath116">
      <path
         d="m 3159,1940.42 h 334.02 V 1775.16 H 3159 Z"
         id="path114" />
    </clipPath>
    <clipPath
       clipPathUnits="userSpaceOnUse"
       id="clipPath132">
      <path
         d="M 3178.58,2127.02 H 3319.3 V 1919.38 H 3178.58 Z"
         id="path130" />
    </clipPath>
    <clipPath
       clipPathUnits="userSpaceOnUse"
       id="clipPath148">
      <path
         d="m 3169.36,1921.58 h 9.22 v -3.05 h -9.22 z"
         id="path146" />
    </clipPath>
    <clipPath
       clipPathUnits="userSpaceOnUse"
       id="clipPath164">
      <path
         d="m 3383.73,2172.93 h 349.89 v -214.98 h -349.89 z"
         id="path162" />
    </clipPath>
    <clipPath
       clipPathUnits="userSpaceOnUse"
       id="clipPath192">
      <path
         d="M 775.425,710.812 H 3349.57 V 324.752 H 775.425 Z"
         id="path190" />
    </clipPath>
    <clipPath
       clipPathUnits="userSpaceOnUse"
       id="clipPath212">
      <path
         d="M 996.439,847.38 H 1821.11 V 427.471 H 996.439 Z"
         id="path210" />
    </clipPath>
    <clipPath
       clipPathUnits="userSpaceOnUse"
       id="clipPath228">
      <path
         d="m 1572.69,869.476 h 95.97 v -98.703 h -95.97 z"
         id="path226" />
    </clipPath>
    <clipPath
       clipPathUnits="userSpaceOnUse"
       id="clipPath244">
      <path
         d="m 1589.69,869.476 h 64.98 v -97.393 h -64.98 z"
         id="path242" />
    </clipPath>
    <clipPath
       clipPathUnits="userSpaceOnUse"
       id="clipPath260">
      <path
         d="M 997.102,831.294 H 1302.69 V 509.288 H 997.102 Z"
         id="path258" />
    </clipPath>
    <clipPath
       clipPathUnits="userSpaceOnUse"
       id="clipPath276">
      <path
         d="m 1002.54,825.921 h 266.79 V 553.235 h -266.79 z"
         id="path274" />
    </clipPath>
    <clipPath
       clipPathUnits="userSpaceOnUse"
       id="clipPath292">
      <path
         d="m 1578.81,705.521 h 106.43 V 573.792 h -106.43 z"
         id="path290" />
    </clipPath>
    <clipPath
       clipPathUnits="userSpaceOnUse"
       id="clipPath312">
      <path
         d="m 2817.22,653.829 h 10.04 v -5.855 h -10.04 z"
         id="path310" />
    </clipPath>
    <clipPath
       clipPathUnits="userSpaceOnUse"
       id="clipPath328">
      <path
         d="m 2522.92,766.252 h 283.24 V 659.591 h -283.24 z"
         id="path326" />
    </clipPath>
    <clipPath
       clipPathUnits="userSpaceOnUse"
       id="clipPath344">
      <path
         d="m 2566.18,771.138 h 108.25 v -43.637 h -108.25 z"
         id="path342" />
    </clipPath>
    <clipPath
       clipPathUnits="userSpaceOnUse"
       id="clipPath360">
      <path
         d="m 2367.9,695.508 h 449.23 V 454.566 H 2367.9 Z"
         id="path358" />
    </clipPath>
    <clipPath
       clipPathUnits="userSpaceOnUse"
       id="clipPath376">
      <path
         d="m 2371.35,695.844 h 370.61 V 478.358 h -370.61 z"
         id="path374" />
    </clipPath>
    <clipPath
       clipPathUnits="userSpaceOnUse"
       id="clipPath392">
      <path
         d="m 2535.43,495.434 h 414.01 V 359.758 h -414.01 z"
         id="path390" />
    </clipPath>
    <clipPath
       clipPathUnits="userSpaceOnUse"
       id="clipPath428">
      <path
         d="m 1487.31,4373.608 c -143.933,-561.338 -28.786,-1137.07 43.179,-1712.801 v 0 c 43.18,-287.864 28.787,-575.732 -43.179,-849.203 v 0 h 1151.462 c 143.932,561.339 28.787,1137.069 -57.573,1712.8 v 0 c -43.18,287.866 0,575.732 57.573,849.204 v 0 z"
         id="path426" />
    </clipPath>
    <clipPath
       clipPathUnits="userSpaceOnUse"
       id="clipPath456">
      <path
         d="M 0,5042.875 H 4186.449 V 0 H 0 Z"
         id="path454" />
    </clipPath>
    <clipPath
       clipPathUnits="userSpaceOnUse"
       id="clipPath468">
      <path
         d="m 2024.6,4657.03 h 914.25 V 4331.8 H 2024.6 Z"
         id="path466" />
    </clipPath>
    <clipPath
       clipPathUnits="userSpaceOnUse"
       id="clipPath484">
      <path
         d="M 1249.55,2254.36 H 2939.37 V 1512.1 H 1249.55 Z"
         id="path482" />
    </clipPath>
    <clipPath
       clipPathUnits="userSpaceOnUse"
       id="clipPath504">
      <path
         d="m 1998.3,3845.623 c -1.505,-227.184 59.663,-339.14 144.449,-339.14 v 0 c 61.074,0 291.831,42.013 376.871,65.948 v 0 c 50.194,14.128 61.184,157.136 61.184,226.09 v 0 c 0,227.19 -100.486,422.355 -329.719,422.355 v 0 c -163.89,0 -251.216,-138.169 -252.785,-375.253"
         id="path502" />
    </clipPath>
    <clipPath
       clipPathUnits="userSpaceOnUse"
       id="clipPath528">
      <path
         d="M 0,5042.875 H 4186.449 V 0 H 0 Z"
         id="path526" />
    </clipPath>
    <clipPath
       clipPathUnits="userSpaceOnUse"
       id="clipPath540">
      <path
         d="m 1338.579,3788.198 c 0,-66.703 10.633,-205.044 59.187,-218.71 v 0 c 82.263,-23.153 305.485,-63.795 364.565,-63.795 v 0 c 82.016,0 141.186,108.3 139.731,328.069 v 0 c -1.519,229.346 -85.994,363.005 -244.531,363.005 v 0 c -221.748,0 -318.952,-188.794 -318.952,-408.569"
         id="path538" />
    </clipPath>
    <clipPath
       clipPathUnits="userSpaceOnUse"
       id="clipPath564">
      <path
         d="M 0,5042.875 H 4186.449 V 0 H 0 Z"
         id="path562" />
    </clipPath>
    <clipPath
       clipPathUnits="userSpaceOnUse"
       id="clipPath588">
      <path
         d="M 807.432,2272.48 H 1097.6 V 2093.24 H 807.432 Z"
         id="path586" />
    </clipPath>
    <clipPath
       clipPathUnits="userSpaceOnUse"
       id="clipPath608">
      <path
         d="M 458.112,2251.3 H 1136.22 V 1459.36 H 458.112 Z"
         id="path606" />
    </clipPath>
    <clipPath
       clipPathUnits="userSpaceOnUse"
       id="clipPath624">
      <path
         d="M 911.593,1723.47 H 1053.76 V 1474.08 H 911.593 Z"
         id="path622" />
    </clipPath>
    <clipPath
       clipPathUnits="userSpaceOnUse"
       id="clipPath640">
      <path
         d="m 745.755,1754.35 h 132.11 v -296.94 h -132.11 z"
         id="path638" />
    </clipPath>
    <clipPath
       clipPathUnits="userSpaceOnUse"
       id="clipPath656">
      <path
         d="m 535.36,1831.53 h 177.408 v -283.3 H 535.36 Z"
         id="path654" />
    </clipPath>
    <clipPath
       clipPathUnits="userSpaceOnUse"
       id="clipPath672">
      <path
         d="M 688.047,1940.42 H 1022.06 V 1775.16 H 688.047 Z"
         id="path670" />
    </clipPath>
    <clipPath
       clipPathUnits="userSpaceOnUse"
       id="clipPath688">
      <path
         d="M 861.765,2127.02 H 1002.49 V 1919.38 H 861.765 Z"
         id="path686" />
    </clipPath>
    <clipPath
       clipPathUnits="userSpaceOnUse"
       id="clipPath704">
      <path
         d="m 1002.49,1921.58 h 9.21 v -3.05 h -9.21 z"
         id="path702" />
    </clipPath>
    <clipPath
       clipPathUnits="userSpaceOnUse"
       id="clipPath720">
      <path
         d="M 447.452,2172.93 H 797.341 V 1957.95 H 447.452 Z"
         id="path718" />
    </clipPath>
  </defs>
  <sodipodi:namedview
     id="namedview4"
     pagecolor="#ffffff"
     bordercolor="#000000"
     borderopacity="0.25"
     inkscape:showpageshadow="2"
     inkscape:pageopacity="0.0"
     inkscape:pagecheckerboard="0"
     inkscape:deskcolor="#d1d1d1" />
  <g
     id="g8"
     inkscape:groupmode="layer"
     inkscape:label="money-5273331"
     transform="matrix(1.3333333,0,0,-1.3333333,0,6723.8267)">
    <g
       id="g10">
      <g
         id="g12"
         clip-path="url(#clipPath16)">
        <g
           id="g18"
           transform="translate(3224.1509,2196.6904)">
          <path
             d="M 0,0 C -64.207,303.363 -166.082,593.263 -326.164,818.688"
             style="fill:none;stroke:#448a16;stroke-width:63.218;stroke-linecap:round;stroke-linejoin:miter;stroke-miterlimit:10;stroke-dasharray:none;stroke-opacity:1"
             id="path20" />
        </g>
        <g
           id="g22"
           transform="translate(3140.4751,2096.1104)">
          <path
             d="m 0,0 c -17.628,1.09 -32.938,12.99 -43.722,26.977 -7.038,9.127 -12.811,19.813 -13.259,31.33 -0.981,25.251 22.51,43.836 43.804,57.445 54.837,35.05 117.189,68.413 181.585,59.005 18.088,-2.642 36.273,-9.049 49.242,-21.929 12.97,-12.879 19.581,-33.164 12.823,-50.146 C 225.504,90.195 214.45,81.285 203.488,73.511 138.229,27.227 59.384,0.348 -20.558,-2.867"
             style="fill:#e6e6e6;fill-opacity:1;fill-rule:nonzero;stroke:none"
             id="path24" />
        </g>
        <g
           id="g26">
          <g
             id="g28" />
          <g
             id="g40">
            <g
               clip-path="url(#clipPath32)"
               opacity="0.100006"
               id="g38">
              <g
                 transform="translate(3323.3325,2245.2705)"
                 id="g36">
                <path
                   d="m 0,0 c -14.347,8.188 -69.099,6.652 -148.484,-32.689 -12.136,-6.015 -89.342,-41.867 -58.47,-54.987 0.69,-0.293 1.123,0.977 1.687,1.462 0.799,0.199 1.593,0.507 2.355,1.006 3.062,2.007 57.626,25.28 109.448,29.246 19.713,1.508 37.855,6.389 53.265,18.509 C -10.841,-14.363 4.415,-2.521 0,0 m 47.615,-46.479 c -4.969,-12.486 -16.022,-21.396 -26.984,-29.17 -65.259,-46.285 -144.105,-73.163 -224.046,-76.378 l 20.559,2.868 c -17.63,1.089 -32.94,12.989 -43.723,26.975 -7.038,9.128 -12.812,19.814 -13.26,31.33 -0.98,25.251 22.51,43.835 43.804,57.446 54.838,35.05 117.189,68.413 181.586,59.006 18.088,-2.643 36.272,-9.05 49.242,-21.929 12.969,-12.88 19.581,-33.165 12.822,-50.148"
                   style="fill:#000000;fill-opacity:1;fill-rule:nonzero;stroke:none"
                   id="path34" />
              </g>
            </g>
          </g>
        </g>
        <g
           id="g42"
           transform="translate(3077.8618,1517.9502)">
          <path
             d="m 0,0 c -1.52,6.702 45.75,248.498 45.75,248.498 0,0 -126.528,239.827 -58.852,328.306 67.678,88.478 197.776,77.384 197.776,77.384 0,0 90.799,104.411 169.514,73.409 78.716,-31 104.627,-104.586 184.067,-136.637 79.44,-32.053 106.138,-41.553 106.138,-41.553 0,0 42.311,-104.13 -31.565,-111.639 -73.877,-7.509 -212.646,61.151 -212.646,61.151 0,0 29.646,-63.262 24.815,-94.487 -4.831,-31.226 -11.11,-60.35 -11.11,-60.35 0,0 106.049,-81.908 137.683,-159.299 C 583.204,107.392 589.023,74.207 552.24,48.86 515.456,23.515 469.585,13.604 455.64,22.594 441.694,31.582 423.961,79.806 391.629,133.469 L 327.9,225.94 c 0,0 42.639,-102.354 35.547,-170.784 -7.093,-68.429 -29.136,-108.416 -78.231,-115.897 -49.095,-7.483 -87.566,7.854 -87.566,7.854 l -10.614,91.874 c 0,0 -24.491,-88.167 -90.613,-93.432 C 30.301,-59.712 0,0 0,0"
             style="fill:#e6e6e6;fill-opacity:1;fill-rule:nonzero;stroke:none"
             id="path44" />
        </g>
        <g
           id="g46">
          <g
             id="g48" />
          <g
             id="g60">
            <g
               clip-path="url(#clipPath52)"
               opacity="0.0599976"
               id="g58">
              <g
                 transform="translate(3190.9067,2131.8066)"
                 id="g56">
                <path
                   d="m 0,0 c -47.041,-16.155 -75.437,-58.223 -88.828,-106.56 -37.535,-135.484 86.33,-125.623 178.288,-92.604 48.636,17.463 57.525,117.768 31.694,162.043 C 96.431,5.254 43.918,15.082 0,0 m -21.856,-354.085 c 70.574,-17.325 146.98,-9.649 216.558,19.086 23.61,9.75 79.175,41.376 94.948,62.429 12.097,16.145 27.737,77.33 3.646,95.743 -18.279,13.971 -40.275,-6.024 -58.213,-12.428 -32.376,-11.559 -152.562,-45.683 -210.286,-49.598 -29.29,-1.987 -53.077,-27.024 -63.737,-54.776 -8.033,-20.912 -7.67,-54.38 17.084,-60.456 M 531.373,-64.51 c 5.694,-14.214 -25.996,-26.491 -41.304,-26.07 -46.923,1.292 -112.879,13.574 -172.925,77.671 -10.902,11.638 -7.263,88.526 -112.318,89.985 -23.264,0.323 -79.784,-37.31 -92.787,-57.674 113.139,-84.388 27.303,-201.799 34.709,-197.464 30.058,4.833 132.467,35.849 137.462,64.086 8.379,-20.357 31.174,-73.274 27.742,-95.449 -4.831,-31.225 -11.11,-60.349 -11.11,-60.349 0,0 9.354,-7.225 23.334,-19.411 -6.769,-2.948 -12.897,-6.007 -17.914,-8.711 -14.224,-7.665 -29.192,-17.528 -38.55,-31.014 -9.408,-13.557 -9.056,-30.012 -4.079,-45.239 12.253,-37.492 43.001,-65.157 66.22,-95.758 16.927,-22.311 31.832,-47.645 41.426,-73.981 4.216,-11.568 9.057,-26.144 5.476,-38.512 -1.707,-5.893 -5.512,-9.449 -10.243,-11.586 -10.618,-1.216 -22.033,-2.638 -23.917,2.722 -17.579,50.011 -128.509,206.779 -128.509,206.779 0,0 -5.308,21.167 -9.146,26.267 -21.878,-5.828 -62.614,-26.417 -85.709,-28.261 -3.375,-0.268 -5.722,-6.825 -4.634,-10.183 31.012,-95.73 24.83,-230.487 12.716,-247.573 -2.893,-4.08 -25.064,-24.894 -22.525,-28.207 -12.645,2.699 -20.183,5.699 -20.183,5.699 l -10.614,91.874 c 0,0 -4.446,-15.991 -14.653,-34.759 1.331,3.068 2.628,6.158 3.875,9.279 20.704,51.801 22.896,110.038 17.531,164.973 -0.949,9.721 -2.35,20.531 -6.799,29.409 -3.223,6.431 -8.648,8.143 -15.344,9.358 -27.091,4.918 -54.522,0.197 -81.534,4.688 -4.353,0.724 -29.276,-120.298 -45.659,-213.399 -4.295,-24.408 1.034,-31.043 18.806,-49.74 4.898,-5.154 -14.775,-6.922 -34.637,7.62 -19.376,15.411 -28.622,33.584 -28.622,33.584 -1.519,6.702 45.75,248.498 45.75,248.498 0,0 -126.528,239.827 -58.851,328.305 67.677,88.479 197.775,77.384 197.775,77.384 0,0 90.799,104.411 169.515,73.409 C 319.859,82.739 345.771,9.154 425.21,-22.896 c 79.44,-32.052 106.139,-41.553 106.139,-41.553 0,0 0.007,-0.021 0.024,-0.061"
                   style="fill:#000000;fill-opacity:1;fill-rule:nonzero;stroke:none"
                   id="path54" />
              </g>
            </g>
          </g>
        </g>
        <g
           id="g62">
          <g
             id="g64" />
          <g
             id="g76">
            <g
               clip-path="url(#clipPath68)"
               opacity="0.399994"
               id="g74">
              <g
                 transform="translate(3129.1948,1496.8779)"
                 id="g72">
                <path
                   d="m 0,0 c 13.461,-24.677 49.838,-28.862 74.17,-14.78 24.331,14.082 38.43,40.833 47.536,67.427 15.198,44.384 19.974,91.874 18.235,138.752 -0.305,8.246 -0.896,16.799 -4.879,24.025 -3.982,7.225 -12.327,12.709 -20.347,10.773 -11.103,-2.679 -14.756,-16.36 -16.37,-27.666 C 93.021,161.233 87.695,123.937 82.37,86.639 78.979,62.895 75.171,38.085 61.008,18.726 46.845,-0.633 18.808,-12.12 -1.887,0.007"
                   style="fill:#ffffff;fill-opacity:1;fill-rule:nonzero;stroke:none"
                   id="path70" />
              </g>
            </g>
          </g>
        </g>
        <g
           id="g78">
          <g
             id="g80" />
          <g
             id="g92">
            <g
               clip-path="url(#clipPath84)"
               opacity="0.399994"
               id="g90">
              <g
                 transform="translate(3307.6304,1459.043)"
                 id="g88">
                <path
                   d="m 0,0 c 36.365,-5.651 77.604,2.979 100.288,31.959 16.831,21.502 26.475,55.228 27.27,82.52 1.719,59.042 -14.344,113.441 -35.995,168.396 -1.139,2.892 -1.074,10.144 -3.601,11.953 -3.301,2.363 -64.301,-3.594 -55.954,-26.341 C 51.893,214.297 54.572,65.738 40.502,42.28 26.432,18.821 22.917,3.803 -4.427,2.961"
                   style="fill:#ffffff;fill-opacity:1;fill-rule:nonzero;stroke:none"
                   id="path86" />
              </g>
            </g>
          </g>
        </g>
        <g
           id="g94">
          <g
             id="g96" />
          <g
             id="g108">
            <g
               clip-path="url(#clipPath100)"
               opacity="0.399994"
               id="g106">
              <g
                 transform="translate(3606.0356,1558.3682)"
                 id="g104">
                <path
                   d="m 0,0 c 14.083,8.324 29.147,17.786 34.84,33.122 4.219,11.367 6.302,36.283 3.663,48.118 -12.135,54.407 -37.708,93.711 -75.741,137.675 -14.961,17.295 -50.946,55.746 -60.566,54.203 -15.4,-2.469 -46.949,-37.814 -38.526,-46.902 C -75.997,161.122 -23.061,68.946 -11.79,25.415 -8.008,10.806 -17.085,2.35 -25.566,-10.133 Z"
                   style="fill:#ffffff;fill-opacity:1;fill-rule:nonzero;stroke:none"
                   id="path102" />
              </g>
            </g>
          </g>
        </g>
        <g
           id="g110">
          <g
             id="g112" />
          <g
             id="g124">
            <g
               clip-path="url(#clipPath116)"
               opacity="0.399994"
               id="g122">
              <g
                 transform="translate(3162.189,1786.0322)"
                 id="g120">
                <path
                   d="m 0,0 c 82.993,-21.853 173.003,-9.544 251.133,25.975 22.307,10.14 44.302,22.534 60.065,41.293 15.765,18.759 24.37,45.018 16.916,68.358 -2.367,7.412 -5.709,20.477 -13.257,18.581 C 271.999,143.441 309.304,105.399 266.436,81.796 180.994,34.752 98.571,4.27 1.143,-0.314 c -1.566,1.897 -5.296,-0.66 -4.091,-2.803 1.205,-2.145 5.329,-0.286 4.521,2.037"
                   style="fill:#ffffff;fill-opacity:1;fill-rule:nonzero;stroke:none"
                   id="path118" />
              </g>
            </g>
          </g>
        </g>
        <g
           id="g126">
          <g
             id="g128" />
          <g
             id="g140">
            <g
               clip-path="url(#clipPath132)"
               opacity="0.399994"
               id="g138">
              <g
                 transform="translate(3316.1011,2064.5762)"
                 id="g136">
                <path
                   d="m 0,0 c 2.641,-10.869 3.412,-21.961 2.808,-33.053 0.403,-5.192 0.505,-10.41 0.271,-15.62 -0.541,-12.098 -2.759,-23.922 -6.845,-35.329 -4.614,-12.881 -11.661,-21.262 -20.632,-31.29 -0.244,-0.272 -0.59,-0.336 -0.908,-0.269 -0.668,-0.718 -1.35,-1.421 -2.076,-2.089 -5.79,-5.329 -13.145,-8.609 -20.49,-11.435 -28.507,-10.968 -59.107,-16.438 -89.647,-16.092 42.743,8.312 80.255,40.218 95.002,81.237 15.233,42.367 5.547,92.7 -24.321,126.388 C -34.262,60.347 -7.706,31.718 0,0"
                   style="fill:#ffffff;fill-opacity:1;fill-rule:nonzero;stroke:none"
                   id="path134" />
              </g>
            </g>
          </g>
        </g>
        <g
           id="g142">
          <g
             id="g144" />
          <g
             id="g156">
            <g
               clip-path="url(#clipPath148)"
               opacity="0.399994"
               id="g154">
              <g
                 transform="translate(3169.4077,1920.3311)"
                 id="g152">
                <path
                   d="M 0,0 C -0.519,1.84 3.718,1.441 2.288,0.174 L 1.402,-0.732 c 2.59,-0.115 5.181,-0.17 7.773,-0.2 C 7.77,-1.205 6.357,-1.454 4.941,-1.677 3.053,-1.973 0.52,-1.84 0,0"
                   style="fill:#ffffff;fill-opacity:1;fill-rule:nonzero;stroke:none"
                   id="path150" />
              </g>
            </g>
          </g>
        </g>
        <g
           id="g158">
          <g
             id="g160" />
          <g
             id="g172">
            <g
               clip-path="url(#clipPath164)"
               opacity="0.399994"
               id="g170">
              <g
                 transform="translate(3726.021,2043.8838)"
                 id="g168">
                <path
                   d="m 0,0 c 1.799,-1.031 3.287,-2.655 4.057,-5.012 3.961,-12.126 4.902,-25.169 1.25,-37.496 -0.99,-3.338 -2.391,-7.065 -4.203,-10.68 -1.574,-8.736 -5.018,-16.857 -11.388,-22.709 -0.102,-0.15 -0.194,-0.303 -0.296,-0.452 -1.695,-2.457 -3.774,-3.674 -5.897,-3.979 -8.866,-4.844 -19.787,-5.667 -30.079,-5.598 -68.216,0.454 -132.866,28.744 -194.399,58.19 l -6.282,1.051 c -1.295,2.627 -2.59,5.254 -3.885,7.882 -25.456,-20.026 -59.017,-29.426 -91.171,-25.538 28.981,23.061 49.584,56.429 57.217,92.668 3.122,14.822 -20.747,85.775 16.645,80.429 7.25,-1.036 22.544,-27.197 27.298,-32.768 29.404,-34.46 0.47,-87.567 2.544,-89.033 43.842,-30.994 125.989,-41.344 178.213,-53.817 15.507,-3.704 16.95,49.993 58.439,58.957 C -1.118,9.214 -0.493,4.896 0,0"
                   style="fill:#ffffff;fill-opacity:1;fill-rule:nonzero;stroke:none"
                   id="path166" />
              </g>
            </g>
          </g>
        </g>
        <g
           id="g174"
           transform="translate(956.9169,2196.6904)">
          <path
             d="M 0,0 C 64.208,303.363 166.083,593.263 326.164,818.688"
             style="fill:none;stroke:#448a16;stroke-width:63.218;stroke-linecap:round;stroke-linejoin:miter;stroke-miterlimit:10;stroke-dasharray:none;stroke-opacity:1"
             id="path176" />
        </g>
        <g
           id="g178"
           transform="translate(1710.4585,749.9932)">
          <path
             d="M 0,0 C 0,0 75.891,431.012 23.8,936.448"
             style="fill:none;stroke:#448a16;stroke-width:63.218;stroke-linecap:butt;stroke-linejoin:miter;stroke-miterlimit:10;stroke-dasharray:none;stroke-opacity:1"
             id="path180" />
        </g>
        <g
           id="g182"
           transform="translate(2648.7026,673.585)">
          <path
             d="M 0,0 C 0,0 -56.188,473.641 -225.958,1014.841"
             style="fill:none;stroke:#448a16;stroke-width:63.218;stroke-linecap:butt;stroke-linejoin:miter;stroke-miterlimit:10;stroke-dasharray:none;stroke-opacity:1"
             id="path184" />
        </g>
        <g
           id="g186">
          <g
             id="g188" />
          <g
             id="g200">
            <g
               clip-path="url(#clipPath192)"
               opacity="0.100006"
               id="g198">
              <g
                 transform="translate(3349.5718,517.7822)"
                 id="g196">
                <path
                   d="m 0,0 c 0,-106.608 -576.242,-193.03 -1287.073,-193.03 -710.831,0 -1287.074,86.422 -1287.074,193.03 0,106.607 576.243,193.03 1287.074,193.03 C -576.242,193.03 0,106.607 0,0"
                   style="fill:#231f20;fill-opacity:1;fill-rule:nonzero;stroke:none"
                   id="path194" />
              </g>
            </g>
          </g>
        </g>
        <g
           id="g202"
           transform="translate(996.4389,520.165)">
          <path
             d="m 0,0 c 0,-1.012 0,-2.024 0.034,-3.036 40.056,-23.936 81.926,-43.894 125.61,-58.827 42.15,-14.41 85.974,-24.146 131.333,-28.193 53.035,-4.745 106.977,-3.105 159.594,5.059 55.164,8.549 108.897,24.809 163.398,36.567 15.319,3.28 81.786,14.69 99.791,12.806 16.294,0 32.972,-3.629 49.162,-4.432 38.241,27.949 55.338,87.962 58.095,131.507 1.536,23.727 -1.15,46.72 -7.153,68.736 -0.453,1.745 -0.976,3.49 -1.501,5.2 v 0.034 c -1.081,3.734 -2.301,7.397 -3.592,11.061 0.139,0.174 0.279,0.349 0.383,0.524 0.175,0.209 0.315,0.488 0.419,0.732 0.07,0.07 0.104,0.175 0.139,0.244 0.419,0.071 0.873,0.071 1.292,0.14 25.261,3.385 49.231,24.459 47.591,51.5 -1.116,18.458 -14.654,35.66 -29.728,49.825 -8.373,7.921 -17.27,14.9 -24.738,20.621 -10.118,7.746 -20.795,14.76 -31.925,20.866 -3.978,2.233 -7.991,4.327 -12.073,6.281 -13.014,6.315 -26.622,11.444 -40.614,15.282 -4.292,1.187 -8.723,2.268 -13.258,3.245 h -0.036 c -4.571,0.977 -9.28,1.815 -13.991,2.443 -15.562,2.023 -31.472,1.639 -45.708,-3.804 -6.629,-2.512 -12.911,-6.141 -18.598,-11.13 -20.621,-18.109 -22.434,-45.499 -9.421,-67.76 1.431,-2.408 3.002,-4.745 4.746,-7.013 0.383,-0.454 0.767,-0.873 1.152,-1.327 0,-0.034 0.034,-0.034 0.034,-0.069 0.07,-0.14 0.07,-0.279 0.036,-0.453 v -0.035 c -0.21,-0.663 -1.118,-1.606 -2.653,-2.791 -0.173,-0.106 -0.313,-0.21 -0.489,-0.35 -10.85,-7.955 -47.661,-25.122 -83.461,-29.902 -16.398,-2.163 -32.588,-1.78 -45.986,3.315 -50,18.981 -89.532,58.06 -140.265,76.168 -0.523,0.175 -1.082,0.384 -1.605,0.559 h -0.036 c -23.342,8.059 -47.591,10.468 -71.562,8.268 -0.699,-0.243 -1.431,-0.453 -2.128,-0.732 -4.92,-1.605 -9.805,-3.419 -14.655,-5.373 C 125.155,264.793 30.495,157.048 6.106,51.988 3.383,40.369 1.535,28.751 0.663,17.271 0.174,11.479 -0.036,5.722 0,0"
             style="fill:#f2f2f2;fill-opacity:1;fill-rule:nonzero;stroke:none"
             id="path204" />
        </g>
        <g
           id="g206">
          <g
             id="g208" />
          <g
             id="g220">
            <g
               clip-path="url(#clipPath212)"
               opacity="0.100006"
               id="g218">
              <g
                 transform="translate(996.4389,520.165)"
                 id="g216">
                <path
                   d="m 0,0 c 0,-1.012 0,-2.024 0.034,-3.036 40.056,-23.936 81.926,-43.894 125.61,-58.827 42.15,-14.41 85.974,-24.146 131.333,-28.193 53.035,-4.745 106.977,-3.105 159.594,5.059 55.164,8.549 108.897,24.809 163.398,36.567 15.319,3.28 81.786,14.69 99.791,12.806 16.294,0 32.972,-3.629 49.162,-4.432 38.241,27.949 55.338,87.962 58.095,131.507 1.536,23.727 -1.15,46.72 -7.153,68.736 -0.453,1.745 -0.976,3.49 -1.501,5.2 v 0.034 c -1.081,3.734 -2.301,7.397 -3.592,11.061 0.139,0.174 0.279,0.349 0.383,0.524 0.175,0.209 0.315,0.488 0.419,0.732 0.07,0.07 0.104,0.175 0.139,0.244 0.419,0.071 0.873,0.071 1.292,0.14 25.261,3.385 49.231,24.459 47.591,51.5 -1.116,18.458 -14.654,35.66 -29.728,49.825 -8.373,7.921 -17.27,14.9 -24.738,20.621 -10.118,7.746 -20.795,14.76 -31.925,20.866 -3.978,2.233 -7.991,4.327 -12.073,6.281 -0.628,-8.723 -2.512,-17.726 -4.99,-26.519 -1.778,-10.432 -6,-28.436 -13.327,-43.264 -1.851,-6.107 -7.155,-33.287 -21.251,-35.416 -0.208,-0.07 -0.453,-0.105 -0.697,-0.105 -0.104,-0.035 -0.175,-0.035 -0.279,-0.035 -1.082,0.489 -2.198,1.012 -3.314,1.536 -0.315,0.105 -0.628,0.244 -0.944,0.383 -8.583,3.908 -17.583,7.537 -26.622,10.887 -0.14,0.07 -0.313,0.139 -0.453,0.173 -21.145,7.921 -42.359,14.585 -58.304,20.273 -0.034,0 -0.105,0.035 -0.174,0.035 -1.884,0.628 -3.664,1.291 -5.339,1.919 0.07,-0.14 0.07,-0.279 0.036,-0.453 v -0.035 c -0.21,-0.663 -1.118,-1.606 -2.653,-2.791 -0.173,-0.106 -0.313,-0.21 -0.489,-0.35 16.679,-13.991 44.906,-33.775 57.641,-40.719 5.34,-2.895 10.783,-5.93 16.33,-8.932 0.21,-0.105 0.419,-0.243 0.663,-0.349 12.526,-6.873 25.542,-13.468 38.487,-17.795 0.104,-0.279 0.207,-0.523 0.313,-0.802 v -0.035 c 1.012,-2.651 1.954,-5.233 2.757,-7.885 12.525,-39.289 5.756,-78.367 -9.003,-116.922 -0.034,-0.14 -0.105,-0.245 -0.14,-0.384 C 686.006,37.474 665.907,21.842 642.252,20.586 613.083,28.506 588.1,31.96 564.967,32.449 555.511,31.053 546.09,29.658 536.948,27.46 508.268,20.655 480.528,10.642 452.615,1.325 404.605,-14.689 356.698,-28.681 306.628,-36.531 215.91,-50.698 118.177,-49.896 31.89,-15.283 20.759,-10.817 10.118,-5.723 0,0"
                   style="fill:#000000;fill-opacity:1;fill-rule:nonzero;stroke:none"
                   id="path214" />
              </g>
            </g>
          </g>
        </g>
        <g
           id="g222">
          <g
             id="g224" />
          <g
             id="g236">
            <g
               clip-path="url(#clipPath228)"
               opacity="0.100006"
               id="g234">
              <g
                 transform="translate(1580.9438,785.6562)"
                 id="g232">
                <path
                   d="m 0,0 c 1.85,-1.396 3.944,-2.582 6.246,-3.489 1.151,-0.454 2.652,-1.082 4.397,-1.78 3.698,-1.465 8.479,-3.315 13.607,-4.99 0.942,-0.313 1.885,-0.593 2.862,-0.907 1.43,-0.453 2.895,-0.872 4.326,-1.256 0.977,-0.244 1.954,-0.523 2.896,-0.732 0.489,-0.14 0.977,-0.244 1.466,-0.349 0.07,0 0.139,-0.035 0.243,-0.035 v -0.035 c 8.689,-1.884 16.574,-2.128 19.923,1.919 1.954,2.373 2.06,16.818 2.443,19.924 2.652,21.841 8.34,58.338 29.309,71.981 -4.571,0.977 -9.28,1.814 -13.99,2.442 C 58.166,84.717 42.255,84.333 28.019,78.89 21.39,76.378 15.108,72.749 9.421,67.76 -11.2,49.65 -13.013,22.261 0,0"
                   style="fill:#ffffff;fill-opacity:1;fill-rule:nonzero;stroke:none"
                   id="path230" />
              </g>
            </g>
          </g>
        </g>
        <g
           id="g238">
          <g
             id="g240" />
          <g
             id="g252">
            <g
               clip-path="url(#clipPath244)"
               opacity="0.100006"
               id="g250">
              <g
                 transform="translate(1591.5864,780.3877)"
                 id="g248">
                <path
                   d="m 0,0 c 3.699,-1.466 8.479,-3.315 13.607,-4.99 0.943,-0.314 1.885,-0.593 2.863,-0.907 1.429,-0.454 2.894,-0.873 4.325,-1.256 0.977,-0.28 1.919,-0.524 2.897,-0.733 0.489,-0.139 0.976,-0.244 1.465,-0.348 0.07,-0.036 0.174,-0.071 0.244,-0.071 V -8.27 C 22.331,13.607 27.704,38.521 36.253,55.896 41.277,66.05 51.222,79.169 63.085,87.962 47.523,89.985 31.612,89.602 17.376,84.158 -3.908,63.886 -3.699,30.6 0,0"
                   style="fill:#ffffff;fill-opacity:1;fill-rule:nonzero;stroke:none"
                   id="path246" />
              </g>
            </g>
          </g>
        </g>
        <g
           id="g254">
          <g
             id="g256" />
          <g
             id="g268">
            <g
               clip-path="url(#clipPath260)"
               opacity="0.100006"
               id="g266">
              <g
                 transform="translate(997.1015,537.4365)"
                 id="g264">
                <path
                   d="m 0,0 c 25.61,-20.342 54.745,-30.356 89.95,-27.739 76.658,5.687 96.232,49.72 120.307,114.41 11.445,30.809 23.272,61.863 41.591,89.218 11.655,17.446 54.431,46.301 53.733,67.132 -0.733,22.679 -37.37,41.416 -63.955,50.836 -4.921,-1.604 -9.805,-3.419 -14.656,-5.373 C 124.493,247.521 29.832,139.776 5.443,34.717 2.721,23.098 0.873,11.479 0,0"
                   style="fill:#ffffff;fill-opacity:1;fill-rule:nonzero;stroke:none"
                   id="path262" />
              </g>
            </g>
          </g>
        </g>
        <g
           id="g270">
          <g
             id="g272" />
          <g
             id="g284">
            <g
               clip-path="url(#clipPath276)"
               opacity="0.100006"
               id="g282">
              <g
                 transform="translate(1002.5449,572.1533)"
                 id="g280">
                <path
                   d="m 0,0 c 4.605,-4.745 9.769,-8.897 16.294,-11.828 13.957,-6.246 30.984,-8.443 46.126,-6.28 39.184,5.547 61.654,38.17 78.053,70.865 16.923,33.74 29.868,69.679 56.665,97.139 13.642,14.025 28.437,26.901 42.393,40.613 9.456,9.281 21.738,20.516 27.251,33.462 -4.78,4.884 -9.874,9.385 -15.248,13.537 -9.595,6.246 -19.993,11.62 -30.007,16.26 C 119.049,212.805 24.389,105.06 0,0"
                   style="fill:#ffffff;fill-opacity:1;fill-rule:nonzero;stroke:none"
                   id="path278" />
              </g>
            </g>
          </g>
        </g>
        <g
           id="g286">
          <g
             id="g288" />
          <g
             id="g300">
            <g
               clip-path="url(#clipPath292)"
               opacity="0.100006"
               id="g298">
              <g
                 transform="translate(1579.0918,645.7598)"
                 id="g296">
                <path
                   d="M 0,0 C 1.487,19.346 8.871,38.177 21.914,52.533 33.277,65.037 61.984,58.379 76.25,54.28 87.785,50.967 98.757,43.585 103.45,32.539 108.622,20.364 105.39,6.416 101.8,-6.315 96.887,-23.741 91.097,-41.601 78.992,-55.064 66.887,-68.528 46.788,-76.438 30.166,-69.262 17.985,-64.003 10.056,-51.917 5.425,-39.484 0.756,-26.946 -1.026,-13.351 0,0"
                   style="fill:#ffffff;fill-opacity:1;fill-rule:nonzero;stroke:none"
                   id="path294" />
              </g>
            </g>
          </g>
        </g>
        <g
           id="g302"
           transform="translate(2364.4302,460.0869)">
          <path
             d="m 0,0 c 5.699,-5.235 11.585,-10.192 17.627,-14.932 44.361,-34.666 98.233,-56.661 153.376,-69.579 16.233,-3.842 32.592,-6.877 48.855,-9.201 90.798,-13.042 192.813,-8.27 278.284,27.541 28.129,11.772 51.889,28.191 74.348,48.73 4.215,3.81 8.365,7.652 12.516,11.431 -2.199,13.972 -5.141,27.82 -8.953,41.357 -0.991,3.532 -2.013,7.032 -3.128,10.533 -6.569,20.756 -15.18,40.799 -25.744,59.759 -0.124,0.185 -0.248,0.371 -0.372,0.557 -16.294,23.327 -34.881,45.26 -57.032,63.228 -8.302,6.754 -17.38,13.104 -27.044,18.805 -3.254,1.919 -6.568,3.779 -9.944,5.513 -0.062,0.063 -0.156,0.094 -0.248,0.155 -0.465,0.249 -0.931,0.465 -1.363,0.682 -5.205,2.664 -10.502,5.111 -15.923,7.311 0.061,0.186 0.124,0.372 0.185,0.589 v 0.061 c 0.217,0.589 0.372,1.209 0.527,1.859 0.03,0.062 0.03,0.124 0.062,0.217 2.696,11.369 -0.806,24.504 -8.365,36.586 -9.572,15.211 -21.716,28.656 -35.656,39.839 -12.98,10.44 -27.541,18.96 -43.03,25.124 -6.289,2.54 -12.732,4.678 -19.3,6.413 -6.63,1.734 -13.352,3.067 -20.167,3.965 -1.208,0.155 -2.448,0.31 -3.656,0.434 -43.525,4.678 -88.29,-9.201 -121.995,-37.051 -3.563,-2.943 -7.032,-6.041 -10.316,-9.293 -0.154,-0.155 -0.31,-0.311 -0.464,-0.466 -12.64,-12.577 -26.736,-31.691 -25.001,-50.186 -0.31,-0.155 -0.65,-0.278 -0.961,-0.433 -0.03,0 -0.03,-0.03 -0.03,-0.03 -4.555,-2.046 -9.077,-4.183 -13.507,-6.476 -0.031,0 -0.061,-0.03 -0.094,-0.03 C 101.3,196.623 72.088,174.783 49.845,146.065 33.116,124.474 20.198,99.505 12.855,73.11 11.585,69.857 10.378,66.573 9.231,63.352 8.457,61.215 7.807,59.077 7.094,56.939 6.938,56.258 6.814,55.576 6.66,54.895 V 54.863 C 5.421,48.854 4.368,42.813 3.47,36.772 1.673,24.598 0.558,12.329 0,0"
             style="fill:#f2f2f2;fill-opacity:1;fill-rule:nonzero;stroke:none"
             id="path304" />
        </g>
        <g
           id="g306">
          <g
             id="g308" />
          <g
             id="g320">
            <g
               clip-path="url(#clipPath312)"
               opacity="0.100006"
               id="g318">
              <g
                 transform="translate(2827.1636,648.3154)"
                 id="g316">
                <path
                   d="M 0,0 C -3.254,1.92 -6.568,3.779 -9.944,5.514 -6.568,3.655 -3.223,1.704 0.092,-0.341 0.062,-0.217 0.03,-0.124 0,0"
                   style="fill:#000000;fill-opacity:1;fill-rule:nonzero;stroke:none"
                   id="path314" />
              </g>
            </g>
          </g>
        </g>
        <g
           id="g322">
          <g
             id="g324" />
          <g
             id="g336">
            <g
               clip-path="url(#clipPath328)"
               opacity="0.100006"
               id="g334">
              <g
                 transform="translate(2528.6382,682.4766)"
                 id="g332">
                <path
                   d="m 0,0 c 2.981,0.475 5.951,0.967 8.964,1.402 4.461,0.682 8.953,1.301 13.444,1.921 0.496,0.062 0.961,0.124 1.457,0.217 2.509,0.31 5.019,0.65 7.529,0.96 1.083,0.124 2.199,0.279 3.282,0.403 h 0.063 c 3.903,0.495 7.837,0.929 11.802,1.364 29.678,3.129 60.131,4.677 90.273,3.469 3.47,-0.155 6.97,-0.31 10.441,-0.527 3.283,-0.217 6.567,-0.464 9.851,-0.743 0.185,0 0.403,0 0.588,-0.031 1.054,-0.093 2.107,-0.186 3.16,-0.31 0.834,-0.064 1.669,-0.151 2.502,-0.235 0.463,-0.045 0.928,-0.088 1.389,-0.135 2.171,-0.211 4.316,-0.446 6.486,-0.714 0.698,-0.052 1.375,-0.148 2.064,-0.232 0.75,-0.091 1.499,-0.192 2.248,-0.287 1.445,-0.185 2.894,-0.37 4.332,-0.566 2.293,-0.31 4.585,-0.682 6.846,-1.022 0.898,-0.123 1.829,-0.279 2.727,-0.434 2.044,-0.341 4.089,-0.682 6.134,-1.053 3.406,-0.62 6.814,-1.27 10.223,-2.013 1.394,-0.31 2.819,-0.589 4.213,-0.899 0.031,0 0.093,0 0.124,-0.031 2.384,-0.558 4.802,-1.115 7.187,-1.704 2.602,-0.651 5.204,-1.301 7.775,-2.014 2.356,-0.65 4.709,-1.331 7.063,-2.013 0.558,-0.155 1.084,-0.31 1.643,-0.496 2.229,-0.681 4.461,-1.363 6.66,-2.106 2.54,-0.837 5.049,-1.704 7.558,-2.571 1.951,-0.713 3.905,-1.426 5.825,-2.201 5.886,-2.199 11.68,-4.646 17.379,-7.31 2.106,-0.96 4.213,-1.952 6.289,-2.974 l -0.062,0.062 c -1.642,1.518 -3.284,3.005 -4.987,4.492 l -0.651,0.558 c 4.272,42.208 -43.991,73.853 -44.021,76.424 -12.98,10.441 -27.541,18.96 -43.03,25.124 2.881,-17.534 1.796,-38.63 -2.138,-56.722 -6.041,1.332 -12.051,2.509 -18.091,3.532 C 110.606,39.816 57.941,36.378 17.917,15.064 9.429,10.572 1.529,5.244 -5.689,-0.89 L -5.72,-0.921 C -3.83,-0.605 -1.913,-0.3 0,0"
                   style="fill:#000000;fill-opacity:1;fill-rule:nonzero;stroke:none"
                   id="path330" />
              </g>
            </g>
          </g>
        </g>
        <g
           id="g338">
          <g
             id="g340" />
          <g
             id="g352">
            <g
               clip-path="url(#clipPath344)"
               opacity="0.100006"
               id="g350">
              <g
                 transform="translate(2634.1089,769.8105)"
                 id="g348">
                <path
                   d="m 0,0 c 12.739,6.32 53.423,-11.289 36.097,-24.28 -7.71,-5.781 -31.968,-2.091 -41.647,-3.458 -13.262,-1.874 -24.464,-6.746 -37.026,-10.906 -5.582,-1.847 -19.977,-6.997 -24.263,-0.419 -4.41,6.77 5.667,16.121 10.292,19.299 C -39.814,-8.267 -18.188,-2.61 0,0"
                   style="fill:#ffffff;fill-opacity:1;fill-rule:nonzero;stroke:none"
                   id="path346" />
              </g>
            </g>
          </g>
        </g>
        <g
           id="g354">
          <g
             id="g356" />
          <g
             id="g368">
            <g
               clip-path="url(#clipPath360)"
               opacity="0.100006"
               id="g366">
              <g
                 transform="translate(2367.8999,496.8594)"
                 id="g364">
                <path
                   d="m 0,0 c 13.444,-13.166 31.536,-22.801 49.69,-29.214 69.61,-24.473 162.144,-18.711 197.583,52.851 22.275,45.012 55.917,89.746 103.47,109.944 31.041,13.197 60.441,7.744 91.172,15.706 0.588,0.155 1.114,0.279 1.641,0.372 5.794,1.301 7.094,0.619 4.152,8.148 0,0.031 0,0.031 -0.031,0.061 -0.248,0.682 -0.527,1.395 -0.867,2.2 -4.493,2.54 -9.016,4.925 -13.6,7.218 -0.248,0.093 -0.496,0.217 -0.713,0.341 -35.502,17.379 -73.761,26.518 -113.073,29.678 -0.062,0.031 -0.124,0.031 -0.186,0.031 -1.798,0.155 -3.594,0.278 -5.389,0.371 -1.86,0.124 -3.749,0.248 -5.608,0.341 -5.607,0.341 -11.247,0.526 -16.885,0.557 -6.225,0.093 -12.453,0.032 -18.71,-0.154 -13.415,-0.403 -26.828,-1.332 -40.211,-2.788 -1.921,-0.186 -3.811,-0.403 -5.732,-0.65 -3.872,-0.435 -7.774,-0.93 -11.647,-1.488 -0.836,-0.124 -1.704,-0.216 -2.539,-0.34 -1.457,-0.217 -2.914,-0.434 -4.37,-0.651 -4.089,-0.62 -8.178,-1.27 -12.267,-1.952 -0.155,-0.031 -0.279,-0.031 -0.402,-0.061 h -0.064 c -9.572,-1.642 -19.113,-3.501 -28.592,-5.515 -1.735,-0.341 -3.439,-0.743 -5.143,-1.115 -10.626,-2.324 -21.158,-4.895 -31.568,-7.621 -0.031,0 -0.061,-0.031 -0.093,-0.031 C 97.83,159.851 68.618,138.011 46.375,109.293 29.646,87.701 16.729,62.732 9.386,36.338 8.115,33.085 6.908,29.801 5.762,26.579 4.987,24.442 4.337,22.305 3.624,20.167 3.469,19.485 3.345,18.804 3.19,18.122 V 18.091 C 1.951,12.081 0.898,6.041 0,0"
                   style="fill:#ffffff;fill-opacity:1;fill-rule:nonzero;stroke:none"
                   id="path362" />
              </g>
            </g>
          </g>
        </g>
        <g
           id="g370">
          <g
             id="g372" />
          <g
             id="g384">
            <g
               clip-path="url(#clipPath376)"
               opacity="0.100006"
               id="g382">
              <g
                 transform="translate(2371.3521,514.3125)"
                 id="g380">
                <path
                   d="m 0,0 v -0.031 c 8.038,-12.672 17.622,-24.348 29.423,-32.391 21.833,-6.458 47.071,-3.796 67.885,5.821 43.578,20.108 73.629,62.535 106.843,95.708 14.076,14.054 28.744,27.304 44.251,39.379 25.138,30.389 66.952,50.088 103.721,59.328 3.498,0.88 7.025,1.699 10.617,2.424 h 0.063 c 0.031,0.032 0.092,0.032 0.124,0.032 2.537,0.504 5.107,0.979 7.677,1.421 -17.983,4.366 -36.396,7.15 -55.019,8.631 l -0.187,-0.001 c -1.796,0.149 -3.594,0.266 -5.39,0.384 -1.86,0.117 -3.749,0.234 -5.609,0.32 -5.608,0.289 -11.248,0.424 -16.886,0.496 -6.226,0.041 -12.484,-0.044 -18.71,-0.221 -13.413,-0.451 -26.823,-1.429 -40.201,-2.934 -1.92,-0.192 -3.809,-0.416 -5.729,-0.671 -3.871,-0.447 -7.771,-0.958 -11.642,-1.529 -0.835,-0.127 -1.704,-0.223 -2.539,-0.35 -1.456,-0.222 -2.911,-0.444 -4.366,-0.667 -4.088,-0.633 -8.174,-1.298 -12.26,-1.995 -0.156,-0.032 -0.28,-0.032 -0.402,-0.063 h -0.063 c -9.567,-1.677 -19.102,-3.57 -28.573,-5.618 -1.733,-0.347 -3.436,-0.756 -5.138,-1.134 -10.619,-2.361 -21.142,-4.971 -31.54,-7.735 -0.032,0 -0.062,-0.031 -0.094,-0.031 C 94.128,142.069 64.995,120.124 42.854,91.326 26.205,69.674 13.377,44.658 6.13,18.238 4.871,14.98 3.676,11.692 2.541,8.466 1.773,6.326 1.131,4.187 0.427,2.046 0.273,1.364 0.151,0.682 0,0"
                   style="fill:#ffffff;fill-opacity:1;fill-rule:nonzero;stroke:none"
                   id="path378" />
              </g>
            </g>
          </g>
        </g>
        <g
           id="g386">
          <g
             id="g388" />
          <g
             id="g400">
            <g
               clip-path="url(#clipPath392)"
               opacity="0.100006"
               id="g398">
              <g
                 transform="translate(2535.4331,375.5762)"
                 id="g396">
                <path
                   d="m 0,0 c 16.233,-3.842 32.592,-6.877 48.855,-9.201 90.798,-13.042 192.813,-8.271 278.284,27.541 28.129,11.771 51.889,28.19 74.348,48.729 4.215,3.811 8.366,7.653 12.516,11.432 -2.199,13.972 -5.141,27.819 -8.953,41.356 C 364.312,77.882 308.024,46.035 260.441,28.036 177.17,-3.5 87.145,-12.794 0,0"
                   style="fill:#000000;fill-opacity:1;fill-rule:nonzero;stroke:none"
                   id="path394" />
              </g>
            </g>
          </g>
        </g>
        <g
           id="g402"
           transform="translate(2797.0952,3625.1626)">
          <path
             d="m 0,0 c -28.782,331.035 -14.392,662.089 71.966,978.733 -532.55,14.391 -1079.49,-43.174 -1612.04,0 -43.183,-215.887 -57.574,-431.793 -71.974,-647.698 -14.392,-474.966 86.365,-921.168 143.94,-1396.134 22.698,-261.098 18.363,-522.158 -26.773,-776.181 3.259,2.407 6.741,6.093 10.474,11.428 28.939,41.414 40.34,91.977 73.937,130.613 4.418,5.075 14.725,2.741 15.855,-4.185 9.455,-57.992 -5.871,-115.427 -15.725,-172.473 25.254,-5.594 50.194,-2.074 76.124,-2.315 7.223,-0.075 11.761,-8.001 8.186,-14.281 -4.779,-8.389 -9.4,-15.057 -15.697,-22.355 -13.483,-15.613 -21.966,-12.242 -12.539,-28.467 8.391,-14.429 53.361,-20.948 69.65,-26.005 25.773,-8.001 71.567,-11.983 91.071,-31.875 6.667,-6.798 9.399,-14.113 9.529,-23.838 0.074,-6.297 -4.39,-12.02 -4.918,-17.928 -0.055,-0.648 0.047,-1.093 0.01,-1.705 419.938,6.891 844.794,34.562 1260.89,0.816 43.182,215.905 57.574,431.792 71.974,647.697 C 158.331,-921.168 57.574,-474.984 0,0"
             style="fill:#badb00;fill-opacity:1;fill-rule:nonzero;stroke:none"
             id="path404" />
        </g>
        <g
           id="g406"
           transform="translate(2917.1235,3235.0806)">
          <path
             d="m 0,0 c -19.346,129.262 -39.339,262.932 -55.592,396.787 -30.893,356.521 -8.001,668.923 70.021,955.006 l 21.688,79.551 -82.43,2.222 c -223.49,6.075 -452.564,-0.574 -674.072,-6.983 -308.346,-8.927 -627.157,-18.132 -934.494,6.798 l -57.435,4.649 -11.308,-56.509 c -44.016,-220.055 -58.787,-441.72 -73.076,-656.088 l -0.112,-2.334 c -10.474,-345.686 37.664,-667.405 88.644,-1008.053 19.346,-129.261 39.34,-262.931 55.593,-396.767 21.679,-250.19 16.762,-478.597 -15.003,-691.465 2.964,-6.371 5.77,-12.891 8.353,-19.688 9.807,-25.819 23.81,-91.218 54.787,-46.896 28.94,41.414 40.34,91.978 73.938,130.613 0.593,0.686 1.473,0.907 2.25,1.316 22.977,198.828 24.486,410.159 4.64,638.418 l -0.222,2.185 c -16.494,136.022 -36.691,270.97 -56.232,401.473 -50.017,334.332 -97.293,650.124 -87.31,983.752 12.762,191.29 25.949,388.471 60.205,581.965 295.917,-20.059 597.893,-11.317 890.523,-2.852 192.846,5.556 391.425,11.242 585.752,8.63 -65.668,-279.193 -83.198,-581.538 -53.666,-921.26 l 0.223,-2.185 c 16.493,-136.023 36.691,-270.971 56.231,-401.454 50.018,-334.332 97.293,-650.143 87.311,-983.771 -12.762,-191.291 -25.949,-388.471 -60.204,-581.946 -295.9,20.04 -597.912,11.298 -890.524,2.851 -120.816,-3.5 -243.864,-6.815 -366.736,-8.315 17.642,-4.52 34.645,-10.521 44.683,-20.763 6.668,-6.798 9.4,-14.113 9.53,-23.838 0.074,-6.297 -4.39,-12.02 -4.918,-17.928 -1.963,-22.3 4.278,-33.265 18.42,-49.008 5.167,-5.741 10.326,-11.317 15.493,-16.929 96.451,1.816 192.559,4.538 287.269,7.279 308.328,8.946 627.157,18.115 934.494,-6.797 l 57.435,-4.649 11.308,56.509 c 44.016,220.055 58.787,441.72 73.076,656.088 l 0.112,2.352 C 99.118,-662.367 50.981,-340.629 0,0"
             style="fill:#81c200;fill-opacity:1;fill-rule:nonzero;stroke:none"
             id="path408" />
        </g>
        <g
           id="g410"
           transform="translate(2638.772,1811.6045)">
          <path
             d="m 0,0 c 143.933,561.338 28.787,1137.069 -57.573,1712.8 -43.18,287.866 0,575.731 57.573,849.203 h -1151.462 c -143.933,-561.337 -28.787,-1137.069 43.18,-1712.8 43.179,-287.865 28.786,-575.731 -43.18,-849.203 z"
             style="fill:#81c200;fill-opacity:1;fill-rule:nonzero;stroke:none"
             id="path412" />
        </g>
        <g
           id="g414"
           transform="translate(2091.8276,4100.1357)">
          <path
             d="m 0,0 c 57.573,14.393 115.146,-43.18 143.933,-86.36 14.393,-43.18 14.393,-86.36 -14.394,-129.539 -43.18,-43.18 -100.753,-86.36 -158.326,-71.967 -43.179,14.393 -86.359,57.574 -100.753,86.36 C -158.326,-115.146 -100.753,0 0,0"
             style="fill:#badb00;fill-opacity:1;fill-rule:nonzero;stroke:none"
             id="path416" />
        </g>
        <g
           id="g418"
           transform="translate(2091.8276,2401.7285)">
          <path
             d="m 0,0 c 57.573,14.394 115.146,-43.18 143.933,-86.359 14.393,-43.18 14.393,-86.361 -14.394,-129.54 -43.18,-43.18 -100.753,-86.36 -158.326,-71.966 -43.179,14.392 -86.359,57.573 -100.753,86.359 C -158.326,-115.146 -100.753,0 0,0"
             style="fill:#badb00;fill-opacity:1;fill-rule:nonzero;stroke:none"
             id="path420" />
        </g>
      </g>
    </g>
    <g
       id="g422">
      <g
         id="g424"
         clip-path="url(#clipPath428)">
        <g
           id="g430"
           transform="translate(2624.3784,4589.5068)">
          <path
             d="m 0,0 c 100.754,14.394 187.113,-57.573 230.293,-143.933 14.394,-71.966 0,-143.932 -28.786,-201.505 -86.361,-115.146 -244.687,-115.146 -345.44,-28.787 -43.179,43.18 -71.965,115.146 -57.573,187.113 C -172.719,-86.359 -100.753,0 0,0"
             style="fill:#badb00;fill-opacity:1;fill-rule:nonzero;stroke:none"
             id="path432" />
        </g>
        <g
           id="g434"
           transform="translate(1458.5234,4589.5068)">
          <path
             d="m 0,0 c 86.359,14.394 172.719,-28.786 215.899,-100.753 28.787,-57.573 43.18,-129.539 14.393,-201.506 -28.786,-57.573 -86.359,-100.753 -143.933,-129.539 -129.539,-28.786 -287.865,57.573 -287.865,201.506 0,115.146 86.36,215.899 201.506,230.292"
             style="fill:#badb00;fill-opacity:1;fill-rule:nonzero;stroke:none"
             id="path436" />
        </g>
        <g
           id="g438"
           transform="translate(2624.3784,2027.5029)">
          <path
             d="m 0,0 c 100.754,14.394 187.113,-57.572 230.293,-143.933 43.18,-158.326 -71.967,-302.258 -244.686,-287.865 -143.932,14.394 -230.293,172.72 -172.719,302.259 C -158.325,-57.572 -86.359,-14.393 0,0"
             style="fill:#badb00;fill-opacity:1;fill-rule:nonzero;stroke:none"
             id="path440" />
        </g>
        <g
           id="g442"
           transform="translate(1257.9009,1842.207)">
          <path
             d="m 0,0 c 9.807,-25.819 23.81,-91.219 54.787,-46.896 28.94,41.414 40.34,91.977 73.938,130.613 4.417,5.075 14.724,2.741 15.854,-4.186 9.456,-57.991 -5.871,-115.427 -15.725,-172.472 25.254,-5.594 50.194,-2.075 76.124,-2.316 7.223,-0.074 11.761,-8.001 8.187,-14.28 -4.779,-8.39 -9.4,-15.058 -15.698,-22.356 -13.483,-15.613 -21.966,-12.242 -12.539,-28.466 8.391,-14.429 53.361,-20.949 69.651,-26.005 23.439,-7.279 63.232,-11.372 84.948,-26.986 38.637,23.115 71.253,56.102 91.386,96.386 28.792,71.975 14.391,143.931 -14.392,201.515 C 373.338,156.507 286.982,199.698 200.625,185.289 95.368,175.731 15.632,96.163 -0.667,1.611 -0.454,1.074 -0.213,0.556 0,0"
             style="fill:#badb00;fill-opacity:1;fill-rule:nonzero;stroke:none"
             id="path444" />
        </g>
        <g
           id="g446"
           transform="translate(1546.5405,1625.4307)">
          <path
             d="m 0,0 c -17.151,4.89 -34.117,10.465 -51.184,15.669 -30.598,9.372 -58.973,19.448 -83.44,40.655 -3.713,3.223 -3.63,10.168 0,13.409 11.715,10.447 23.189,20.541 32.783,32.58 -24.096,-0.667 -47.507,-1.945 -71.27,5.316 -5.344,1.63 -7.455,6.482 -6.622,11.668 7.881,49.193 22.328,99.665 19.698,149.858 -32.033,-48.082 -43.693,-109.314 -92.7,-144.764 -3.195,-2.316 -8.983,-1.426 -11.493,1.481 -12.548,14.503 -20.818,31.135 -27.931,48.323 1.399,-34.376 11.252,-69.549 31.422,-103.165 28.783,-28.782 57.574,-43.174 71.966,-71.974 67.353,-42.1 149.375,-39.637 217.47,-7.483 C 20.966,-4.815 10.956,-3.13 0,0"
             style="fill:#badb00;fill-opacity:1;fill-rule:nonzero;stroke:none"
             id="path448" />
        </g>
      </g>
    </g>
    <g
       id="g450">
      <g
         id="g452"
         clip-path="url(#clipPath456)">
        <g
           id="g458"
           transform="translate(2019.8613,3596.3706)">
          <path
             d="m 0,0 c 143.933,0 273.472,-43.18 374.225,-158.326 115.147,-143.933 158.326,-331.045 71.967,-503.765 -14.394,-14.393 -28.787,-43.18 -43.181,-71.966 -100.753,-158.326 -287.865,-201.506 -474.978,-172.719 -172.719,43.179 -302.259,187.112 -345.438,359.832 C -460.585,-273.472 -273.473,-28.786 0,0"
             style="fill:#badb00;fill-opacity:1;fill-rule:nonzero;stroke:none"
             id="path460" />
        </g>
        <g
           id="g462">
          <g
             id="g464" />
          <g
             id="g476">
            <g
               clip-path="url(#clipPath468)"
               opacity="0.199997"
               id="g474">
              <g
                 transform="translate(2300.2876,4565.2603)"
                 id="g472">
                <path
                   d="m 0,0 c 182.827,-50.884 373.326,-108.477 535.084,-210.436 11.692,-7.369 23.218,-15.106 34.637,-23.024 12.666,95.344 30.631,187.064 54.468,274.466 l 14.373,45.766 -67.446,2.798 C 347.626,95.645 127.831,87.884 -93.677,81.476 -153.634,79.74 -214.502,78.738 -275.69,78.143 -183.349,52.213 -91.471,25.458 0,0"
                   style="fill:#ffffff;fill-opacity:1;fill-rule:nonzero;stroke:none"
                   id="path470" />
              </g>
            </g>
          </g>
        </g>
        <g
           id="g478">
          <g
             id="g480" />
          <g
             id="g492">
            <g
               clip-path="url(#clipPath484)"
               opacity="0.199997"
               id="g490">
              <g
                 transform="translate(2546.3579,1633.6484)"
                 id="g488">
                <path
                   d="m 0,0 c -204.951,30.409 -399.89,104.229 -584.333,196.936 -194.668,97.846 -386.271,212.866 -566.904,334.651 -40.534,27.329 -80.348,56.823 -117.601,89.124 -0.191,-136.957 -9.322,-267.483 -27.972,-392.464 2.963,-6.371 5.769,-12.892 8.353,-19.688 9.807,-25.82 23.81,-91.219 54.787,-46.897 28.94,41.413 40.339,91.978 73.938,130.613 4.417,5.076 14.724,2.742 15.855,-4.185 9.454,-57.99 -5.872,-115.426 -15.726,-172.472 25.254,-5.594 50.193,-2.075 76.124,-2.315 7.223,-0.074 11.761,-8.002 8.186,-14.281 -4.778,-8.39 -9.399,-15.058 -15.697,-22.355 -13.483,-15.614 -21.966,-12.243 -12.539,-28.468 8.39,-14.428 53.361,-20.948 69.651,-26.005 25.773,-8.001 71.567,-11.982 91.07,-31.875 6.668,-6.797 9.399,-14.113 9.529,-23.837 0.074,-6.297 -4.39,-12.02 -4.917,-17.929 -1.963,-22.3 4.278,-33.265 18.419,-49.008 5.168,-5.741 10.326,-11.316 15.493,-16.929 96.451,1.816 192.559,4.538 287.269,7.28 308.328,8.945 627.158,18.114 934.495,-6.797 l 57.435,-4.65 11.308,56.51 c 2.458,12.288 4.506,24.595 6.787,36.893 C 261.318,-35.682 123.985,-18.396 0,0"
                   style="fill:#ffffff;fill-opacity:1;fill-rule:nonzero;stroke:none"
                   id="path486" />
              </g>
            </g>
          </g>
        </g>
        <g
           id="g494"
           transform="translate(1998.2998,3845.624)">
          <path
             d="m 0,0 c -1.505,-227.186 59.664,-339.141 144.449,-339.141 61.074,0 291.831,42.013 376.871,65.948 50.194,14.128 61.184,157.136 61.184,226.09 0,227.19 -100.485,422.355 -329.719,422.355 C 88.896,375.252 1.57,237.084 0,0"
             style="fill:#fafff4;fill-opacity:1;fill-rule:nonzero;stroke:none"
             id="path496" />
        </g>
      </g>
    </g>
    <g
       id="g498">
      <g
         id="g500"
         clip-path="url(#clipPath504)">
        <g
           id="g506"
           transform="translate(2036.2832,3550.0981)">
          <path
             d="m 0,0 c 0,-101.91 82.615,-184.525 184.525,-184.525 101.91,0 184.524,82.615 184.524,184.525 0,101.91 -82.614,184.525 -184.524,184.525 C 82.615,184.525 0,101.91 0,0"
             style="fill:#59990b;fill-opacity:1;fill-rule:nonzero;stroke:none"
             id="path508" />
        </g>
        <g
           id="g510"
           transform="translate(2122.3579,3550.0918)">
          <path
             d="m 0,0 c 0,-54.365 44.072,-98.438 98.438,-98.438 54.365,0 98.437,44.072 98.437,98.438 0,54.365 -44.072,98.438 -98.437,98.438 C 44.072,98.438 0,54.366 0,0"
             style="fill:#213802;fill-opacity:1;fill-rule:nonzero;stroke:none"
             id="path512" />
        </g>
        <g
           id="g514"
           transform="translate(2027.1152,3635.4106)">
          <path
             d="m 0,0 c 0,-45.356 36.768,-82.125 82.125,-82.125 45.355,0 82.124,36.769 82.124,82.125 0,45.356 -36.769,82.125 -82.124,82.125 C 36.768,82.125 0,45.356 0,0"
             style="fill:#ffffff;fill-opacity:1;fill-rule:nonzero;stroke:none"
             id="path516" />
        </g>
        <g
           id="g518"
           transform="translate(2250.8052,3497.6201)">
          <path
             d="m 0,0 c 0,-15.962 12.94,-28.903 28.903,-28.903 15.962,0 28.903,12.941 28.903,28.903 0,15.963 -12.941,28.903 -28.903,28.903 C 12.94,28.903 0,15.963 0,0"
             style="fill:#ffffff;fill-opacity:1;fill-rule:nonzero;stroke:none"
             id="path520" />
        </g>
      </g>
    </g>
    <g
       id="g522">
      <g
         id="g524"
         clip-path="url(#clipPath528)">
        <g
           id="g530"
           transform="translate(1902.0615,3833.7627)">
          <path
             d="m 0,0 c 1.456,-219.77 -57.715,-328.07 -139.731,-328.069 -59.081,0 -282.302,40.641 -364.564,63.795 -48.555,13.666 -59.187,152.006 -59.187,218.71 0,219.774 97.204,408.568 318.952,408.567 C -85.993,363.003 -1.519,229.345 0,0"
             style="fill:#fafff4;fill-opacity:1;fill-rule:nonzero;stroke:none"
             id="path532" />
        </g>
      </g>
    </g>
    <g
       id="g534">
      <g
         id="g536"
         clip-path="url(#clipPath540)">
        <g
           id="g542"
           transform="translate(1462.519,3550.0664)">
          <path
             d="m 0,0 c 0,-98.583 79.917,-178.501 178.499,-178.501 98.582,0.001 178.499,79.918 178.499,178.502 0,98.583 -79.917,178.501 -178.499,178.501 C 79.917,178.501 0,98.583 0,0"
             style="fill:#59990b;fill-opacity:1;fill-rule:nonzero;stroke:none"
             id="path544" />
        </g>
        <g
           id="g546"
           transform="translate(1546.6626,3550.0869)">
          <path
             d="m 0,0 c 0,-52.102 42.238,-94.338 94.342,-94.338 52.103,0 94.342,42.237 94.342,94.338 0,52.102 -42.239,94.338 -94.342,94.338 C 42.238,94.338 0,52.102 0,0"
             style="fill:#213802;fill-opacity:1;fill-rule:nonzero;stroke:none"
             id="path548" />
        </g>
        <g
           id="g550"
           transform="translate(1456.3638,3629.2065)">
          <path
             d="m 0,0 c 0,-43.875 35.568,-79.443 79.442,-79.443 43.875,0 79.443,35.568 79.443,79.443 0,43.876 -35.568,79.444 -79.442,79.444 C 35.568,79.444 0,43.875 0,0"
             style="fill:#ffffff;fill-opacity:1;fill-rule:nonzero;stroke:none"
             id="path552" />
        </g>
        <g
           id="g554"
           transform="translate(1665.6758,3493.4341)">
          <path
             d="M 0,0 C 0,-15.441 12.518,-27.959 27.959,-27.959 43.4,-27.959 55.918,-15.441 55.918,0 55.918,15.442 43.4,27.959 27.959,27.959 12.518,27.959 0,15.442 0,0"
             style="fill:#ffffff;fill-opacity:1;fill-rule:nonzero;stroke:none"
             id="path556" />
        </g>
      </g>
    </g>
    <g
       id="g558">
      <g
         id="g560"
         clip-path="url(#clipPath564)">
        <g
           id="g566"
           transform="translate(2571.8892,4299.8418)">
          <path
             d="M 0,0 C 0,0 -167.887,-94.666 -288.691,-35.388 -409.496,23.89 -510.99,81.199 -510.99,81.199 c 0,0 0.579,48.096 24.361,80.369 l 23.782,32.273 c 0,0 19.618,-49.873 21.253,-44.284 1.635,5.589 10.673,30.457 10.673,30.457 0,0 23.092,-93.64 174.4,-146.871 C -104.993,-20.165 0,0 0,0"
             style="fill:#407500;fill-opacity:1;fill-rule:nonzero;stroke:none"
             id="path568" />
        </g>
        <g
           id="g570"
           transform="translate(1328.4097,4267.0576)">
          <path
             d="m 0,0 c 0,0 168.545,-81.88 286.984,-21.153 118.44,60.727 217.208,119.737 217.208,119.737 0,0 -1.075,44.207 -25.37,73.521 l -24.296,29.314 c 0,0 -18.338,-47.66 -20.082,-42.479 -1.745,5.181 -11.259,28.157 -11.259,28.157 0,0 -20.235,-89.849 -169.049,-146.174 C 105.106,-15.483 0,0 0,0"
             style="fill:#407500;fill-opacity:1;fill-rule:nonzero;stroke:none"
             id="path572" />
        </g>
        <g
           id="g574"
           transform="translate(1806.3247,2990.7231)">
          <path
             d="m 0,0 c 54.795,8.553 66.5,-66.402 121.295,-57.85 54.766,8.549 43.06,83.503 97.825,92.051 54.813,8.556 66.519,-66.399 121.331,-57.844 54.851,8.562 43.146,83.517 97.996,92.078 54.851,8.561 66.556,-66.393 121.407,-57.832"
             style="fill:none;stroke:#407500;stroke-width:37.932;stroke-linecap:butt;stroke-linejoin:miter;stroke-miterlimit:10;stroke-dasharray:none;stroke-opacity:1"
             id="path576" />
        </g>
        <g
           id="g578"
           transform="translate(1040.5933,2096.1104)">
          <path
             d="m 0,0 c 17.628,1.09 32.938,12.99 43.722,26.977 7.037,9.127 12.812,19.813 13.259,31.33 0.981,25.251 -22.51,43.836 -43.804,57.445 -54.837,35.05 -117.189,68.413 -181.586,59.005 -18.087,-2.642 -36.272,-9.049 -49.241,-21.929 -12.97,-12.879 -19.582,-33.164 -12.823,-50.146 4.969,-12.487 16.023,-21.397 26.984,-29.171 C -138.23,27.227 -59.384,0.348 20.558,-2.867"
             style="fill:#e6e6e6;fill-opacity:1;fill-rule:nonzero;stroke:none"
             id="path580" />
        </g>
        <g
           id="g582">
          <g
             id="g584" />
          <g
             id="g596">
            <g
               clip-path="url(#clipPath588)"
               opacity="0.100006"
               id="g594">
              <g
                 transform="translate(897.9345,2207.8174)"
                 id="g592">
                <path
                   d="m 0,0 c 15.411,-12.12 33.552,-17.001 53.266,-18.509 51.821,-3.966 106.385,-27.239 109.447,-29.246 0.763,-0.499 1.557,-0.807 2.355,-1.006 0.564,-0.485 0.997,-1.755 1.687,-1.462 30.873,13.12 -46.334,48.972 -58.469,54.987 C 28.9,44.105 -25.852,45.641 -40.199,37.453 -44.614,34.933 -29.358,23.09 0,0 m -74.991,41.122 c 12.969,12.879 31.154,19.286 49.241,21.929 64.397,9.407 126.749,-23.956 181.586,-59.006 21.294,-13.61 44.785,-32.194 43.804,-57.445 -0.448,-11.517 -6.221,-22.203 -13.26,-31.33 -10.783,-13.987 -26.093,-25.887 -43.722,-26.976 l 20.558,-2.868 c -79.942,3.215 -158.787,30.094 -224.046,76.378 -10.962,7.774 -22.015,16.684 -26.984,29.171 -6.759,16.982 -0.147,37.267 12.823,50.147"
                   style="fill:#000000;fill-opacity:1;fill-rule:nonzero;stroke:none"
                   id="path590" />
              </g>
            </g>
          </g>
        </g>
        <g
           id="g598"
           transform="translate(1103.207,1517.9502)">
          <path
             d="m 0,0 c 1.519,6.702 -45.75,248.498 -45.75,248.498 0,0 126.528,239.827 58.851,328.306 -67.677,88.478 -197.775,77.384 -197.775,77.384 0,0 -90.799,104.411 -169.515,73.409 -78.715,-31 -104.627,-104.586 -184.066,-136.637 -79.441,-32.053 -106.139,-41.553 -106.139,-41.553 0,0 -42.311,-104.13 31.565,-111.639 73.877,-7.509 212.647,61.151 212.647,61.151 0,0 -29.647,-63.262 -24.816,-94.487 4.831,-31.226 11.111,-60.35 11.111,-60.35 0,0 -106.049,-81.908 -137.683,-159.299 -31.634,-77.391 -37.454,-110.576 -0.67,-135.923 36.783,-25.345 82.655,-35.256 96.6,-26.266 13.945,8.988 31.679,57.212 64.011,110.875 l 63.728,92.471 c 0,0 -42.639,-102.354 -35.547,-170.784 7.093,-68.429 29.137,-108.416 78.232,-115.897 49.095,-7.483 87.565,7.854 87.565,7.854 l 10.615,91.874 c 0,0 24.491,-88.167 90.613,-93.432 C -30.301,-59.712 0,0 0,0"
             style="fill:#e6e6e6;fill-opacity:1;fill-rule:nonzero;stroke:none"
             id="path600" />
        </g>
        <g
           id="g602">
          <g
             id="g604" />
          <g
             id="g616">
            <g
               clip-path="url(#clipPath608)"
               opacity="0.0599976"
               id="g614">
              <g
                 transform="translate(869.0073,2094.6855)"
                 id="g612">
                <path
                   d="m 0,0 c -25.831,-44.274 -16.941,-144.58 31.694,-162.043 91.959,-33.019 215.824,-42.88 178.288,92.605 C 196.591,-21.102 168.195,20.966 121.154,37.121 77.236,52.203 24.724,42.375 0,0 m 160.095,-256.508 c -10.66,27.752 -34.447,52.789 -63.738,54.777 -57.723,3.914 -177.909,38.038 -210.286,49.597 -17.938,6.405 -39.933,26.399 -58.213,12.428 -24.09,-18.413 -8.451,-79.598 3.646,-95.743 15.773,-21.053 71.338,-52.679 94.948,-62.429 69.579,-28.735 145.985,-36.411 216.559,-19.086 24.754,6.076 25.117,39.544 17.084,60.456 m -570.289,229.18 c 0,0 26.698,9.501 106.138,41.553 79.44,32.05 105.351,105.635 184.067,136.636 78.716,31.002 169.514,-73.409 169.514,-73.409 0,0 130.099,11.095 197.775,-77.384 67.678,-88.478 -58.85,-328.305 -58.85,-328.305 0,0 47.268,-241.796 45.749,-248.498 0,0 -9.246,-18.173 -28.622,-33.584 -19.862,-14.542 -39.535,-12.774 -34.636,-7.619 17.771,18.696 23.1,25.332 18.805,49.739 -16.383,93.101 -41.306,214.123 -45.659,213.399 -27.012,-4.491 -54.442,0.23 -81.534,-4.688 -6.695,-1.215 -12.121,-2.927 -15.344,-9.358 -4.448,-8.878 -5.85,-19.688 -6.799,-29.409 -5.365,-54.934 -3.173,-113.172 17.531,-164.973 1.248,-3.121 2.545,-6.21 3.876,-9.279 -10.207,18.768 -14.653,34.759 -14.653,34.759 l -10.615,-91.874 c 0,0 -7.538,-3 -20.183,-5.699 2.539,3.313 -19.632,24.127 -22.525,28.207 -12.114,17.086 -18.297,151.843 12.716,247.573 1.089,3.358 -1.26,9.915 -4.634,10.184 -23.095,1.843 -63.83,22.432 -85.709,28.26 -3.839,-5.1 -9.145,-26.267 -9.145,-26.267 0,0 -110.93,-156.768 -128.509,-206.779 -1.885,-5.36 -13.299,-3.938 -23.917,-2.722 -4.731,2.137 -8.536,5.693 -10.243,11.586 -3.582,12.368 1.259,26.944 5.475,38.512 9.595,26.336 24.5,51.67 41.426,73.981 23.22,30.601 53.968,58.266 66.22,95.758 4.977,15.227 5.33,31.682 -4.078,45.239 -9.36,13.486 -24.327,23.35 -38.55,31.014 -5.018,2.704 -11.146,5.763 -17.915,8.712 13.98,12.185 23.335,19.41 23.335,19.41 0,0 -6.28,29.124 -11.111,60.349 -3.431,22.175 19.364,75.092 27.742,95.45 4.995,-28.238 107.405,-59.253 137.463,-64.086 7.406,-4.336 -78.43,113.075 34.708,197.463 -13.002,20.364 -69.523,57.998 -92.787,57.674 -105.055,-1.459 -101.416,-78.347 -112.318,-89.985 -60.046,-64.097 -126.001,-76.379 -172.925,-77.671 -15.308,-0.421 -46.999,11.856 -41.303,26.07 0.016,0.04 0.024,0.061 0.024,0.061"
                   style="fill:#000000;fill-opacity:1;fill-rule:nonzero;stroke:none"
                   id="path610" />
              </g>
            </g>
          </g>
        </g>
        <g
           id="g618">
          <g
             id="g620" />
          <g
             id="g632">
            <g
               clip-path="url(#clipPath624)"
               opacity="0.399994"
               id="g630">
              <g
                 transform="translate(1051.8735,1496.8779)"
                 id="g628">
                <path
                   d="m 0,0 c -13.461,-24.677 -49.838,-28.862 -74.169,-14.78 -24.332,14.082 -38.431,40.833 -47.538,67.427 -15.197,44.384 -19.972,91.874 -18.234,138.752 0.305,8.246 0.896,16.799 4.878,24.025 3.983,7.225 12.328,12.709 20.348,10.773 11.103,-2.679 14.755,-16.36 16.37,-27.666 5.325,-37.298 10.65,-74.594 15.975,-111.892 3.39,-23.744 7.2,-48.554 21.363,-67.913 C -46.844,-0.633 -18.808,-12.12 1.887,0.007"
                   style="fill:#ffffff;fill-opacity:1;fill-rule:nonzero;stroke:none"
                   id="path626" />
              </g>
            </g>
          </g>
        </g>
        <g
           id="g634">
          <g
             id="g636" />
          <g
             id="g648">
            <g
               clip-path="url(#clipPath640)"
               opacity="0.399994"
               id="g646">
              <g
                 transform="translate(873.4384,1459.043)"
                 id="g644">
                <path
                   d="m 0,0 c -36.365,-5.651 -77.604,2.979 -100.289,31.959 -16.831,21.502 -26.474,55.228 -27.269,82.52 -1.719,59.042 14.344,113.441 35.994,168.396 1.14,2.892 1.075,10.144 3.602,11.953 3.3,2.363 64.301,-3.594 55.954,-26.341 C -51.894,214.297 -54.573,65.738 -40.502,42.28 -26.432,18.821 -22.917,3.803 4.426,2.961"
                   style="fill:#ffffff;fill-opacity:1;fill-rule:nonzero;stroke:none"
                   id="path642" />
              </g>
            </g>
          </g>
        </g>
        <g
           id="g650">
          <g
             id="g652" />
          <g
             id="g664">
            <g
               clip-path="url(#clipPath656)"
               opacity="0.399994"
               id="g662">
              <g
                 transform="translate(575.0327,1558.3682)"
                 id="g660">
                <path
                   d="m 0,0 c -14.083,8.324 -29.147,17.786 -34.84,33.122 -4.219,11.367 -6.302,36.283 -3.663,48.118 12.135,54.407 37.709,93.711 75.741,137.675 14.961,17.295 50.945,55.746 60.566,54.203 15.4,-2.469 46.949,-37.814 38.526,-46.902 C 75.997,161.122 23.061,68.946 11.79,25.415 8.008,10.806 17.085,2.35 25.566,-10.133 Z"
                   style="fill:#ffffff;fill-opacity:1;fill-rule:nonzero;stroke:none"
                   id="path658" />
              </g>
            </g>
          </g>
        </g>
        <g
           id="g666">
          <g
             id="g668" />
          <g
             id="g680">
            <g
               clip-path="url(#clipPath672)"
               opacity="0.399994"
               id="g678">
              <g
                 transform="translate(1018.8793,1786.0322)"
                 id="g676">
                <path
                   d="m 0,0 c -82.994,-21.853 -173.002,-9.544 -251.133,25.975 -22.307,10.14 -44.302,22.534 -60.066,41.293 -15.764,18.759 -24.37,45.018 -16.915,68.358 2.367,7.412 5.709,20.477 13.257,18.581 42.857,-10.766 5.553,-48.808 48.421,-72.411 C -180.995,34.752 -98.571,4.27 -1.143,-0.314 0.422,1.583 4.153,-0.974 2.948,-3.117 1.743,-5.262 -2.381,-3.403 -1.573,-1.08"
                   style="fill:#ffffff;fill-opacity:1;fill-rule:nonzero;stroke:none"
                   id="path674" />
              </g>
            </g>
          </g>
        </g>
        <g
           id="g682">
          <g
             id="g684" />
          <g
             id="g696">
            <g
               clip-path="url(#clipPath688)"
               opacity="0.399994"
               id="g694">
              <g
                 transform="translate(864.9677,2064.5762)"
                 id="g692">
                <path
                   d="m 0,0 c -2.641,-10.869 -3.412,-21.961 -2.809,-33.053 -0.402,-5.192 -0.504,-10.41 -0.27,-15.62 0.541,-12.098 2.758,-23.922 6.844,-35.329 4.615,-12.881 11.662,-21.262 20.633,-31.29 0.244,-0.272 0.59,-0.336 0.907,-0.269 0.668,-0.718 1.351,-1.421 2.077,-2.089 5.79,-5.329 13.145,-8.609 20.49,-11.435 28.506,-10.968 59.106,-16.438 89.646,-16.092 -42.743,8.312 -80.255,40.218 -95.002,81.237 C 27.283,-21.573 36.969,28.76 66.837,62.448 34.261,60.347 7.706,31.718 0,0"
                   style="fill:#ffffff;fill-opacity:1;fill-rule:nonzero;stroke:none"
                   id="path690" />
              </g>
            </g>
          </g>
        </g>
        <g
           id="g698">
          <g
             id="g700" />
          <g
             id="g712">
            <g
               clip-path="url(#clipPath704)"
               opacity="0.399994"
               id="g710">
              <g
                 transform="translate(1011.6601,1920.3311)"
                 id="g708">
                <path
                   d="m 0,0 c 0.519,1.84 -3.718,1.441 -2.288,0.174 l 0.886,-0.906 c -2.589,-0.115 -5.181,-0.17 -7.773,-0.2 1.406,-0.273 2.818,-0.522 4.234,-0.745 C -3.052,-1.973 -0.519,-1.84 0,0"
                   style="fill:#ffffff;fill-opacity:1;fill-rule:nonzero;stroke:none"
                   id="path706" />
              </g>
            </g>
          </g>
        </g>
        <g
           id="g714">
          <g
             id="g716" />
          <g
             id="g728">
            <g
               clip-path="url(#clipPath720)"
               opacity="0.399994"
               id="g726">
              <g
                 transform="translate(455.0478,2043.8838)"
                 id="g724">
                <path
                   d="m 0,0 c -1.799,-1.031 -3.287,-2.655 -4.057,-5.012 -3.961,-12.126 -4.902,-25.169 -1.25,-37.496 0.99,-3.338 2.39,-7.065 4.203,-10.68 1.574,-8.736 5.018,-16.857 11.387,-22.709 0.102,-0.15 0.194,-0.303 0.297,-0.452 1.694,-2.457 3.774,-3.674 5.896,-3.979 8.866,-4.844 19.787,-5.667 30.079,-5.598 68.217,0.454 132.866,28.744 194.4,58.19 l 6.282,1.051 c 1.295,2.627 2.59,5.254 3.885,7.882 25.456,-20.026 59.016,-29.426 91.171,-25.538 -28.981,23.061 -49.584,56.429 -57.217,92.668 -3.122,14.822 20.747,85.775 -16.646,80.429 C 261.18,127.72 245.886,101.559 241.132,95.988 211.728,61.528 240.663,8.421 238.589,6.955 194.747,-24.039 112.6,-34.389 60.375,-46.862 44.868,-50.566 43.425,3.131 1.937,12.095 1.118,9.214 0.493,4.896 0,0"
                   style="fill:#ffffff;fill-opacity:1;fill-rule:nonzero;stroke:none"
                   id="path722" />
              </g>
            </g>
          </g>
        </g>
      </g>
    </g>
  </g>
</svg>
