<?xml version="1.0" encoding="UTF-8" standalone="no"?>
<!-- Created with Inkscape (http://www.inkscape.org/) -->

<svg
   version="1.1"
   id="svg2"
   width="5368.6001"
   height="7619.8267"
   viewBox="0 0 5368.6001 7619.8267"
   sodipodi:docname="money-5273329.ai"
   xmlns:inkscape="http://www.inkscape.org/namespaces/inkscape"
   xmlns:sodipodi="http://sodipodi.sourceforge.net/DTD/sodipodi-0.dtd"
   xmlns="http://www.w3.org/2000/svg"
   xmlns:svg="http://www.w3.org/2000/svg">
  <defs
     id="defs6">
    <clipPath
       clipPathUnits="userSpaceOnUse"
       id="clipPath16">
      <path
         d="M 0,5714.875 H 4026.449 V 0 H 0 Z"
         id="path14" />
    </clipPath>
    <clipPath
       clipPathUnits="userSpaceOnUse"
       id="clipPath32">
      <path
         d="m 2851.08,3365.44 h 545.23 v -203.89 h -545.23 z"
         id="path30" />
    </clipPath>
    <clipPath
       clipPathUnits="userSpaceOnUse"
       id="clipPath52">
      <path
         d="M 2722.73,4339.59 H 3554.1 V 3284.93 h -831.37 z"
         id="path50" />
    </clipPath>
    <clipPath
       clipPathUnits="userSpaceOnUse"
       id="clipPath68">
      <path
         d="m 2754.6,4056.63 h 187.23 V 3706.88 H 2754.6 Z"
         id="path66" />
    </clipPath>
    <clipPath
       clipPathUnits="userSpaceOnUse"
       id="clipPath84">
      <path
         d="M 2957.75,4349.52 H 3154.7 V 3916.88 H 2957.75 Z"
         id="path82" />
    </clipPath>
    <clipPath
       clipPathUnits="userSpaceOnUse"
       id="clipPath100">
      <path
         d="m 3192.94,4348.48 h 171.68 v -448.01 h -171.68 z"
         id="path98" />
    </clipPath>
    <clipPath
       clipPathUnits="userSpaceOnUse"
       id="clipPath116">
      <path
         d="m 3393.5,4278.6 h 161.42 V 3851.41 H 3393.5 Z"
         id="path114" />
    </clipPath>
    <clipPath
       clipPathUnits="userSpaceOnUse"
       id="clipPath132">
      <path
         d="m 2961.13,3862.87 h 560.41 v -191.1 h -560.41 z"
         id="path130" />
    </clipPath>
    <clipPath
       clipPathUnits="userSpaceOnUse"
       id="clipPath148">
      <path
         d="m 2874.8,3679.76 h 328.84 V 3346.68 H 2874.8 Z"
         id="path146" />
    </clipPath>
    <clipPath
       clipPathUnits="userSpaceOnUse"
       id="clipPath164">
      <path
         d="m 3247.75,3616 h 276.42 v -293.61 h -276.42 z"
         id="path162" />
    </clipPath>
    <clipPath
       clipPathUnits="userSpaceOnUse"
       id="clipPath192">
      <path
         d="M 633.017,2717.88 H 1075.61 V 2214.92 H 633.017 Z"
         id="path190" />
    </clipPath>
    <clipPath
       clipPathUnits="userSpaceOnUse"
       id="clipPath208">
      <path
         d="m 976.325,2762.15 h 103.115 v -73.56 H 976.325 Z"
         id="path206" />
    </clipPath>
    <clipPath
       clipPathUnits="userSpaceOnUse"
       id="clipPath224">
      <path
         d="M 949.085,2712.72 H 1074.48 V 2588.01 H 949.085 Z"
         id="path222" />
    </clipPath>
    <clipPath
       clipPathUnits="userSpaceOnUse"
       id="clipPath240">
      <path
         d="m 1071.55,2453.89 h 96.41 v -66.97 h -96.41 z"
         id="path238" />
    </clipPath>
    <clipPath
       clipPathUnits="userSpaceOnUse"
       id="clipPath256">
      <path
         d="m 1002.7,2327.07 h 91.72 v -52.97 h -91.72 z"
         id="path254" />
    </clipPath>
    <clipPath
       clipPathUnits="userSpaceOnUse"
       id="clipPath272">
      <path
         d="M 876.545,2763.55 H 1077.31 V 2616.11 H 876.545 Z"
         id="path270" />
    </clipPath>
    <clipPath
       clipPathUnits="userSpaceOnUse"
       id="clipPath296">
      <path
         d="M 358.729,990.77 H 2932.88 V 604.71 H 358.729 Z"
         id="path294" />
    </clipPath>
    <clipPath
       clipPathUnits="userSpaceOnUse"
       id="clipPath316">
      <path
         d="M 579.743,1127.34 H 1404.42 V 707.43 H 579.743 Z"
         id="path314" />
    </clipPath>
    <clipPath
       clipPathUnits="userSpaceOnUse"
       id="clipPath332">
      <path
         d="m 1155.99,1149.43 h 95.98 v -98.7 h -95.98 z"
         id="path330" />
    </clipPath>
    <clipPath
       clipPathUnits="userSpaceOnUse"
       id="clipPath348">
      <path
         d="m 1172.99,1149.43 h 64.99 v -97.39 h -64.99 z"
         id="path346" />
    </clipPath>
    <clipPath
       clipPathUnits="userSpaceOnUse"
       id="clipPath364">
      <path
         d="M 580.406,1111.25 H 885.995 V 789.246 H 580.406 Z"
         id="path362" />
    </clipPath>
    <clipPath
       clipPathUnits="userSpaceOnUse"
       id="clipPath380">
      <path
         d="M 585.849,1105.88 H 852.631 V 833.193 H 585.849 Z"
         id="path378" />
    </clipPath>
    <clipPath
       clipPathUnits="userSpaceOnUse"
       id="clipPath396">
      <path
         d="m 1162.12,985.479 h 106.42 V 853.751 h -106.42 z"
         id="path394" />
    </clipPath>
    <clipPath
       clipPathUnits="userSpaceOnUse"
       id="clipPath416">
      <path
         d="m 2400.52,933.788 h 10.04 v -5.856 h -10.04 z"
         id="path414" />
    </clipPath>
    <clipPath
       clipPathUnits="userSpaceOnUse"
       id="clipPath432">
      <path
         d="m 2106.22,1046.21 h 283.24 V 939.55 h -283.24 z"
         id="path430" />
    </clipPath>
    <clipPath
       clipPathUnits="userSpaceOnUse"
       id="clipPath448">
      <path
         d="m 2149.48,1051.1 h 108.26 v -43.64 h -108.26 z"
         id="path446" />
    </clipPath>
    <clipPath
       clipPathUnits="userSpaceOnUse"
       id="clipPath464">
      <path
         d="m 1951.2,975.466 h 449.23 V 734.524 H 1951.2 Z"
         id="path462" />
    </clipPath>
    <clipPath
       clipPathUnits="userSpaceOnUse"
       id="clipPath480">
      <path
         d="m 1954.66,975.802 h 370.6 V 758.316 h -370.6 z"
         id="path478" />
    </clipPath>
    <clipPath
       clipPathUnits="userSpaceOnUse"
       id="clipPath496">
      <path
         d="m 2118.74,775.392 h 414 V 639.716 h -414 z"
         id="path494" />
    </clipPath>
    <clipPath
       clipPathUnits="userSpaceOnUse"
       id="clipPath532">
      <path
         d="m 1070.614,4653.565 c -143.933,-561.337 -28.787,-1137.067 43.18,-1712.799 v 0 c 43.18,-287.866 28.787,-575.732 -43.18,-849.204 v 0 h 1151.463 c 143.932,561.338 28.785,1137.07 -57.573,1712.8 v 0 c -43.18,287.866 0,575.732 57.573,849.203 v 0 z"
         id="path530" />
    </clipPath>
    <clipPath
       clipPathUnits="userSpaceOnUse"
       id="clipPath556">
      <path
         d="M 0,5714.875 H 4026.449 V 0 H 0 Z"
         id="path554" />
    </clipPath>
    <clipPath
       clipPathUnits="userSpaceOnUse"
       id="clipPath568">
      <path
         d="M 1207.51,4936.99 H 2522.16 V 4526.66 H 1207.51 Z"
         id="path566" />
    </clipPath>
    <clipPath
       clipPathUnits="userSpaceOnUse"
       id="clipPath584">
      <path
         d="M 756.141,2444.19 H 2525.23 V 1792.06 H 756.141 Z"
         id="path582" />
    </clipPath>
    <clipPath
       clipPathUnits="userSpaceOnUse"
       id="clipPath604">
      <path
         d="m 1581.604,4125.583 c -1.505,-227.186 59.664,-339.141 144.448,-339.141 v 0 c 61.076,0 291.832,42.012 376.871,65.947 v 0 c 50.194,14.127 61.186,157.136 61.186,226.09 v 0 c 0,227.19 -100.486,422.355 -329.72,422.355 v 0 c -163.889,0 -251.215,-138.168 -252.785,-375.251"
         id="path602" />
    </clipPath>
    <clipPath
       clipPathUnits="userSpaceOnUse"
       id="clipPath628">
      <path
         d="M 0,5714.875 H 4026.449 V 0 H 0 Z"
         id="path626" />
    </clipPath>
    <clipPath
       clipPathUnits="userSpaceOnUse"
       id="clipPath640">
      <path
         d="m 921.884,4068.157 c 0,-66.704 10.632,-205.044 59.187,-218.711 v 0 c 82.262,-23.153 305.483,-63.795 364.563,-63.795 v 0 c 82.016,0 141.187,108.301 139.732,328.069 v 0 c -1.519,229.345 -85.993,363.005 -244.53,363.005 v 0 c -221.749,0 -318.952,-188.795 -318.952,-408.568"
         id="path638" />
    </clipPath>
    <clipPath
       clipPathUnits="userSpaceOnUse"
       id="clipPath664">
      <path
         d="M 0,5714.875 H 4026.449 V 0 H 0 Z"
         id="path662" />
    </clipPath>
  </defs>
  <sodipodi:namedview
     id="namedview4"
     pagecolor="#ffffff"
     bordercolor="#000000"
     borderopacity="0.25"
     inkscape:showpageshadow="2"
     inkscape:pageopacity="0.0"
     inkscape:pagecheckerboard="0"
     inkscape:deskcolor="#d1d1d1" />
  <g
     id="g8"
     inkscape:groupmode="layer"
     inkscape:label="money-5273329"
     transform="matrix(1.3333333,0,0,-1.3333333,0,7619.8267)">
    <g
       id="g10">
      <g
         id="g12"
         clip-path="url(#clipPath16)">
        <g
           id="g18"
           transform="translate(2485.1899,3220.3394)">
          <path
             d="m 0,0 6.141,-4.378 c 2.161,-1.522 4.353,-3.033 6.559,-4.537 4.433,-2.995 8.898,-5.959 13.439,-8.837 9.057,-5.777 18.278,-11.313 27.597,-16.603 9.31,-5.305 18.75,-10.329 28.264,-15.09 4.736,-2.417 9.541,-4.681 14.314,-6.964 2.387,-1.14 4.811,-2.201 7.208,-3.304 2.403,-1.092 4.793,-2.197 7.222,-3.217 38.548,-16.869 78.219,-28.966 116.752,-34.512 19.262,-2.67 38.192,-3.652 56.365,-2.782 18.179,0.862 35.576,3.577 51.887,8.084 16.326,4.479 31.537,10.836 45.697,18.718 14.163,7.89 27.319,17.267 39.567,28.166 12.256,10.866 23.64,23.128 34.304,36.43 l 3.957,5.056 1.979,2.506 0.985,1.255 0.946,1.345 7.553,10.644 c 1.285,1.699 2.453,3.642 3.657,5.499 l 3.592,5.581 3.592,5.534 c 1.157,1.917 2.277,3.898 3.417,5.833 2.262,3.906 4.561,7.712 6.791,11.618 l 6.434,12.108 c 1.058,2.027 2.172,3.957 3.188,6.045 l 3.025,6.283 6.041,12.481 5.667,12.937 2.833,6.423 c 0.486,1.049 0.917,2.176 1.357,3.287 l 1.32,3.332 5.284,13.262 1.32,3.299 c 0.437,1.102 0.825,2.27 1.24,3.401 l 2.449,6.822 c 13.155,36.211 24.039,74.29 33.166,113.393 9.129,39.116 16.513,79.257 22.67,119.914 13.455,88.855 96.395,149.978 185.249,136.522 88.855,-13.456 149.978,-96.395 136.523,-185.25 -2.097,-13.843 -5.879,-27.013 -11.109,-39.333 l -1.437,-3.239 C 877.645,232.839 856.719,188.236 833.364,144.191 809.995,100.164 784.199,56.66 754.727,14.417 l -5.502,-7.908 c -0.928,-1.315 -1.81,-2.634 -2.775,-3.943 l -2.909,-3.922 -11.643,-15.625 -2.91,-3.89 c -0.969,-1.295 -1.924,-2.592 -2.972,-3.874 l -6.157,-7.697 -12.314,-15.305 c -4.302,-5.047 -8.667,-10.06 -12.998,-15.057 l -6.508,-7.475 c -2.185,-2.483 -4.553,-4.919 -6.82,-7.371 l -13.75,-14.604 c -4.752,-4.796 -9.647,-9.525 -14.464,-14.247 -2.427,-2.355 -4.812,-4.717 -7.274,-7.046 l -7.639,-6.878 -7.639,-6.831 c -2.558,-2.264 -5.036,-4.552 -7.771,-6.728 l -16.059,-13.09 -2.007,-1.621 -2.099,-1.573 -4.211,-3.129 -8.419,-6.214 c -22.678,-16.347 -46.948,-31.214 -72.79,-43.635 -25.798,-12.451 -53.248,-22.277 -81.317,-28.856 -28.063,-6.602 -56.743,-9.908 -84.845,-9.806 -28.115,0.054 -55.591,3.357 -81.765,9.149 -26.195,5.79 -51.111,14.03 -74.671,23.944 -23.525,10.005 -45.708,21.676 -66.724,34.464 -21.043,12.76 -40.808,26.816 -59.638,41.616 -2.373,1.825 -4.686,3.724 -7.002,5.609 -2.311,1.893 -4.645,3.747 -6.922,5.669 -4.553,3.847 -9.106,7.664 -13.539,11.61 -8.918,7.825 -17.602,15.839 -26.035,24.076 -8.444,8.224 -16.662,16.628 -24.654,25.255 -4.004,4.301 -7.93,8.694 -11.824,13.13 -1.942,2.228 -3.876,4.474 -5.8,6.753 l -2.892,3.463 -3.065,3.727 c -8.34,10.143 -6.879,25.126 3.264,33.466 8.484,6.977 20.353,7.095 28.891,1.012 z"
             style="fill:#448a16;fill-opacity:1;fill-rule:nonzero;stroke:none"
             id="path20" />
        </g>
        <g
           id="g22"
           transform="translate(2905.7788,3365.2695)">
          <path
             d="m 0,0 c 0,0 -128.686,-91.535 8.717,-150.694 137.401,-59.16 355.749,-67.401 421.918,-31.763 66.169,35.638 109.839,109.048 68.66,148.06 C 458.116,4.614 0,0 0,0"
             style="fill:#e6e6e6;fill-opacity:1;fill-rule:nonzero;stroke:none"
             id="path24" />
        </g>
        <g
           id="g26">
          <g
             id="g28" />
          <g
             id="g40">
            <g
               clip-path="url(#clipPath32)"
               opacity="0.100006"
               id="g38">
              <g
                 transform="translate(2942.4331,3251.2007)"
                 id="g36">
                <path
                   d="m 0,0 c -38.538,12.706 -55.986,35.025 -53.717,51.296 2.043,14.64 40.336,60.264 73.058,62.932 -34.326,0.059 -55.995,-0.159 -55.995,-0.159 0,0 -128.686,-91.535 8.717,-150.694 137.4,-59.161 355.749,-67.401 421.917,-31.763 23.887,12.866 44.809,30.661 59.899,49.976 C 380.697,-58.146 167.848,-55.336 0,0"
                   style="fill:#000000;fill-opacity:1;fill-rule:nonzero;stroke:none"
                   id="path34" />
              </g>
            </g>
          </g>
        </g>
        <g
           id="g42"
           transform="translate(2734.9224,4010.8496)">
          <path
             d="m 0,0 c 0,0 39.421,-225.151 9.214,-349.63 -37.943,-156.354 -27.814,-229.582 49.562,-288.51 77.377,-58.928 164.55,-83.479 290.91,-83.111 45.55,0.133 76.131,34.977 76.131,34.977 0,0 127.671,-43.449 216.273,-39.377 89.083,4.093 170.777,103.751 176.507,283.509 5.729,179.758 -33.042,217.359 -33.042,217.359 0,0 53.217,141.579 42.841,304.893 -10.376,163.314 -39.85,190.29 -112.246,192.594 -72.394,2.304 -78.87,-19.784 -78.87,-19.784 0,0 -13.283,82.195 -114.239,87.646 -71.08,3.838 -99.958,-35.897 -99.958,-35.897 0,0 -30.636,47.068 -131.59,33.755 C 190.538,325.111 192.28,257.443 192.28,257.443 L 187.63,0.054 c 0,0 -28.642,58.194 -104.276,49.455 C 7.722,40.769 0,0 0,0"
             style="fill:#e6e6e6;fill-opacity:1;fill-rule:nonzero;stroke:none"
             id="path44" />
        </g>
        <g
           id="g46">
          <g
             id="g48" />
          <g
             id="g60">
            <g
               clip-path="url(#clipPath52)"
               opacity="0.0599976"
               id="g58">
              <g
                 transform="translate(3492.8276,3405.3945)"
                 id="g56">
                <path
                   d="m 0,0 c -19.514,-42.724 -52.809,-77.443 -99.462,-88.952 -43.88,-10.826 -94.479,-0.802 -135.609,15.933 -19.043,7.748 -65.524,0.86 -23.491,105.454 48.853,121.562 -3.885,166.144 8.801,197.748 19.707,49.096 156.061,-9.265 264.53,2.047 5.917,0.618 12.086,-2.435 13.228,-8.719 C 41.771,147.72 32.045,70.162 0,0 m -453.382,298.488 c -27.885,5.625 -102.052,5.629 -83.12,35.104 36.363,56.612 17.745,118.26 28.232,121.006 51.938,13.6 108.795,14.247 161.61,10.431 58.538,-4.229 117.074,-12.917 174.465,-25.087 30.503,-6.469 60.765,-14.192 90.479,-23.666 25.036,-7.983 51.423,-16.117 73.882,-30.084 29.343,-18.244 46.648,-59.996 40.379,-95.856 -6.035,-34.52 -26.835,-40.953 -71.412,-35.802 -32.237,3.724 -380.149,37.022 -414.515,43.954 M -331.21,-5.477 C -367.735,-57.59 -416.164,-69.079 -473.23,-63 c -111.924,11.923 -157.401,68.868 -177.692,98.432 -21.223,30.921 -16.869,165.793 3.607,177.374 0.787,0.748 1.867,1.17 2.799,2.014 91.361,82.621 319.423,98.088 352.649,-24.577 19.344,-71.412 -15.127,-161.168 -39.343,-195.72 m 391.901,168.79 c 5.73,179.759 -33.042,217.359 -33.042,217.359 0,0 9.202,24.489 19.204,64.82 -14.319,-9.689 -49.867,-8.033 -68.483,-4.366 -49.397,9.728 -42.512,1.522 -62.045,21.04 -19.336,19.32 -10.382,52.584 -8.88,79.883 4.143,75.346 9.82,239.618 -12.632,328.489 -13.485,-5.599 -15.439,-12.162 -15.439,-12.162 0,0 -1.167,7.1 -5.334,17.237 3.764,-32.605 2.938,-65.934 1.123,-98.468 -3.658,-65.523 0.024,-132.515 -11.897,-197.276 -5.717,-31.059 -14.662,-65.632 -38.398,-88.15 -23.643,-22.433 -71.133,4.066 -100.478,9.98 -41.738,8.411 -5.67,83.671 -5.241,154.045 0.38,62.037 -6.248,137.571 -15.826,199.041 -3.994,25.635 -11.722,54.995 -5.886,79.413 -22.376,-10.513 -32.259,-24.073 -32.259,-24.073 0,0 -5.295,8.094 -18.661,16.62 0.294,-0.701 0.325,-1.59 0.879,-2.101 17.29,-16.001 18.593,-27.183 22.177,-48.732 16.6,-99.798 5.557,-215.391 -17.985,-313.419 -6.124,-25.496 -12.243,-58.792 -40.867,-67.448 -17.455,-5.278 -37.926,-7.486 -55.844,-5.268 -84.374,10.446 -53.117,183.219 -67.215,314.569 -3.124,29.106 -4.14,60.776 -14.896,88.304 -3.064,7.837 -7.683,16.802 -13.102,21.407 -25.955,-23.447 -25.288,-51.159 -25.288,-51.159 l -4.486,-248.312 c 15.7,-37.051 20.586,-78.929 21.187,-118.642 0.67,-44.133 -3.205,-89.231 -14.994,-131.887 -7.931,-28.695 -23.711,-72.171 -53.105,-85.95 -12.516,-5.866 -75.634,-28.57 -73.062,-8.346 8.891,69.914 17.905,214.676 20.776,248.203 7.191,83.958 -40.429,121.697 -77.568,96.334 -2.78,-1.899 -5.728,-2.403 -8.46,-1.978 -2.046,-4.156 -2.569,-6.865 -2.569,-6.865 0,0 39.421,-225.151 9.214,-349.63 -37.942,-156.354 -27.814,-229.582 49.562,-288.51 77.377,-58.928 164.55,-83.479 290.909,-83.111 45.551,0.132 76.132,34.977 76.132,34.977 0,0 127.67,-43.449 216.273,-39.377 89.083,4.094 170.777,103.751 176.506,283.509"
                   style="fill:#000000;fill-opacity:1;fill-rule:nonzero;stroke:none"
                   id="path54" />
              </g>
            </g>
          </g>
        </g>
        <g
           id="g62">
          <g
             id="g64" />
          <g
             id="g76">
            <g
               clip-path="url(#clipPath68)"
               opacity="0.399994"
               id="g74">
              <g
                 transform="translate(2754.8374,4037.5342)"
                 id="g72">
                <path
                   d="m 0,0 c 28.486,9.68 57.658,19.475 87.739,19.086 30.079,-0.388 61.768,-12.933 77.135,-38.792 5.829,-9.809 9.023,-20.94 11.64,-32.048 17.301,-73.478 11.553,-150.862 -5.445,-224.421 -5.384,-23.302 -16.368,-50.592 -40.011,-54.179 -8.496,-1.29 -18.124,1.59 -22.644,8.896 -4.053,6.551 -3.243,14.876 -2.358,22.529 7.507,64.919 10.528,130.356 9.034,195.688 -0.729,31.901 -4.547,67.888 -29.622,87.613 C 62.277,2.614 29.519,0.06 0.212,-3.399 -2.215,-6.343 5.981,-8.303 5.149,-4.579"
                   style="fill:#ffffff;fill-opacity:1;fill-rule:nonzero;stroke:none"
                   id="path70" />
              </g>
            </g>
          </g>
        </g>
        <g
           id="g78">
          <g
             id="g80" />
          <g
             id="g92">
            <g
               clip-path="url(#clipPath84)"
               opacity="0.399994"
               id="g90">
              <g
                 transform="translate(2960.3911,4322.1152)"
                 id="g88">
                <path
                   d="m 0,0 c 10.715,14.903 39.688,19.976 70.896,25.049 31.208,5.073 71.763,3.13 95.432,-17.825 36.002,-31.875 28.239,-86.339 24.886,-134.316 -4.967,-71.083 -11.796,-142.036 -20.476,-212.762 -3.448,-28.095 -14.345,-63.355 -42.581,-65.31 -17.266,-1.195 -32.729,12.583 -39.204,28.633 -6.475,16.049 -5.965,33.944 -5.354,51.241 2.831,80.314 5.663,160.626 8.494,240.94 0.691,19.589 1.183,40.138 -7.624,57.644 C 67.284,7.452 15.231,11.952 -2.64,-4.244"
                   style="fill:#ffffff;fill-opacity:1;fill-rule:nonzero;stroke:none"
                   id="path86" />
              </g>
            </g>
          </g>
        </g>
        <g
           id="g94">
          <g
             id="g96" />
          <g
             id="g108">
            <g
               clip-path="url(#clipPath100)"
               opacity="0.399994"
               id="g106">
              <g
                 transform="translate(3194.7983,4338.666)"
                 id="g104">
                <path
                   d="m 0,0 c 32.181,10.671 58.907,12.273 92.325,6.588 12.016,-2.044 24.091,-5.25 34.28,-11.935 15.478,-10.153 30.217,-30.567 35.969,-48.163 17.127,-52.398 0.75,-248.631 -16.492,-330.5 -2.903,-13.78 -6.485,-27.931 -15.165,-39.022 -8.68,-11.09 -23.793,-18.331 -37.115,-13.779 -22.547,7.704 -23.625,38.774 -20.432,62.391 6.913,51.137 13.827,102.274 20.741,153.412 4.715,34.88 9.434,70.281 4.581,105.139 -4.851,34.858 -20.575,69.717 -49.333,89.996 -17.795,12.55 -29.478,25.85 -51.215,24.523"
                   style="fill:#ffffff;fill-opacity:1;fill-rule:nonzero;stroke:none"
                   id="path102" />
              </g>
            </g>
          </g>
        </g>
        <g
           id="g110">
          <g
             id="g112" />
          <g
             id="g124">
            <g
               clip-path="url(#clipPath116)"
               opacity="0.399994"
               id="g122">
              <g
                 transform="translate(3393.5044,4271.52)"
                 id="g120">
                <path
                   d="m 0,0 c 26.889,7.187 55.218,8.934 82.783,5.105 14.127,-1.961 28.532,-5.6 39.741,-14.417 19.997,-15.728 30.598,-60.814 33.206,-86.125 9.794,-95.044 6.374,-180.306 -5.964,-275.059 -1.733,-13.302 -5.486,-31.416 -13.139,-42.434 -7.654,-11.019 -28.079,-7.442 -40.292,-1.897 17.949,115.715 24.781,260.498 1.08,330.67 -7.095,21.009 -22.049,40.857 -43.44,46.695 -11.136,3.039 -33.329,5.248 -43.965,9.736 C -0.624,-23.239 0,0 0,0"
                   style="fill:#ffffff;fill-opacity:1;fill-rule:nonzero;stroke:none"
                   id="path118" />
              </g>
            </g>
          </g>
        </g>
        <g
           id="g126">
          <g
             id="g128" />
          <g
             id="g140">
            <g
               clip-path="url(#clipPath132)"
               opacity="0.399994"
               id="g138">
              <g
                 transform="translate(2993.6421,3847.6895)"
                 id="g136">
                <path
                   d="m 0,0 c 1.729,7.864 14.644,6.465 22.611,7.622 128.77,18.687 260.881,1.18 385.629,-35.761 31.483,-9.322 63.581,-20.429 87.928,-42.456 24.347,-22.026 39.176,-57.668 27.887,-88.507 -3.488,-9.526 -12.517,-19.445 -22.118,-16.179 -8.906,3.03 -10.655,14.466 -13.348,23.48 -10.405,34.821 -50.777,49.578 -86.102,58.106 -93.327,22.532 -188.797,36.192 -284.703,40.734 -27.992,1.326 -56.464,1.828 -83.567,-5.308 -27.103,-7.136 -53.051,-22.894 -66.732,-47.359 0,0 22.931,62.065 32.515,105.628"
                   style="fill:#ffffff;fill-opacity:1;fill-rule:nonzero;stroke:none"
                   id="path134" />
              </g>
            </g>
          </g>
        </g>
        <g
           id="g142">
          <g
             id="g144" />
          <g
             id="g156">
            <g
               clip-path="url(#clipPath148)"
               opacity="0.399994"
               id="g154">
              <g
                 transform="translate(2881.856,3636.4336)"
                 id="g152">
                <path
                   d="m 0,0 c 57.99,33 126.112,47.894 192.571,42.104 19.906,-1.735 39.95,-5.371 57.885,-14.171 40.243,-19.746 64.672,-63.855 69.82,-108.39 5.15,-44.536 -2.931,-91.08 -23.229,-131.061 -18.866,-37.162 -91.815,-88.999 -114.569,-76.268 10.759,24.321 21.528,48.661 30.717,73.616 15.32,41.598 26.11,88.045 11.054,129.731 -15.204,42.1 -55.376,71.95 -98.742,83.027 C 82.14,9.666 36.023,4.103 -7.059,-8.059"
                   style="fill:#ffffff;fill-opacity:1;fill-rule:nonzero;stroke:none"
                   id="path150" />
              </g>
            </g>
          </g>
        </g>
        <g
           id="g158">
          <g
             id="g160" />
          <g
             id="g172">
            <g
               clip-path="url(#clipPath164)"
               opacity="0.399994"
               id="g170">
              <g
                 transform="translate(3252.1841,3374.4722)"
                 id="g168">
                <path
                   d="m 0,0 c 64.61,-17.372 135.959,10.356 181.664,59.24 45.704,48.885 68.336,115.746 75.366,182.292 18.079,-25.033 16.412,-58.893 12.202,-89.49 -3.978,-28.918 -9.54,-57.618 -16.651,-85.93 -11.175,-44.491 -30.788,-93.142 -73.406,-110.11 -14.835,-5.907 -31.031,-8.434 -46.991,-8.05 C -41.941,-47.865 0,0 0,0"
                   style="fill:#ffffff;fill-opacity:1;fill-rule:nonzero;stroke:none"
                   id="path166" />
              </g>
            </g>
          </g>
        </g>
        <g
           id="g174"
           transform="translate(664.4565,2602.7646)">
          <path
             d="M 0,0 C 0,0 -418.124,405.559 269.25,646.231"
             style="fill:none;stroke:#448a16;stroke-width:63.218;stroke-linecap:round;stroke-linejoin:miter;stroke-miterlimit:10;stroke-dasharray:none;stroke-opacity:1"
             id="path176" />
        </g>
        <g
           id="g178"
           transform="translate(622.3598,2425.874)">
          <path
             d="M 0,0 C 0,0 -22.993,-38.136 -58.087,-20.497 -93.183,-2.857 -89.396,83.198 -37.807,179.55 24.685,296.263 80.916,341.584 122.845,305.22 164.773,268.855 0,0 0,0"
             style="fill:#e6e6e6;fill-opacity:1;fill-rule:nonzero;stroke:none"
             id="path180" />
        </g>
        <g
           id="g182"
           transform="translate(988.0854,2195.2285)">
          <path
             d="m 0,0 c -26.494,-14.918 -63.432,-19.723 -68.401,-22.003 -4.97,-2.28 -152.296,33.543 -240.359,103.607 -88.064,70.065 -77.359,76.152 -79.151,131.524 -1.792,55.372 137.457,353.301 206.61,369.192 61.379,14.106 208.453,-15.758 253.838,-50.176 C 109.9,503.808 85.99,393.504 85.99,393.504 l 43.467,-31.403 c 0,0 82.482,-1.321 63.19,-94.832 -11.469,-55.596 -58.907,-46.843 -58.907,-46.843 0,0 9.845,-39.352 -20.822,-94.655 C 92.624,89.174 31.135,96.16 31.135,96.16 31.135,96.16 49.32,27.771 0,0"
             style="fill:#e6e6e6;fill-opacity:1;fill-rule:nonzero;stroke:none"
             id="path184" />
        </g>
        <g
           id="g186">
          <g
             id="g188" />
          <g
             id="g200">
            <g
               clip-path="url(#clipPath192)"
               opacity="0.399994"
               id="g198">
              <g
                 transform="translate(955.2446,2621.0879)"
                 id="g196">
                <path
                   d="m 0,0 c 48,-37.235 127.425,-53.749 119.868,-122.827 -6.226,-56.938 -48.942,-104.78 -71.962,-156.218 -12.366,-27.628 -33.691,-47.767 -44.703,-76.719 -7.426,-19.528 -6.964,-30.43 -26.342,-43.408 -13.662,-9.146 -15.933,-6.515 -31.603,-6.955 -63.632,-1.814 -160.591,52.227 -209.872,91.494 -66.264,52.793 -65.242,92.352 -46.758,163.824 17.94,69.379 63.587,147.685 105.332,205.824 49.718,69.242 92.313,34.848 111.291,20.179 C -63.075,50.726 -31.619,24.534 0,0"
                   style="fill:#ffffff;fill-opacity:1;fill-rule:nonzero;stroke:none"
                   id="path194" />
              </g>
            </g>
          </g>
        </g>
        <g
           id="g202">
          <g
             id="g204" />
          <g
             id="g216">
            <g
               clip-path="url(#clipPath208)"
               opacity="0.600006"
               id="g214">
              <g
                 transform="translate(1004.0009,2741.542)"
                 id="g212">
                <path
                   d="M 0,0 C -9.128,6.882 -18.397,13.728 -27.675,20.608 8.149,11.051 39.566,-1.236 56.621,-14.164 67.063,-22.095 72.712,-36.421 75.444,-52.948 49.446,-34.238 22.612,-17.034 0,0"
                   style="fill:#ffffff;fill-opacity:1;fill-rule:nonzero;stroke:none"
                   id="path210" />
              </g>
            </g>
          </g>
        </g>
        <g
           id="g218">
          <g
             id="g220" />
          <g
             id="g232">
            <g
               clip-path="url(#clipPath224)"
               opacity="0.100006"
               id="g230">
              <g
                 transform="translate(949.0849,2712.7158)"
                 id="g228">
                <path
                   d="m 0,0 c 9.037,-1.496 79.312,-9.285 72.079,-15.12 -43.669,-35.23 53.315,-109.584 53.315,-109.584 -7.29,3.685 -46.887,33.74 -83.514,65.429 C 26.958,-46.365 21.721,-21.43 0,0"
                   style="fill:#000000;fill-opacity:1;fill-rule:nonzero;stroke:none"
                   id="path226" />
              </g>
            </g>
          </g>
        </g>
        <g
           id="g234">
          <g
             id="g236" />
          <g
             id="g248">
            <g
               clip-path="url(#clipPath240)"
               opacity="0.100006"
               id="g246">
              <g
                 transform="translate(1123.6436,2415.4141)"
                 id="g244">
                <path
                   d="m 0,0 c -9.405,1.66 -18.775,3.547 -28.116,5.545 -3.741,0.801 -20.25,-34.851 -23.982,-34.023 3.153,4.44 5.674,41.811 35.7,66.95 2.597,-1.331 -6.614,-19.338 -3.823,-20.341 C 25.757,1.601 32.915,16.438 44.315,17.884 28.904,-1.419 6.476,-0.674 0,0"
                   style="fill:#000000;fill-opacity:1;fill-rule:nonzero;stroke:none"
                   id="path242" />
              </g>
            </g>
          </g>
        </g>
        <g
           id="g250">
          <g
             id="g252" />
          <g
             id="g264">
            <g
               clip-path="url(#clipPath256)"
               opacity="0.100006"
               id="g262">
              <g
                 transform="translate(1019.2206,2291.3887)"
                 id="g260">
                <path
                   d="M 0,0 C 0,0 -10.961,-2.541 -14.943,-17.245 -15.252,-18.386 -27.026,2.807 18.819,35.677 18.829,35.676 7.867,20.126 12.244,18.525 39.606,8.523 54.06,14.215 75.196,23.706 52.132,-6.752 0,0 0,0"
                   style="fill:#000000;fill-opacity:1;fill-rule:nonzero;stroke:none"
                   id="path258" />
              </g>
            </g>
          </g>
        </g>
        <g
           id="g266">
          <g
             id="g268" />
          <g
             id="g280">
            <g
               clip-path="url(#clipPath272)"
               opacity="0.399994"
               id="g278">
              <g
                 transform="translate(1009.9423,2626.5361)"
                 id="g276">
                <path
                   d="m 0,0 c -34.099,16.008 -119.68,52.347 -132.679,101.036 -3.901,14.613 7.175,44.677 55.911,33.571 37.6,-8.568 74.973,-21.62 111.871,-32.829 4.312,-1.309 14.063,-9.545 17.808,-12.051 C 76.274,74.08 64.321,8.041 64.241,-10.43 45.74,-7.539 27.036,26.99 31.327,45.216 c 2.318,9.845 8.52,21.515 1.47,28.767 -2.221,2.287 -5.337,3.431 -8.352,4.469 -32.401,11.15 -66.247,18.093 -100.421,20.602 29.846,-34.403 7.465,-42.76 71.933,-93.118"
                   style="fill:#ffffff;fill-opacity:1;fill-rule:nonzero;stroke:none"
                   id="path274" />
              </g>
            </g>
          </g>
        </g>
        <g
           id="g282"
           transform="translate(1293.7627,1029.9512)">
          <path
             d="M 0,0 C 0,0 75.891,431.012 23.8,936.448"
             style="fill:none;stroke:#448a16;stroke-width:63.218;stroke-linecap:butt;stroke-linejoin:miter;stroke-miterlimit:10;stroke-dasharray:none;stroke-opacity:1"
             id="path284" />
        </g>
        <g
           id="g286"
           transform="translate(2232.0073,953.543)">
          <path
             d="M 0,0 C 0,0 -56.189,473.641 -225.959,1014.841"
             style="fill:none;stroke:#448a16;stroke-width:63.218;stroke-linecap:butt;stroke-linejoin:miter;stroke-miterlimit:10;stroke-dasharray:none;stroke-opacity:1"
             id="path288" />
        </g>
        <g
           id="g290">
          <g
             id="g292" />
          <g
             id="g304">
            <g
               clip-path="url(#clipPath296)"
               opacity="0.100006"
               id="g302">
              <g
                 transform="translate(2932.8755,797.7402)"
                 id="g300">
                <path
                   d="m 0,0 c 0,-106.608 -576.242,-193.03 -1287.073,-193.03 -710.831,0 -1287.073,86.422 -1287.073,193.03 0,106.607 576.242,193.03 1287.073,193.03 C -576.242,193.03 0,106.607 0,0"
                   style="fill:#231f20;fill-opacity:1;fill-rule:nonzero;stroke:none"
                   id="path298" />
              </g>
            </g>
          </g>
        </g>
        <g
           id="g306"
           transform="translate(579.7431,800.123)">
          <path
             d="M 0,0 C 0,-1.012 0,-2.024 0.034,-3.036 40.09,-26.972 81.96,-46.93 125.645,-61.863 c 42.149,-14.41 85.973,-24.145 131.332,-28.193 53.035,-4.745 106.977,-3.105 159.594,5.059 55.164,8.549 108.897,24.809 163.398,36.567 15.319,3.28 81.786,14.69 99.791,12.806 16.294,0 32.972,-3.629 49.162,-4.432 38.241,27.949 55.338,87.962 58.095,131.507 1.536,23.727 -1.15,46.72 -7.153,68.736 -0.453,1.746 -0.976,3.49 -1.501,5.2 v 0.035 c -1.081,3.733 -2.301,7.397 -3.592,11.06 0.139,0.174 0.279,0.349 0.383,0.524 0.175,0.209 0.315,0.488 0.419,0.732 0.07,0.071 0.104,0.175 0.139,0.244 0.419,0.071 0.873,0.071 1.292,0.14 25.261,3.385 49.232,24.459 47.591,51.5 -1.116,18.458 -14.654,35.66 -29.728,49.826 -8.373,7.92 -17.27,14.899 -24.738,20.621 -10.118,7.745 -20.795,14.759 -31.925,20.866 -3.978,2.232 -7.991,4.326 -12.073,6.28 -13.014,6.315 -26.622,11.444 -40.614,15.282 -4.291,1.187 -8.723,2.268 -13.258,3.245 h -0.036 c -4.571,0.977 -9.28,1.815 -13.991,2.443 -15.561,2.023 -31.472,1.639 -45.708,-3.804 -6.629,-2.512 -12.911,-6.141 -18.598,-11.13 -20.621,-18.109 -22.434,-45.499 -9.421,-67.76 1.431,-2.408 3.002,-4.745 4.746,-7.013 0.384,-0.454 0.767,-0.873 1.152,-1.326 0,-0.035 0.034,-0.035 0.034,-0.07 0.07,-0.14 0.07,-0.279 0.036,-0.453 v -0.035 c -0.21,-0.663 -1.118,-1.606 -2.653,-2.791 -0.173,-0.106 -0.313,-0.21 -0.489,-0.35 -10.85,-7.955 -47.661,-25.122 -83.46,-29.902 -16.399,-2.163 -32.589,-1.78 -45.987,3.315 -50,18.981 -89.532,58.06 -140.265,76.168 -0.523,0.175 -1.082,0.384 -1.605,0.559 h -0.036 c -23.342,8.059 -47.591,10.468 -71.562,8.269 -0.699,-0.244 -1.431,-0.453 -2.128,-0.733 -4.92,-1.605 -9.805,-3.419 -14.655,-5.373 C 125.155,264.793 30.495,157.048 6.106,51.988 3.383,40.369 1.535,28.751 0.663,17.271 0.174,11.479 -0.036,5.722 0,0"
             style="fill:#f2f2f2;fill-opacity:1;fill-rule:nonzero;stroke:none"
             id="path308" />
        </g>
        <g
           id="g310">
          <g
             id="g312" />
          <g
             id="g324">
            <g
               clip-path="url(#clipPath316)"
               opacity="0.100006"
               id="g322">
              <g
                 transform="translate(579.7431,800.123)"
                 id="g320">
                <path
                   d="M 0,0 C 0,-1.012 0,-2.024 0.034,-3.036 40.09,-26.972 81.96,-46.93 125.645,-61.863 c 42.149,-14.41 85.973,-24.145 131.332,-28.193 53.035,-4.745 106.977,-3.105 159.594,5.059 55.164,8.549 108.897,24.809 163.398,36.567 15.319,3.28 81.786,14.69 99.791,12.806 16.294,0 32.972,-3.629 49.162,-4.432 38.241,27.949 55.338,87.962 58.095,131.507 1.536,23.727 -1.15,46.72 -7.153,68.736 -0.453,1.746 -0.976,3.49 -1.501,5.2 v 0.035 c -1.081,3.733 -2.301,7.397 -3.592,11.06 0.139,0.174 0.279,0.349 0.383,0.524 0.175,0.209 0.315,0.488 0.419,0.732 0.07,0.071 0.104,0.175 0.139,0.244 0.419,0.071 0.873,0.071 1.292,0.14 25.261,3.385 49.232,24.459 47.591,51.5 -1.116,18.458 -14.654,35.66 -29.728,49.826 -8.373,7.92 -17.27,14.899 -24.738,20.621 -10.118,7.745 -20.795,14.759 -31.925,20.866 -3.978,2.232 -7.991,4.326 -12.073,6.28 -0.628,-8.723 -2.512,-17.726 -4.99,-26.519 -1.778,-10.432 -6,-28.435 -13.327,-43.264 -1.851,-6.107 -7.154,-33.287 -21.251,-35.416 -0.208,-0.07 -0.453,-0.105 -0.697,-0.105 -0.104,-0.035 -0.175,-0.035 -0.279,-0.035 -1.082,0.489 -2.198,1.012 -3.314,1.536 -0.315,0.105 -0.628,0.244 -0.944,0.383 -8.583,3.908 -17.583,7.537 -26.621,10.887 -0.141,0.07 -0.314,0.139 -0.454,0.174 -21.145,7.92 -42.359,14.585 -58.304,20.272 -0.034,0 -0.105,0.035 -0.174,0.035 -1.884,0.628 -3.664,1.291 -5.339,1.919 0.07,-0.14 0.07,-0.279 0.036,-0.453 v -0.035 c -0.21,-0.663 -1.118,-1.606 -2.653,-2.791 -0.173,-0.106 -0.313,-0.21 -0.489,-0.35 16.679,-13.991 44.906,-33.774 57.641,-40.719 5.34,-2.895 10.783,-5.93 16.33,-8.931 0.21,-0.106 0.419,-0.244 0.663,-0.35 12.526,-6.873 25.542,-13.468 38.487,-17.794 0.104,-0.28 0.208,-0.523 0.313,-0.803 v -0.035 c 1.012,-2.651 1.954,-5.233 2.757,-7.885 12.525,-39.289 5.756,-78.367 -9.002,-116.922 -0.035,-0.14 -0.106,-0.244 -0.141,-0.384 C 686.006,37.474 665.907,21.842 642.252,20.586 613.083,28.506 588.1,31.961 564.967,32.449 555.511,31.054 546.09,29.658 536.948,27.46 508.268,20.655 480.528,10.643 452.615,1.325 404.604,-14.689 356.698,-28.681 306.628,-36.531 215.91,-50.698 118.177,-49.896 31.89,-15.282 20.76,-10.816 10.118,-5.723 0,0"
                   style="fill:#000000;fill-opacity:1;fill-rule:nonzero;stroke:none"
                   id="path318" />
              </g>
            </g>
          </g>
        </g>
        <g
           id="g326">
          <g
             id="g328" />
          <g
             id="g340">
            <g
               clip-path="url(#clipPath332)"
               opacity="0.100006"
               id="g338">
              <g
                 transform="translate(1164.248,1065.6143)"
                 id="g336">
                <path
                   d="m 0,0 c 1.85,-1.396 3.944,-2.582 6.246,-3.489 1.151,-0.454 2.652,-1.081 4.397,-1.78 3.699,-1.465 8.479,-3.315 13.607,-4.99 0.942,-0.313 1.885,-0.593 2.862,-0.907 1.43,-0.453 2.895,-0.872 4.326,-1.255 0.977,-0.245 1.954,-0.524 2.896,-0.733 0.489,-0.14 0.977,-0.244 1.466,-0.349 0.07,0 0.139,-0.035 0.243,-0.035 v -0.035 c 8.689,-1.884 16.574,-2.128 19.923,1.919 1.954,2.373 2.06,16.818 2.443,19.924 2.652,21.841 8.34,58.338 29.309,71.981 -4.571,0.977 -9.28,1.814 -13.99,2.442 C 58.166,84.717 42.255,84.333 28.019,78.89 21.39,76.378 15.108,72.749 9.421,67.76 -11.2,49.65 -13.013,22.261 0,0"
                   style="fill:#ffffff;fill-opacity:1;fill-rule:nonzero;stroke:none"
                   id="path334" />
              </g>
            </g>
          </g>
        </g>
        <g
           id="g342">
          <g
             id="g344" />
          <g
             id="g356">
            <g
               clip-path="url(#clipPath348)"
               opacity="0.100006"
               id="g354">
              <g
                 transform="translate(1174.8911,1060.3457)"
                 id="g352">
                <path
                   d="m 0,0 c 3.699,-1.466 8.479,-3.315 13.607,-4.99 0.942,-0.314 1.885,-0.593 2.862,-0.907 1.43,-0.454 2.895,-0.873 4.326,-1.255 0.976,-0.281 1.918,-0.525 2.896,-0.734 0.489,-0.139 0.976,-0.244 1.466,-0.348 0.07,-0.036 0.174,-0.071 0.243,-0.071 V -8.27 C 22.33,13.607 27.704,38.521 36.253,55.896 41.277,66.05 51.222,79.169 63.084,87.962 47.523,89.985 31.612,89.602 17.376,84.158 -3.909,63.887 -3.699,30.6 0,0"
                   style="fill:#ffffff;fill-opacity:1;fill-rule:nonzero;stroke:none"
                   id="path350" />
              </g>
            </g>
          </g>
        </g>
        <g
           id="g358">
          <g
             id="g360" />
          <g
             id="g372">
            <g
               clip-path="url(#clipPath364)"
               opacity="0.100006"
               id="g370">
              <g
                 transform="translate(580.4057,817.3945)"
                 id="g368">
                <path
                   d="m 0,0 c 25.61,-20.342 54.745,-30.355 89.95,-27.739 76.658,5.687 96.232,49.72 120.307,114.41 11.445,30.809 23.272,61.863 41.591,89.218 11.654,17.446 54.431,46.301 53.733,67.132 -0.733,22.679 -37.37,41.416 -63.956,50.836 -4.92,-1.604 -9.804,-3.419 -14.655,-5.373 C 124.493,247.521 29.832,139.776 5.443,34.717 2.721,23.098 0.873,11.479 0,0"
                   style="fill:#ffffff;fill-opacity:1;fill-rule:nonzero;stroke:none"
                   id="path366" />
              </g>
            </g>
          </g>
        </g>
        <g
           id="g374">
          <g
             id="g376" />
          <g
             id="g388">
            <g
               clip-path="url(#clipPath380)"
               opacity="0.100006"
               id="g386">
              <g
                 transform="translate(585.8491,852.1113)"
                 id="g384">
                <path
                   d="m 0,0 c 4.605,-4.745 9.769,-8.897 16.294,-11.828 13.957,-6.245 30.984,-8.443 46.126,-6.28 39.184,5.547 61.654,38.17 78.053,70.865 16.923,33.74 29.868,69.679 56.665,97.139 13.642,14.025 28.437,26.901 42.394,40.614 9.455,9.28 21.737,20.515 27.25,33.461 -4.781,4.884 -9.874,9.385 -15.248,13.538 -9.595,6.245 -19.993,11.619 -30.007,16.259 C 119.049,212.805 24.389,105.06 0,0"
                   style="fill:#ffffff;fill-opacity:1;fill-rule:nonzero;stroke:none"
                   id="path382" />
              </g>
            </g>
          </g>
        </g>
        <g
           id="g390">
          <g
             id="g392" />
          <g
             id="g404">
            <g
               clip-path="url(#clipPath396)"
               opacity="0.100006"
               id="g402">
              <g
                 transform="translate(1162.396,925.7178)"
                 id="g400">
                <path
                   d="M 0,0 C 1.487,19.347 8.872,38.177 21.914,52.533 33.277,65.037 61.984,58.379 76.25,54.28 87.785,50.967 98.757,43.585 103.45,32.539 108.622,20.364 105.39,6.416 101.8,-6.315 96.887,-23.741 91.097,-41.601 78.992,-55.064 66.888,-68.528 46.788,-76.438 30.166,-69.262 17.985,-64.003 10.056,-51.917 5.425,-39.484 0.756,-26.946 -1.026,-13.351 0,0"
                   style="fill:#ffffff;fill-opacity:1;fill-rule:nonzero;stroke:none"
                   id="path398" />
              </g>
            </g>
          </g>
        </g>
        <g
           id="g406"
           transform="translate(1947.7344,740.0449)">
          <path
             d="m 0,0 c 5.699,-5.235 11.585,-10.192 17.626,-14.932 44.362,-34.666 98.235,-56.661 153.376,-69.579 16.235,-3.842 32.592,-6.877 48.856,-9.201 90.799,-13.042 192.812,-8.27 278.283,27.541 28.129,11.773 51.89,28.191 74.35,48.731 4.214,3.809 8.365,7.651 12.515,11.43 -2.199,13.972 -5.141,27.82 -8.953,41.357 -0.991,3.532 -2.013,7.033 -3.128,10.533 -6.568,20.756 -15.179,40.799 -25.744,59.759 -0.124,0.185 -0.248,0.371 -0.372,0.557 -16.294,23.327 -34.882,45.26 -57.031,63.228 -8.303,6.754 -17.381,13.104 -27.045,18.805 -3.254,1.92 -6.567,3.779 -9.944,5.513 -0.062,0.063 -0.156,0.094 -0.248,0.155 -0.464,0.249 -0.93,0.465 -1.363,0.682 -5.205,2.664 -10.503,5.111 -15.924,7.311 0.063,0.186 0.124,0.372 0.187,0.589 v 0.062 c 0.216,0.588 0.372,1.208 0.526,1.858 0.031,0.062 0.031,0.124 0.062,0.217 2.695,11.369 -0.806,24.504 -8.365,36.587 -9.572,15.21 -21.715,28.655 -35.656,39.838 -12.98,10.44 -27.541,18.96 -43.03,25.124 -6.288,2.541 -12.732,4.679 -19.3,6.413 -6.63,1.734 -13.352,3.067 -20.167,3.965 -1.209,0.155 -2.447,0.311 -3.656,0.435 -43.524,4.677 -88.29,-9.202 -121.995,-37.051 -3.564,-2.944 -7.032,-6.042 -10.316,-9.294 -0.154,-0.155 -0.31,-0.311 -0.464,-0.465 -12.64,-12.578 -26.737,-31.691 -25.001,-50.187 -0.31,-0.154 -0.651,-0.278 -0.96,-0.432 -0.031,0 -0.031,-0.031 -0.031,-0.031 -4.554,-2.045 -9.078,-4.183 -13.506,-6.475 -0.033,0 -0.063,-0.031 -0.094,-0.031 C 101.3,196.623 72.088,174.783 49.844,146.066 33.116,124.474 20.198,99.505 12.856,73.11 11.585,69.857 10.378,66.574 9.231,63.352 8.457,61.215 7.807,59.077 7.094,56.939 6.938,56.258 6.814,55.576 6.66,54.895 V 54.863 C 5.421,48.854 4.368,42.813 3.47,36.772 1.673,24.598 0.558,12.329 0,0"
             style="fill:#f2f2f2;fill-opacity:1;fill-rule:nonzero;stroke:none"
             id="path408" />
        </g>
        <g
           id="g410">
          <g
             id="g412" />
          <g
             id="g424">
            <g
               clip-path="url(#clipPath416)"
               opacity="0.100006"
               id="g422">
              <g
                 transform="translate(2410.4673,928.2734)"
                 id="g420">
                <path
                   d="M 0,0 C -3.254,1.921 -6.567,3.779 -9.944,5.514 -6.567,3.655 -3.222,1.704 0.093,-0.341 0.062,-0.217 0.03,-0.124 0,0"
                   style="fill:#000000;fill-opacity:1;fill-rule:nonzero;stroke:none"
                   id="path418" />
              </g>
            </g>
          </g>
        </g>
        <g
           id="g426">
          <g
             id="g428" />
          <g
             id="g440">
            <g
               clip-path="url(#clipPath432)"
               opacity="0.100006"
               id="g438">
              <g
                 transform="translate(2111.9429,962.4346)"
                 id="g436">
                <path
                   d="m 0,0 c 2.981,0.476 5.95,0.967 8.964,1.402 4.46,0.682 8.953,1.302 13.444,1.921 0.496,0.062 0.96,0.124 1.456,0.217 2.51,0.31 5.02,0.65 7.529,0.96 1.083,0.124 2.2,0.279 3.283,0.403 h 0.063 c 3.903,0.495 7.837,0.93 11.802,1.364 29.678,3.129 60.13,4.677 90.272,3.469 3.471,-0.155 6.971,-0.309 10.441,-0.527 3.284,-0.217 6.568,-0.464 9.851,-0.743 0.185,0 0.403,0 0.589,-0.031 1.053,-0.093 2.106,-0.186 3.16,-0.31 0.833,-0.064 1.668,-0.151 2.502,-0.235 0.463,-0.045 0.927,-0.088 1.389,-0.135 2.17,-0.211 4.316,-0.446 6.486,-0.714 0.698,-0.052 1.375,-0.148 2.063,-0.232 0.751,-0.091 1.499,-0.191 2.248,-0.287 1.446,-0.184 2.895,-0.37 4.332,-0.566 2.293,-0.31 4.585,-0.682 6.847,-1.021 0.898,-0.124 1.828,-0.28 2.727,-0.435 2.043,-0.341 4.088,-0.681 6.134,-1.053 3.406,-0.62 6.814,-1.27 10.222,-2.013 1.394,-0.31 2.82,-0.589 4.213,-0.899 0.032,0 0.093,0 0.124,-0.031 2.385,-0.558 4.802,-1.115 7.188,-1.703 2.602,-0.652 5.203,-1.302 7.775,-2.015 2.355,-0.65 4.708,-1.331 7.062,-2.013 0.559,-0.155 1.085,-0.31 1.644,-0.496 2.229,-0.681 4.46,-1.363 6.66,-2.106 2.539,-0.837 5.049,-1.704 7.558,-2.571 1.951,-0.713 3.905,-1.425 5.824,-2.201 5.887,-2.199 11.68,-4.646 17.38,-7.31 2.106,-0.96 4.212,-1.951 6.289,-2.974 -0.031,0.031 -0.031,0.031 -0.063,0.062 -1.642,1.518 -3.284,3.005 -4.987,4.492 l -0.651,0.558 c 4.272,42.208 -43.99,73.853 -44.02,76.424 -12.981,10.441 -27.541,18.96 -43.03,25.124 2.88,-17.534 1.796,-38.629 -2.138,-56.722 -6.042,1.332 -12.051,2.509 -18.091,3.532 C 110.605,39.816 57.941,36.378 17.917,15.064 9.428,10.572 1.529,5.244 -5.689,-0.89 L -5.72,-0.921 C -3.83,-0.605 -1.914,-0.3 0,0"
                   style="fill:#000000;fill-opacity:1;fill-rule:nonzero;stroke:none"
                   id="path434" />
              </g>
            </g>
          </g>
        </g>
        <g
           id="g442">
          <g
             id="g444" />
          <g
             id="g456">
            <g
               clip-path="url(#clipPath448)"
               opacity="0.100006"
               id="g454">
              <g
                 transform="translate(2217.4136,1049.7686)"
                 id="g452">
                <path
                   d="m 0,0 c 12.739,6.32 53.423,-11.289 36.096,-24.28 -7.709,-5.781 -31.968,-2.091 -41.646,-3.458 -13.262,-1.874 -24.464,-6.746 -37.026,-10.906 -5.582,-1.847 -19.977,-6.997 -24.263,-0.419 -4.411,6.77 5.666,16.121 10.292,19.299 C -39.814,-8.266 -18.188,-2.61 0,0"
                   style="fill:#ffffff;fill-opacity:1;fill-rule:nonzero;stroke:none"
                   id="path450" />
              </g>
            </g>
          </g>
        </g>
        <g
           id="g458">
          <g
             id="g460" />
          <g
             id="g472">
            <g
               clip-path="url(#clipPath464)"
               opacity="0.100006"
               id="g470">
              <g
                 transform="translate(1951.2041,776.8174)"
                 id="g468">
                <path
                   d="m 0,0 c 13.444,-13.166 31.536,-22.801 49.691,-29.214 69.608,-24.473 162.142,-18.711 197.583,52.851 22.273,45.012 55.916,89.746 103.47,109.944 31.041,13.197 60.44,7.744 91.171,15.706 0.588,0.155 1.115,0.279 1.641,0.372 5.793,1.301 7.095,0.619 4.152,8.148 0,0.031 0,0.031 -0.032,0.062 -0.248,0.681 -0.526,1.394 -0.866,2.199 -4.493,2.54 -9.016,4.925 -13.601,7.218 -0.248,0.093 -0.496,0.217 -0.711,0.341 -35.502,17.379 -73.762,26.518 -113.074,29.678 -0.062,0.031 -0.124,0.031 -0.186,0.031 -1.797,0.155 -3.594,0.278 -5.39,0.372 -1.859,0.123 -3.748,0.247 -5.607,0.341 -5.608,0.34 -11.246,0.526 -16.884,0.556 -6.227,0.094 -12.454,0.032 -18.712,-0.154 -13.414,-0.402 -26.826,-1.332 -40.21,-2.788 -1.922,-0.186 -3.81,-0.403 -5.731,-0.65 -3.873,-0.434 -7.776,-0.93 -11.648,-1.488 -0.837,-0.124 -1.705,-0.216 -2.54,-0.34 -1.457,-0.217 -2.913,-0.434 -4.368,-0.651 -4.091,-0.619 -8.179,-1.27 -12.268,-1.952 -0.156,-0.03 -0.28,-0.03 -0.402,-0.061 h -0.063 c -9.573,-1.642 -19.115,-3.501 -28.593,-5.515 -1.735,-0.341 -3.44,-0.743 -5.143,-1.115 -10.626,-2.324 -21.159,-4.895 -31.567,-7.62 -0.032,0 -0.063,-0.032 -0.094,-0.032 C 97.831,159.851 68.619,138.011 46.375,109.294 29.646,87.701 16.729,62.732 9.386,36.338 8.115,33.085 6.908,29.802 5.762,26.579 4.987,24.442 4.337,22.305 3.625,20.167 3.469,19.485 3.345,18.804 3.19,18.122 V 18.091 C 1.951,12.081 0.898,6.041 0,0"
                   style="fill:#ffffff;fill-opacity:1;fill-rule:nonzero;stroke:none"
                   id="path466" />
              </g>
            </g>
          </g>
        </g>
        <g
           id="g474">
          <g
             id="g476" />
          <g
             id="g488">
            <g
               clip-path="url(#clipPath480)"
               opacity="0.100006"
               id="g486">
              <g
                 transform="translate(1954.6558,794.2705)"
                 id="g484">
                <path
                   d="m 0,0 v -0.031 c 8.039,-12.672 17.623,-24.348 29.423,-32.391 21.833,-6.458 47.071,-3.796 67.886,5.821 43.578,20.108 73.629,62.535 106.842,95.708 14.077,14.054 28.744,27.304 44.251,39.379 25.139,30.389 66.952,50.088 103.721,59.328 3.499,0.88 7.026,1.699 10.618,2.424 h 0.062 c 0.032,0.032 0.093,0.032 0.124,0.032 2.538,0.504 5.107,0.979 7.677,1.421 -17.983,4.366 -36.396,7.15 -55.019,8.631 l -0.186,-0.001 c -1.797,0.15 -3.595,0.267 -5.391,0.384 -1.86,0.117 -3.749,0.234 -5.609,0.32 -5.608,0.29 -11.248,0.424 -16.885,0.497 -6.227,0.04 -12.484,-0.045 -18.711,-0.222 -13.412,-0.451 -26.822,-1.429 -40.2,-2.934 -1.92,-0.192 -3.809,-0.416 -5.73,-0.671 -3.87,-0.447 -7.771,-0.957 -11.642,-1.529 -0.835,-0.127 -1.704,-0.223 -2.538,-0.35 -1.456,-0.221 -2.912,-0.444 -4.366,-0.666 -4.088,-0.634 -8.175,-1.299 -12.261,-1.996 -0.155,-0.032 -0.279,-0.032 -0.402,-0.063 h -0.063 c -9.566,-1.677 -19.101,-3.57 -28.572,-5.617 -1.734,-0.348 -3.437,-0.756 -5.139,-1.135 -10.618,-2.361 -21.141,-4.971 -31.539,-7.735 -0.033,0 -0.063,-0.031 -0.094,-0.031 C 94.128,142.069 64.995,120.124 42.855,91.326 26.205,69.674 13.377,44.658 6.13,18.238 4.872,14.98 3.676,11.692 2.541,8.466 1.774,6.326 1.132,4.187 0.427,2.046 0.273,1.364 0.152,0.683 0,0"
                   style="fill:#ffffff;fill-opacity:1;fill-rule:nonzero;stroke:none"
                   id="path482" />
              </g>
            </g>
          </g>
        </g>
        <g
           id="g490">
          <g
             id="g492" />
          <g
             id="g504">
            <g
               clip-path="url(#clipPath496)"
               opacity="0.100006"
               id="g502">
              <g
                 transform="translate(2118.7368,655.5342)"
                 id="g500">
                <path
                   d="m 0,0 c 16.234,-3.842 32.592,-6.877 48.855,-9.201 90.799,-13.042 192.813,-8.271 278.284,27.541 28.129,11.772 51.889,28.19 74.349,48.73 4.214,3.81 8.366,7.652 12.516,11.431 -2.199,13.972 -5.142,27.819 -8.953,41.356 C 364.313,77.882 308.025,46.035 260.441,28.036 177.171,-3.5 87.146,-12.794 0,0"
                   style="fill:#000000;fill-opacity:1;fill-rule:nonzero;stroke:none"
                   id="path498" />
              </g>
            </g>
          </g>
        </g>
        <g
           id="g506"
           transform="translate(2452.3687,1861.2695)">
          <path
             d="m 0,0 c 43.18,215.899 57.573,431.799 71.967,647.698 14.393,474.978 -86.36,921.17 -143.933,1396.148 -28.787,331.046 -14.393,662.091 71.966,978.743 -532.551,14.393 -1079.496,-43.18 -1612.047,0 -43.18,-215.899 -57.573,-431.798 -71.967,-647.697 -14.393,-474.979 86.36,-921.17 143.933,-1396.149 C -1511.294,647.698 -1525.688,316.652 -1612.047,0 -1079.496,-14.393 -532.551,43.18 0,0"
             style="fill:#badb00;fill-opacity:1;fill-rule:nonzero;stroke:none"
             id="path508" />
        </g>
        <g
           id="g510"
           transform="translate(923.1533,1924.3672)">
          <path
             d="m 0,0 c 194.309,-2.671 392.919,3.05 585.753,8.63 292.617,8.448 594.622,17.19 890.528,-2.854 34.255,193.481 47.438,390.671 60.202,581.958 9.979,333.632 -37.291,649.427 -87.316,983.762 -19.538,130.495 -39.736,265.446 -56.224,401.465 l -0.225,2.179 c -29.531,339.718 -12.004,642.061 53.666,921.254 -194.323,2.628 -392.905,-3.064 -585.753,-8.63 -292.63,-8.448 -594.608,-17.191 -890.528,2.853 -34.254,-193.48 -47.439,-390.671 -60.202,-581.958 -9.979,-333.632 37.291,-649.426 87.316,-983.761 19.537,-130.495 39.736,-265.446 56.223,-401.465 l 0.226,-2.179 C 83.197,581.536 65.669,279.192 0,0 m 1581.419,-132.309 -57.432,4.653 c -307.333,24.907 -626.164,15.728 -934.495,6.789 -221.508,-6.409 -450.577,-13.044 -674.067,-6.972 l -82.438,2.221 21.689,79.556 c 78.024,286.067 100.921,598.474 70.026,955.003 -16.248,133.854 -36.25,267.513 -55.591,396.785 -50.981,340.631 -99.122,662.358 -88.651,1008.036 l 0.113,2.347 c 14.295,214.367 29.067,436.029 73.076,656.089 l 11.315,56.505 57.433,-4.653 c 307.333,-24.921 626.15,-15.715 934.495,-6.789 221.508,6.41 450.577,13.044 674.066,6.972 l 82.439,-2.221 -21.689,-79.556 c -78.024,-286.067 -100.921,-598.474 -70.027,-955.003 16.249,-133.855 36.251,-267.513 55.592,-396.785 50.98,-340.632 99.122,-662.358 88.65,-1008.035 l -0.112,-2.348 c -14.295,-214.367 -29.067,-436.029 -73.077,-656.089 z"
             style="fill:#81c200;fill-opacity:1;fill-rule:nonzero;stroke:none"
             id="path512" />
        </g>
        <g
           id="g514"
           transform="translate(2222.0767,2091.5625)">
          <path
             d="m 0,0 c 143.933,561.338 28.786,1137.069 -57.573,1712.8 -43.18,287.866 0,575.731 57.573,849.203 h -1151.462 c -143.934,-561.337 -28.787,-1137.068 43.179,-1712.8 43.18,-287.865 28.787,-575.731 -43.179,-849.203 z"
             style="fill:#81c200;fill-opacity:1;fill-rule:nonzero;stroke:none"
             id="path516" />
        </g>
        <g
           id="g518"
           transform="translate(1675.1318,4380.0937)">
          <path
             d="m 0,0 c 57.573,14.393 115.146,-43.18 143.933,-86.36 14.393,-43.18 14.393,-86.359 -14.393,-129.539 -43.18,-43.18 -100.753,-86.36 -158.327,-71.967 -43.179,14.394 -86.359,57.574 -100.753,86.36 C -158.326,-115.146 -100.753,0 0,0"
             style="fill:#badb00;fill-opacity:1;fill-rule:nonzero;stroke:none"
             id="path520" />
        </g>
        <g
           id="g522"
           transform="translate(1675.1318,2681.6865)">
          <path
             d="m 0,0 c 57.573,14.394 115.146,-43.18 143.933,-86.359 14.393,-43.18 14.393,-86.36 -14.393,-129.54 -43.18,-43.18 -100.753,-86.36 -158.327,-71.966 -43.179,14.393 -86.359,57.573 -100.753,86.359 C -158.326,-115.146 -100.753,0 0,0"
             style="fill:#badb00;fill-opacity:1;fill-rule:nonzero;stroke:none"
             id="path524" />
        </g>
      </g>
    </g>
    <g
       id="g526">
      <g
         id="g528"
         clip-path="url(#clipPath532)">
        <g
           id="g534"
           transform="translate(2207.6831,4869.4653)">
          <path
             d="m 0,0 c 100.753,14.393 187.112,-57.573 230.293,-143.933 14.393,-71.966 0,-143.933 -28.787,-201.506 -86.36,-115.146 -244.686,-115.146 -345.439,-28.787 -43.179,43.181 -71.966,115.147 -57.573,187.113 C -172.72,-86.36 -100.753,0 0,0"
             style="fill:#badb00;fill-opacity:1;fill-rule:nonzero;stroke:none"
             id="path536" />
        </g>
        <g
           id="g538"
           transform="translate(1041.8276,4869.4653)">
          <path
             d="m 0,0 c 86.359,14.393 172.719,-28.787 215.899,-100.753 28.787,-57.573 43.18,-129.539 14.393,-201.506 -28.786,-57.573 -86.359,-100.753 -143.933,-129.539 -129.539,-28.787 -287.865,57.572 -287.865,201.506 0,115.146 86.359,215.898 201.506,230.292"
             style="fill:#badb00;fill-opacity:1;fill-rule:nonzero;stroke:none"
             id="path540" />
        </g>
        <g
           id="g542"
           transform="translate(2207.6831,2307.4619)">
          <path
             d="m 0,0 c 100.753,14.393 187.112,-57.573 230.293,-143.934 43.18,-158.326 -71.967,-302.258 -244.687,-287.865 -143.932,14.394 -230.292,172.72 -172.718,302.259 C -158.326,-57.573 -86.359,-14.394 0,0"
             style="fill:#badb00;fill-opacity:1;fill-rule:nonzero;stroke:none"
             id="path544" />
        </g>
        <g
           id="g546"
           transform="translate(1041.8276,2307.4619)">
          <path
             d="m 0,0 c 86.359,14.393 172.719,-28.787 215.899,-100.753 28.787,-57.573 43.18,-129.54 14.393,-201.507 -57.573,-115.145 -215.899,-172.719 -331.045,-100.753 -14.394,28.787 -43.18,43.181 -71.967,71.967 C -259.079,-187.113 -158.326,-14.394 0,0"
             style="fill:#badb00;fill-opacity:1;fill-rule:nonzero;stroke:none"
             id="path548" />
        </g>
      </g>
    </g>
    <g
       id="g550">
      <g
         id="g552"
         clip-path="url(#clipPath556)">
        <g
           id="g558"
           transform="translate(1603.1655,3876.3291)">
          <path
             d="m 0,0 c 143.933,0 273.472,-43.18 374.225,-158.326 115.146,-143.933 158.326,-331.046 71.966,-503.765 -14.393,-14.393 -28.786,-43.18 -43.179,-71.967 -100.753,-158.325 -287.866,-201.505 -474.978,-172.719 -172.72,43.18 -302.26,187.113 -345.439,359.832 C -460.585,-273.473 -273.473,-28.787 0,0"
             style="fill:#badb00;fill-opacity:1;fill-rule:nonzero;stroke:none"
             id="path560" />
        </g>
        <g
           id="g562">
          <g
             id="g564" />
          <g
             id="g576">
            <g
               clip-path="url(#clipPath568)"
               opacity="0.199997"
               id="g574">
              <g
                 transform="translate(1310.9609,4902.002)"
                 id="g572">
                <path
                   d="m 0,0 c 205.904,-53.854 405.546,-126.424 610.023,-184.553 174.96,-49.739 369.234,-87.274 522.608,-190.793 12.358,126.112 33.337,246.469 64.188,359.576 l 14.377,45.754 -67.452,2.803 C 920.254,38.859 700.461,31.1 478.954,24.69 289.279,19.2 91.918,19.313 -103.446,25.97 -68.901,17.581 -34.4,8.998 0,0"
                   style="fill:#ffffff;fill-opacity:1;fill-rule:nonzero;stroke:none"
                   id="path570" />
              </g>
            </g>
          </g>
        </g>
        <g
           id="g578">
          <g
             id="g580" />
          <g
             id="g592">
            <g
               clip-path="url(#clipPath584)"
               opacity="0.199997"
               id="g590">
              <g
                 transform="translate(2358.2446,1927.1709)"
                 id="g588">
                <path
                   d="m 0,0 c -235.158,35.143 -475.061,30.784 -708.303,80.263 -196.243,41.63 -395.53,111.189 -560.947,227.096 -85.977,60.243 -159.534,133.019 -229.376,209.658 -6.361,-201.525 -33.483,-388.771 -81.79,-565.882 l -21.688,-79.557 82.438,-2.221 c 223.489,-6.072 452.56,0.563 674.067,6.972 308.331,8.94 627.162,18.118 934.495,-6.789 l 57.432,-4.652 11.315,56.505 c 3.385,16.926 6.294,33.874 9.346,50.815 C 112.01,-16.852 56.056,-8.377 0,0"
                   style="fill:#ffffff;fill-opacity:1;fill-rule:nonzero;stroke:none"
                   id="path586" />
              </g>
            </g>
          </g>
        </g>
        <g
           id="g594"
           transform="translate(1581.604,4125.582)">
          <path
             d="m 0,0 c -1.505,-227.186 59.664,-339.14 144.448,-339.14 61.075,0 291.832,42.012 376.871,65.947 50.195,14.128 61.186,157.136 61.186,226.09 0,227.19 -100.486,422.355 -329.72,422.355 C 88.896,375.252 1.57,237.084 0,0"
             style="fill:#fafff4;fill-opacity:1;fill-rule:nonzero;stroke:none"
             id="path596" />
        </g>
      </g>
    </g>
    <g
       id="g598">
      <g
         id="g600"
         clip-path="url(#clipPath604)">
        <g
           id="g606"
           transform="translate(1643.9912,4105.064)">
          <path
             d="m 0,0 c 0,-101.91 82.614,-184.525 184.525,-184.525 101.91,0 184.524,82.615 184.524,184.525 0,101.91 -82.614,184.524 -184.524,184.524 C 82.614,184.524 0,101.91 0,0"
             style="fill:#59990b;fill-opacity:1;fill-rule:nonzero;stroke:none"
             id="path608" />
        </g>
        <g
           id="g610"
           transform="translate(1730.0659,4105.0576)">
          <path
             d="m 0,0 c 0,-54.366 44.072,-98.438 98.438,-98.438 54.365,0 98.437,44.072 98.437,98.438 0,54.365 -44.072,98.437 -98.437,98.438 C 44.072,98.438 0,54.365 0,0"
             style="fill:#213802;fill-opacity:1;fill-rule:nonzero;stroke:none"
             id="path612" />
        </g>
        <g
           id="g614"
           transform="translate(1634.8232,4190.3765)">
          <path
             d="m 0,0 c 0,-45.356 36.768,-82.125 82.124,-82.125 45.356,0 82.125,36.769 82.125,82.125 0,45.356 -36.769,82.124 -82.125,82.124 C 36.768,82.124 0,45.356 0,0"
             style="fill:#ffffff;fill-opacity:1;fill-rule:nonzero;stroke:none"
             id="path616" />
        </g>
        <g
           id="g618"
           transform="translate(1858.5132,4052.5859)">
          <path
             d="m 0,0 c 0,-15.963 12.94,-28.903 28.903,-28.903 15.962,0 28.903,12.94 28.903,28.903 0,15.963 -12.941,28.903 -28.903,28.903 C 12.94,28.903 0,15.963 0,0"
             style="fill:#ffffff;fill-opacity:1;fill-rule:nonzero;stroke:none"
             id="path620" />
        </g>
      </g>
    </g>
    <g
       id="g622">
      <g
         id="g624"
         clip-path="url(#clipPath628)">
        <g
           id="g630"
           transform="translate(1485.3657,4113.7207)">
          <path
             d="m 0,0 c 1.456,-219.769 -57.715,-328.069 -139.731,-328.069 -59.081,0 -282.302,40.641 -364.564,63.795 -48.555,13.666 -59.187,152.007 -59.187,218.71 0,219.774 97.204,408.568 318.952,408.568 C -85.993,363.003 -1.519,229.345 0,0"
             style="fill:#fafff4;fill-opacity:1;fill-rule:nonzero;stroke:none"
             id="path632" />
        </g>
      </g>
    </g>
    <g
       id="g634">
      <g
         id="g636"
         clip-path="url(#clipPath640)">
        <g
           id="g642"
           transform="translate(1070.2271,4105.0322)">
          <path
             d="m 0,0 c 0,-98.583 79.916,-178.501 178.499,-178.501 98.582,0 178.498,79.918 178.499,178.501 0,98.584 -79.917,178.502 -178.499,178.501 C 79.917,178.501 0,98.583 0,0"
             style="fill:#59990b;fill-opacity:1;fill-rule:nonzero;stroke:none"
             id="path644" />
        </g>
        <g
           id="g646"
           transform="translate(1154.3706,4105.0527)">
          <path
             d="m 0,0 c 0,-52.102 42.238,-94.338 94.341,-94.338 52.104,0 94.343,42.236 94.343,94.338 0,52.102 -42.239,94.338 -94.342,94.338 C 42.238,94.338 0,52.102 0,0"
             style="fill:#213802;fill-opacity:1;fill-rule:nonzero;stroke:none"
             id="path648" />
        </g>
        <g
           id="g650"
           transform="translate(1064.0718,4184.1724)">
          <path
             d="m 0,0 c 0,-43.875 35.567,-79.443 79.442,-79.443 43.875,0 79.443,35.568 79.443,79.443 0,43.875 -35.568,79.444 -79.443,79.444 C 35.568,79.443 0,43.875 0,0"
             style="fill:#ffffff;fill-opacity:1;fill-rule:nonzero;stroke:none"
             id="path652" />
        </g>
        <g
           id="g654"
           transform="translate(1273.3833,4048.3999)">
          <path
             d="m 0,0 c 0,-15.441 12.518,-27.959 27.959,-27.959 15.442,0 27.959,12.518 27.959,27.959 0,15.442 -12.517,27.959 -27.959,27.959 C 12.518,27.959 0,15.441 0,0"
             style="fill:#ffffff;fill-opacity:1;fill-rule:nonzero;stroke:none"
             id="path656" />
        </g>
      </g>
    </g>
    <g
       id="g658">
      <g
         id="g660"
         clip-path="url(#clipPath664)">
        <g
           id="g666"
           transform="translate(2126.5728,4462.4199)">
          <path
             d="m 0,0 c 0,0 -139.135,148.069 -272.877,141.597 -133.742,-6.471 -250.227,-35.592 -250.227,-35.592 0,0 -20.492,13.716 -14.021,51.465 l 6.471,37.75 c 0,0 39.907,-32.357 38.829,-26.964 -1.079,5.393 -4.315,30.2 -4.315,30.2 0,0 154.235,43.143 304.156,-12.943 C -42.064,129.428 0,0 0,0"
             style="fill:#407500;fill-opacity:1;fill-rule:nonzero;stroke:none"
             id="path668" />
        </g>
        <g
           id="g670"
           transform="translate(954.1015,4436.5913)">
          <path
             d="m 0,0 c 0,0 134.591,145.076 263.965,138.815 129.375,-6.26 242.056,-34.431 242.056,-34.431 0,0 19.823,11.428 13.564,47.945 l -6.261,36.518 c 0,0 -38.603,-31.301 -37.56,-26.084 1.043,5.216 4.174,29.214 4.174,29.214 0,0 -149.199,41.734 -294.223,-12.52 C 40.69,125.203 0,0 0,0"
             style="fill:#407500;fill-opacity:1;fill-rule:nonzero;stroke:none"
             id="path672" />
        </g>
        <g
           id="g674"
           transform="translate(1293.8169,3443.9595)">
          <path
             d="m 0,0 c 206.54,-104.848 156.533,-318.392 414.298,-285.274 174.679,22.443 338.77,186.258 365.73,463.177 C 780.028,177.903 445.259,-130.318 0,0"
             style="fill:#407500;fill-opacity:1;fill-rule:nonzero;stroke:none"
             id="path676" />
        </g>
        <g
           id="g678"
           transform="translate(1941.6626,3638.7368)">
          <path
             d="m 0,0 c 0,0 204.657,62.103 199.012,-136.909 0,0 -9.88,126.324 -199.012,136.909"
             style="fill:#407500;fill-opacity:1;fill-rule:nonzero;stroke:none"
             id="path680" />
        </g>
        <g
           id="g682"
           transform="translate(1395.0859,3472.6528)">
          <path
             d="m 0,0 c 0,0 -150.336,18.535 -124.855,-124.681 0,0 12.647,103.045 124.855,124.681"
             style="fill:#407500;fill-opacity:1;fill-rule:nonzero;stroke:none"
             id="path684" />
        </g>
      </g>
    </g>
  </g>
</svg>
